<?xml version="1.0" encoding="utf-8" standalone="no"?>
<!DOCTYPE svg PUBLIC "-//W3C//DTD SVG 1.1//EN"
  "http://www.w3.org/Graphics/SVG/1.1/DTD/svg11.dtd">
<svg xmlns:xlink="http://www.w3.org/1999/xlink" width="348.48pt" height="348.48pt" viewBox="0 0 348.48 348.48" xmlns="http://www.w3.org/2000/svg" version="1.1">
 <metadata>
  <rdf:RDF xmlns:dc="http://purl.org/dc/elements/1.1/" xmlns:cc="http://creativecommons.org/ns#" xmlns:rdf="http://www.w3.org/1999/02/22-rdf-syntax-ns#">
   <cc:Work>
    <dc:type rdf:resource="http://purl.org/dc/dcmitype/StillImage"/>
    <dc:date>2022-09-05T21:33:01.695335</dc:date>
    <dc:format>image/svg+xml</dc:format>
    <dc:creator>
     <cc:Agent>
      <dc:title>Matplotlib v3.6.0rc1, https://matplotlib.org/</dc:title>
     </cc:Agent>
    </dc:creator>
   </cc:Work>
  </rdf:RDF>
 </metadata>
 <defs>
  <style type="text/css">*{stroke-linejoin: round; stroke-linecap: butt}</style>
 </defs>
 <g id="figure_1">
  <g id="patch_1">
   <path d="M 0 348.48 
L 348.48 348.48 
L 348.48 0 
L 0 0 
z
" style="fill: #ffffff"/>
  </g>
  <g id="axes_1">
   <g id="QuadMesh_1">
    <path d="M 7.2 43.817143 
L 40.608 43.817143 
L 40.608 7.2 
L 7.2 7.2 
L 7.2 43.817143 
" clip-path="url(#pc85c3cec08)" style="fill: #4c72b0; fill-opacity: 0.8; stroke: #ffffff; stroke-opacity: 0.8; stroke-width: 0.5"/>
    <path d="M 40.608 43.817143 
L 74.016 43.817143 
L 74.016 7.2 
L 40.608 7.2 
L 40.608 43.817143 
" clip-path="url(#pc85c3cec08)" style="fill: #dd8452; fill-opacity: 0.8; stroke: #ffffff; stroke-opacity: 0.8; stroke-width: 0.5"/>
    <path d="M 74.016 43.817143 
L 107.424 43.817143 
L 107.424 7.2 
L 74.016 7.2 
L 74.016 43.817143 
" clip-path="url(#pc85c3cec08)" style="fill: #55a868; fill-opacity: 0.8; stroke: #ffffff; stroke-opacity: 0.8; stroke-width: 0.5"/>
    <path d="M 107.424 43.817143 
L 140.832 43.817143 
L 140.832 7.2 
L 107.424 7.2 
L 107.424 43.817143 
" clip-path="url(#pc85c3cec08)" style="fill: #c44e52; fill-opacity: 0.8; stroke: #ffffff; stroke-opacity: 0.8; stroke-width: 0.5"/>
    <path d="M 140.832 43.817143 
L 174.24 43.817143 
L 174.24 7.2 
L 140.832 7.2 
L 140.832 43.817143 
" clip-path="url(#pc85c3cec08)" style="fill: #8172b3; fill-opacity: 0.8; stroke: #ffffff; stroke-opacity: 0.8; stroke-width: 0.5"/>
    <path d="M 174.24 43.817143 
L 207.648 43.817143 
L 207.648 7.2 
L 174.24 7.2 
L 174.24 43.817143 
" clip-path="url(#pc85c3cec08)" style="fill: #937860; fill-opacity: 0.8; stroke: #ffffff; stroke-opacity: 0.8; stroke-width: 0.5"/>
    <path d="M 207.648 43.817143 
L 241.056 43.817143 
L 241.056 7.2 
L 207.648 7.2 
L 207.648 43.817143 
" clip-path="url(#pc85c3cec08)" style="fill: #da8bc3; fill-opacity: 0.8; stroke: #ffffff; stroke-opacity: 0.8; stroke-width: 0.5"/>
    <path d="M 241.056 43.817143 
L 274.464 43.817143 
L 274.464 7.2 
L 241.056 7.2 
L 241.056 43.817143 
" clip-path="url(#pc85c3cec08)" style="fill: #8c8c8c; fill-opacity: 0.8; stroke: #ffffff; stroke-opacity: 0.8; stroke-width: 0.5"/>
    <path d="M 274.464 43.817143 
L 307.872 43.817143 
L 307.872 7.2 
L 274.464 7.2 
L 274.464 43.817143 
" clip-path="url(#pc85c3cec08)" style="fill: #ccb974; fill-opacity: 0.8; stroke: #ffffff; stroke-opacity: 0.8; stroke-width: 0.5"/>
    <path d="M 307.872 43.817143 
L 341.28 43.817143 
L 341.28 7.2 
L 307.872 7.2 
L 307.872 43.817143 
" clip-path="url(#pc85c3cec08)" style="fill: #64b5cd; fill-opacity: 0.8; stroke: #ffffff; stroke-opacity: 0.8; stroke-width: 0.5"/>
   </g>
  </g>
  <g id="axes_2">
   <g id="QuadMesh_2">
    <path d="M 7.2 93.394286 
L 40.608 93.394286 
L 40.608 56.777143 
L 7.2 56.777143 
L 7.2 93.394286 
" clip-path="url(#pec793212ef)" style="fill: #f77189; fill-opacity: 0.8; stroke: #ffffff; stroke-opacity: 0.8; stroke-width: 0.5"/>
    <path d="M 40.608 93.394286 
L 74.016 93.394286 
L 74.016 56.777143 
L 40.608 56.777143 
L 40.608 93.394286 
" clip-path="url(#pec793212ef)" style="fill: #dc8932; fill-opacity: 0.8; stroke: #ffffff; stroke-opacity: 0.8; stroke-width: 0.5"/>
    <path d="M 74.016 93.394286 
L 107.424 93.394286 
L 107.424 56.777143 
L 74.016 56.777143 
L 74.016 93.394286 
" clip-path="url(#pec793212ef)" style="fill: #ae9d31; fill-opacity: 0.8; stroke: #ffffff; stroke-opacity: 0.8; stroke-width: 0.5"/>
    <path d="M 107.424 93.394286 
L 140.832 93.394286 
L 140.832 56.777143 
L 107.424 56.777143 
L 107.424 93.394286 
" clip-path="url(#pec793212ef)" style="fill: #77ab31; fill-opacity: 0.8; stroke: #ffffff; stroke-opacity: 0.8; stroke-width: 0.5"/>
    <path d="M 140.832 93.394286 
L 174.24 93.394286 
L 174.24 56.777143 
L 140.832 56.777143 
L 140.832 93.394286 
" clip-path="url(#pec793212ef)" style="fill: #33b07a; fill-opacity: 0.8; stroke: #ffffff; stroke-opacity: 0.8; stroke-width: 0.5"/>
    <path d="M 174.24 93.394286 
L 207.648 93.394286 
L 207.648 56.777143 
L 174.24 56.777143 
L 174.24 93.394286 
" clip-path="url(#pec793212ef)" style="fill: #36ada4; fill-opacity: 0.8; stroke: #ffffff; stroke-opacity: 0.8; stroke-width: 0.5"/>
    <path d="M 207.648 93.394286 
L 241.056 93.394286 
L 241.056 56.777143 
L 207.648 56.777143 
L 207.648 93.394286 
" clip-path="url(#pec793212ef)" style="fill: #38a9c5; fill-opacity: 0.8; stroke: #ffffff; stroke-opacity: 0.8; stroke-width: 0.5"/>
    <path d="M 241.056 93.394286 
L 274.464 93.394286 
L 274.464 56.777143 
L 241.056 56.777143 
L 241.056 93.394286 
" clip-path="url(#pec793212ef)" style="fill: #6e9bf4; fill-opacity: 0.8; stroke: #ffffff; stroke-opacity: 0.8; stroke-width: 0.5"/>
    <path d="M 274.464 93.394286 
L 307.872 93.394286 
L 307.872 56.777143 
L 274.464 56.777143 
L 274.464 93.394286 
" clip-path="url(#pec793212ef)" style="fill: #cc7af4; fill-opacity: 0.8; stroke: #ffffff; stroke-opacity: 0.8; stroke-width: 0.5"/>
    <path d="M 307.872 93.394286 
L 341.28 93.394286 
L 341.28 56.777143 
L 307.872 56.777143 
L 307.872 93.394286 
" clip-path="url(#pec793212ef)" style="fill: #f565cc; fill-opacity: 0.8; stroke: #ffffff; stroke-opacity: 0.8; stroke-width: 0.5"/>
   </g>
  </g>
  <g id="axes_3">
   <g id="QuadMesh_3">
    <path d="M 7.2 142.971429 
L 40.608 142.971429 
L 40.608 106.354286 
L 7.2 106.354286 
L 7.2 142.971429 
" clip-path="url(#p811f98896d)" style="fill: #171717; fill-opacity: 0.8; stroke: #ffffff; stroke-opacity: 0.8; stroke-width: 0.5"/>
    <path d="M 40.608 142.971429 
L 74.016 142.971429 
L 74.016 106.354286 
L 40.608 106.354286 
L 40.608 142.971429 
" clip-path="url(#p811f98896d)" style="fill: #2e2e2e; fill-opacity: 0.8; stroke: #ffffff; stroke-opacity: 0.8; stroke-width: 0.5"/>
    <path d="M 74.016 142.971429 
L 107.424 142.971429 
L 107.424 106.354286 
L 74.016 106.354286 
L 74.016 142.971429 
" clip-path="url(#p811f98896d)" style="fill: #454545; fill-opacity: 0.8; stroke: #ffffff; stroke-opacity: 0.8; stroke-width: 0.5"/>
    <path d="M 107.424 142.971429 
L 140.832 142.971429 
L 140.832 106.354286 
L 107.424 106.354286 
L 107.424 142.971429 
" clip-path="url(#p811f98896d)" style="fill: #5d5d5d; fill-opacity: 0.8; stroke: #ffffff; stroke-opacity: 0.8; stroke-width: 0.5"/>
    <path d="M 140.832 142.971429 
L 174.24 142.971429 
L 174.24 106.354286 
L 140.832 106.354286 
L 140.832 142.971429 
" clip-path="url(#p811f98896d)" style="fill: #747474; fill-opacity: 0.8; stroke: #ffffff; stroke-opacity: 0.8; stroke-width: 0.5"/>
    <path d="M 174.24 142.971429 
L 207.648 142.971429 
L 207.648 106.354286 
L 174.24 106.354286 
L 174.24 142.971429 
" clip-path="url(#p811f98896d)" style="fill: #8b8b8b; fill-opacity: 0.8; stroke: #ffffff; stroke-opacity: 0.8; stroke-width: 0.5"/>
    <path d="M 207.648 142.971429 
L 241.056 142.971429 
L 241.056 106.354286 
L 207.648 106.354286 
L 207.648 142.971429 
" clip-path="url(#p811f98896d)" style="fill: #a2a2a2; fill-opacity: 0.8; stroke: #ffffff; stroke-opacity: 0.8; stroke-width: 0.5"/>
    <path d="M 241.056 142.971429 
L 274.464 142.971429 
L 274.464 106.354286 
L 241.056 106.354286 
L 241.056 142.971429 
" clip-path="url(#p811f98896d)" style="fill: #bababa; fill-opacity: 0.8; stroke: #ffffff; stroke-opacity: 0.8; stroke-width: 0.5"/>
    <path d="M 274.464 142.971429 
L 307.872 142.971429 
L 307.872 106.354286 
L 274.464 106.354286 
L 274.464 142.971429 
" clip-path="url(#p811f98896d)" style="fill: #d1d1d1; fill-opacity: 0.8; stroke: #ffffff; stroke-opacity: 0.8; stroke-width: 0.5"/>
    <path d="M 307.872 142.971429 
L 341.28 142.971429 
L 341.28 106.354286 
L 307.872 106.354286 
L 307.872 142.971429 
" clip-path="url(#p811f98896d)" style="fill: #e8e8e8; fill-opacity: 0.8; stroke: #ffffff; stroke-opacity: 0.8; stroke-width: 0.5"/>
   </g>
  </g>
  <g id="axes_4">
   <g id="QuadMesh_4">
    <path d="M 7.2 192.548571 
L 40.608 192.548571 
L 40.608 155.931429 
L 7.2 155.931429 
L 7.2 192.548571 
" clip-path="url(#p79654f0312)" style="fill: #edd1cb; fill-opacity: 0.8; stroke: #ffffff; stroke-opacity: 0.8; stroke-width: 0.5"/>
    <path d="M 40.608 192.548571 
L 74.016 192.548571 
L 74.016 155.931429 
L 40.608 155.931429 
L 40.608 192.548571 
" clip-path="url(#p79654f0312)" style="fill: #e4b8b8; fill-opacity: 0.8; stroke: #ffffff; stroke-opacity: 0.8; stroke-width: 0.5"/>
    <path d="M 74.016 192.548571 
L 107.424 192.548571 
L 107.424 155.931429 
L 74.016 155.931429 
L 74.016 192.548571 
" clip-path="url(#p79654f0312)" style="fill: #d89faa; fill-opacity: 0.8; stroke: #ffffff; stroke-opacity: 0.8; stroke-width: 0.5"/>
    <path d="M 107.424 192.548571 
L 140.832 192.548571 
L 140.832 155.931429 
L 107.424 155.931429 
L 107.424 192.548571 
" clip-path="url(#p79654f0312)" style="fill: #c8879e; fill-opacity: 0.8; stroke: #ffffff; stroke-opacity: 0.8; stroke-width: 0.5"/>
    <path d="M 140.832 192.548571 
L 174.24 192.548571 
L 174.24 155.931429 
L 140.832 155.931429 
L 140.832 192.548571 
" clip-path="url(#p79654f0312)" style="fill: #b47194; fill-opacity: 0.8; stroke: #ffffff; stroke-opacity: 0.8; stroke-width: 0.5"/>
    <path d="M 174.24 192.548571 
L 207.648 192.548571 
L 207.648 155.931429 
L 174.24 155.931429 
L 174.24 192.548571 
" clip-path="url(#p79654f0312)" style="fill: #9e5e8a; fill-opacity: 0.8; stroke: #ffffff; stroke-opacity: 0.8; stroke-width: 0.5"/>
    <path d="M 207.648 192.548571 
L 241.056 192.548571 
L 241.056 155.931429 
L 207.648 155.931429 
L 207.648 192.548571 
" clip-path="url(#p79654f0312)" style="fill: #834c7d; fill-opacity: 0.8; stroke: #ffffff; stroke-opacity: 0.8; stroke-width: 0.5"/>
    <path d="M 241.056 192.548571 
L 274.464 192.548571 
L 274.464 155.931429 
L 241.056 155.931429 
L 241.056 192.548571 
" clip-path="url(#p79654f0312)" style="fill: #673c6d; fill-opacity: 0.8; stroke: #ffffff; stroke-opacity: 0.8; stroke-width: 0.5"/>
    <path d="M 274.464 192.548571 
L 307.872 192.548571 
L 307.872 155.931429 
L 274.464 155.931429 
L 274.464 192.548571 
" clip-path="url(#p79654f0312)" style="fill: #492d58; fill-opacity: 0.8; stroke: #ffffff; stroke-opacity: 0.8; stroke-width: 0.5"/>
    <path d="M 307.872 192.548571 
L 341.28 192.548571 
L 341.28 155.931429 
L 307.872 155.931429 
L 307.872 192.548571 
" clip-path="url(#p79654f0312)" style="fill: #2d1e3e; fill-opacity: 0.8; stroke: #ffffff; stroke-opacity: 0.8; stroke-width: 0.5"/>
   </g>
  </g>
  <g id="axes_5">
   <g id="QuadMesh_5">
    <path d="M 7.2 242.125714 
L 40.608 242.125714 
L 40.608 205.508571 
L 7.2 205.508571 
L 7.2 242.125714 
" clip-path="url(#p7b6b7e117b)" style="fill: #231526; fill-opacity: 0.8; stroke: #ffffff; stroke-opacity: 0.8; stroke-width: 0.5"/>
    <path d="M 40.608 242.125714 
L 74.016 242.125714 
L 74.016 205.508571 
L 40.608 205.508571 
L 40.608 242.125714 
" clip-path="url(#p7b6b7e117b)" style="fill: #35264c; fill-opacity: 0.8; stroke: #ffffff; stroke-opacity: 0.8; stroke-width: 0.5"/>
    <path d="M 74.016 242.125714 
L 107.424 242.125714 
L 107.424 205.508571 
L 74.016 205.508571 
L 74.016 242.125714 
" clip-path="url(#p7b6b7e117b)" style="fill: #403974; fill-opacity: 0.8; stroke: #ffffff; stroke-opacity: 0.8; stroke-width: 0.5"/>
    <path d="M 107.424 242.125714 
L 140.832 242.125714 
L 140.832 205.508571 
L 107.424 205.508571 
L 107.424 242.125714 
" clip-path="url(#p7b6b7e117b)" style="fill: #3d5296; fill-opacity: 0.8; stroke: #ffffff; stroke-opacity: 0.8; stroke-width: 0.5"/>
    <path d="M 140.832 242.125714 
L 174.24 242.125714 
L 174.24 205.508571 
L 140.832 205.508571 
L 140.832 242.125714 
" clip-path="url(#p7b6b7e117b)" style="fill: #366da0; fill-opacity: 0.8; stroke: #ffffff; stroke-opacity: 0.8; stroke-width: 0.5"/>
    <path d="M 174.24 242.125714 
L 207.648 242.125714 
L 207.648 205.508571 
L 174.24 205.508571 
L 174.24 242.125714 
" clip-path="url(#p7b6b7e117b)" style="fill: #3487a6; fill-opacity: 0.8; stroke: #ffffff; stroke-opacity: 0.8; stroke-width: 0.5"/>
    <path d="M 207.648 242.125714 
L 241.056 242.125714 
L 241.056 205.508571 
L 207.648 205.508571 
L 207.648 242.125714 
" clip-path="url(#p7b6b7e117b)" style="fill: #35a1ab; fill-opacity: 0.8; stroke: #ffffff; stroke-opacity: 0.8; stroke-width: 0.5"/>
    <path d="M 241.056 242.125714 
L 274.464 242.125714 
L 274.464 205.508571 
L 241.056 205.508571 
L 241.056 242.125714 
" clip-path="url(#p7b6b7e117b)" style="fill: #44bcad; fill-opacity: 0.8; stroke: #ffffff; stroke-opacity: 0.8; stroke-width: 0.5"/>
    <path d="M 274.464 242.125714 
L 307.872 242.125714 
L 307.872 205.508571 
L 274.464 205.508571 
L 274.464 242.125714 
" clip-path="url(#p7b6b7e117b)" style="fill: #6dd3ad; fill-opacity: 0.8; stroke: #ffffff; stroke-opacity: 0.8; stroke-width: 0.5"/>
    <path d="M 307.872 242.125714 
L 341.28 242.125714 
L 341.28 205.508571 
L 307.872 205.508571 
L 307.872 242.125714 
" clip-path="url(#p7b6b7e117b)" style="fill: #aee3c0; fill-opacity: 0.8; stroke: #ffffff; stroke-opacity: 0.8; stroke-width: 0.5"/>
   </g>
  </g>
  <g id="axes_6">
   <g id="QuadMesh_6">
    <path d="M 7.2 291.702857 
L 40.608 291.702857 
L 40.608 255.085714 
L 7.2 255.085714 
L 7.2 291.702857 
" clip-path="url(#p07a2b4ce5b)" style="fill: #5782bc; fill-opacity: 0.8; stroke: #ffffff; stroke-opacity: 0.8; stroke-width: 0.5"/>
    <path d="M 40.608 291.702857 
L 74.016 291.702857 
L 74.016 255.085714 
L 40.608 255.085714 
L 40.608 291.702857 
" clip-path="url(#p07a2b4ce5b)" style="fill: #7e9ac2; fill-opacity: 0.8; stroke: #ffffff; stroke-opacity: 0.8; stroke-width: 0.5"/>
    <path d="M 74.016 291.702857 
L 107.424 291.702857 
L 107.424 255.085714 
L 74.016 255.085714 
L 74.016 291.702857 
" clip-path="url(#p07a2b4ce5b)" style="fill: #a3b4cd; fill-opacity: 0.8; stroke: #ffffff; stroke-opacity: 0.8; stroke-width: 0.5"/>
    <path d="M 107.424 291.702857 
L 140.832 291.702857 
L 140.832 255.085714 
L 107.424 255.085714 
L 107.424 291.702857 
" clip-path="url(#p07a2b4ce5b)" style="fill: #cad0dd; fill-opacity: 0.8; stroke: #ffffff; stroke-opacity: 0.8; stroke-width: 0.5"/>
    <path d="M 140.832 291.702857 
L 174.24 291.702857 
L 174.24 255.085714 
L 140.832 255.085714 
L 140.832 291.702857 
" clip-path="url(#p07a2b4ce5b)" style="fill: #efeef1; fill-opacity: 0.8; stroke: #ffffff; stroke-opacity: 0.8; stroke-width: 0.5"/>
    <path d="M 174.24 291.702857 
L 207.648 291.702857 
L 207.648 255.085714 
L 174.24 255.085714 
L 174.24 291.702857 
" clip-path="url(#p07a2b4ce5b)" style="fill: #f7eae8; fill-opacity: 0.8; stroke: #ffffff; stroke-opacity: 0.8; stroke-width: 0.5"/>
    <path d="M 207.648 291.702857 
L 241.056 291.702857 
L 241.056 255.085714 
L 207.648 255.085714 
L 207.648 291.702857 
" clip-path="url(#p07a2b4ce5b)" style="fill: #e6c5c3; fill-opacity: 0.8; stroke: #ffffff; stroke-opacity: 0.8; stroke-width: 0.5"/>
    <path d="M 241.056 291.702857 
L 274.464 291.702857 
L 274.464 255.085714 
L 241.056 255.085714 
L 241.056 291.702857 
" clip-path="url(#p07a2b4ce5b)" style="fill: #d7a09d; fill-opacity: 0.8; stroke: #ffffff; stroke-opacity: 0.8; stroke-width: 0.5"/>
    <path d="M 274.464 291.702857 
L 307.872 291.702857 
L 307.872 255.085714 
L 274.464 255.085714 
L 274.464 291.702857 
" clip-path="url(#p07a2b4ce5b)" style="fill: #c87e7b; fill-opacity: 0.8; stroke: #ffffff; stroke-opacity: 0.8; stroke-width: 0.5"/>
    <path d="M 307.872 291.702857 
L 341.28 291.702857 
L 341.28 255.085714 
L 307.872 255.085714 
L 307.872 291.702857 
" clip-path="url(#p07a2b4ce5b)" style="fill: #b95b5a; fill-opacity: 0.8; stroke: #ffffff; stroke-opacity: 0.8; stroke-width: 0.5"/>
   </g>
  </g>
  <g id="axes_7">
   <g id="QuadMesh_7">
    <path d="M 7.2 341.28 
L 40.608 341.28 
L 40.608 304.662857 
L 7.2 304.662857 
L 7.2 341.28 
" clip-path="url(#p468d629c2f)" style="fill: #7bbbce; fill-opacity: 0.8; stroke: #ffffff; stroke-opacity: 0.8; stroke-width: 0.5"/>
    <path d="M 40.608 341.28 
L 74.016 341.28 
L 74.016 304.662857 
L 40.608 304.662857 
L 40.608 341.28 
" clip-path="url(#p468d629c2f)" style="fill: #3f90ce; fill-opacity: 0.8; stroke: #ffffff; stroke-opacity: 0.8; stroke-width: 0.5"/>
    <path d="M 74.016 341.28 
L 107.424 341.28 
L 107.424 304.662857 
L 74.016 304.662857 
L 74.016 341.28 
" clip-path="url(#p468d629c2f)" style="fill: #475cbc; fill-opacity: 0.8; stroke: #ffffff; stroke-opacity: 0.8; stroke-width: 0.5"/>
    <path d="M 107.424 341.28 
L 140.832 341.28 
L 140.832 304.662857 
L 107.424 304.662857 
L 107.424 341.28 
" clip-path="url(#p468d629c2f)" style="fill: #3b3866; fill-opacity: 0.8; stroke: #ffffff; stroke-opacity: 0.8; stroke-width: 0.5"/>
    <path d="M 140.832 341.28 
L 174.24 341.28 
L 174.24 304.662857 
L 140.832 304.662857 
L 140.832 341.28 
" clip-path="url(#p468d629c2f)" style="fill: #22222b; fill-opacity: 0.8; stroke: #ffffff; stroke-opacity: 0.8; stroke-width: 0.5"/>
    <path d="M 174.24 341.28 
L 207.648 341.28 
L 207.648 304.662857 
L 174.24 304.662857 
L 174.24 341.28 
" clip-path="url(#p468d629c2f)" style="fill: #2d1f21; fill-opacity: 0.8; stroke: #ffffff; stroke-opacity: 0.8; stroke-width: 0.5"/>
    <path d="M 207.648 341.28 
L 241.056 341.28 
L 241.056 304.662857 
L 207.648 304.662857 
L 207.648 341.28 
" clip-path="url(#p468d629c2f)" style="fill: #622937; fill-opacity: 0.8; stroke: #ffffff; stroke-opacity: 0.8; stroke-width: 0.5"/>
    <path d="M 241.056 341.28 
L 274.464 341.28 
L 274.464 304.662857 
L 241.056 304.662857 
L 241.056 341.28 
" clip-path="url(#p468d629c2f)" style="fill: #a83044; fill-opacity: 0.8; stroke: #ffffff; stroke-opacity: 0.8; stroke-width: 0.5"/>
    <path d="M 274.464 341.28 
L 307.872 341.28 
L 307.872 304.662857 
L 274.464 304.662857 
L 274.464 341.28 
" clip-path="url(#p468d629c2f)" style="fill: #dc5534; fill-opacity: 0.8; stroke: #ffffff; stroke-opacity: 0.8; stroke-width: 0.5"/>
    <path d="M 307.872 341.28 
L 341.28 341.28 
L 341.28 304.662857 
L 307.872 304.662857 
L 307.872 341.28 
" clip-path="url(#p468d629c2f)" style="fill: #f29558; fill-opacity: 0.8; stroke: #ffffff; stroke-opacity: 0.8; stroke-width: 0.5"/>
   </g>
  </g>
 </g>
 <defs>
  <clipPath id="pc85c3cec08">
   <rect x="7.2" y="7.2" width="334.08" height="36.617143"/>
  </clipPath>
  <clipPath id="pec793212ef">
   <rect x="7.2" y="56.777143" width="334.08" height="36.617143"/>
  </clipPath>
  <clipPath id="p811f98896d">
   <rect x="7.2" y="106.354286" width="334.08" height="36.617143"/>
  </clipPath>
  <clipPath id="p79654f0312">
   <rect x="7.2" y="155.931429" width="334.08" height="36.617143"/>
  </clipPath>
  <clipPath id="p7b6b7e117b">
   <rect x="7.2" y="205.508571" width="334.08" height="36.617143"/>
  </clipPath>
  <clipPath id="p07a2b4ce5b">
   <rect x="7.2" y="255.085714" width="334.08" height="36.617143"/>
  </clipPath>
  <clipPath id="p468d629c2f">
   <rect x="7.2" y="304.662857" width="334.08" height="36.617143"/>
  </clipPath>
 </defs>
</svg>
