<svg xmlns:xlink="http://www.w3.org/1999/xlink" xmlns="http://www.w3.org/2000/svg" width="432pt" height="432pt" viewBox="0 0 432 432" version="1.1">
 <metadata>
  <rdf:RDF xmlns:dc="http://purl.org/dc/elements/1.1/" xmlns:cc="http://creativecommons.org/ns#" xmlns:rdf="http://www.w3.org/1999/02/22-rdf-syntax-ns#">
   <cc:Work>
    <dc:type rdf:resource="http://purl.org/dc/dcmitype/StillImage"/>
    <dc:date>2022-09-05T21:25:50.066786</dc:date>
    <dc:format>image/svg+xml</dc:format>
    <dc:creator>
     <cc:Agent>
      <dc:title>Matplotlib v3.6.0rc1, https://matplotlib.org/</dc:title>
     </cc:Agent>
    </dc:creator>
   </cc:Work>
  </rdf:RDF>
 </metadata>
 <defs>
  <style type="text/css">*{stroke-linejoin: round; stroke-linecap: butt}</style>
 </defs>
 <g id="figure_1">
  <g id="patch_1">
   <path d="M 0 432  L 432 432  L 432 0  L 0 0  z " style="fill: #ffffff"/>
  </g>
  <g id="axes_1">
   <g id="matplotlib.axis_1"/>
   <g id="matplotlib.axis_2"/>
   <g id="patch_2">
    <path d="M 123.870653 223.650747  C 120.140306 228.785129 117.241261 234.474824 115.280102 240.510652  C 113.318943 246.54648 112.32 252.853555 112.32 259.2  L 172.8 259.2  L 123.870653 223.650747  z " style="fill: #4c72b0; stroke: #ffffff; stroke-linejoin: miter"/>
   </g>
   <g id="patch_3">
    <path d="M 154.110653 201.680102  C 148.074825 203.641261 142.385131 206.540305 137.250749 210.270652  C 132.116367 214.000998 127.600999 218.516366 123.870653 223.650747  L 172.8 259.2  L 154.110653 201.680102  z " style="fill: #dd8452; stroke: #ffffff; stroke-linejoin: miter"/>
   </g>
   <g id="patch_4">
    <path d="M 191.489349 201.680102  C 185.453522 199.718943 179.146446 198.72 172.800001 198.72  C 166.453556 198.72 160.146481 199.718942 154.110653 201.680102  L 172.8 259.2  L 191.489349 201.680102  z " style="fill: #55a868; stroke: #ffffff; stroke-linejoin: miter"/>
   </g>
   <g id="patch_5">
    <path d="M 221.729349 223.65075  C 217.999003 218.516368 213.483635 214.001 208.349254 210.270653  C 203.214872 206.540306 197.525177 203.641262 191.489349 201.680102  L 172.8 259.2  L 221.729349 223.65075  z " style="fill: #c44e52; stroke: #ffffff; stroke-linejoin: miter"/>
   </g>
   <g id="patch_6">
    <path d="M 233.28 259.200003  C 233.28 252.853558 232.281058 246.546483 230.319899 240.510655  C 228.35874 234.474827 225.459696 228.785132 221.729349 223.65075  L 172.8 259.2  L 233.28 259.200003  z " style="fill: #8172b3; stroke: #ffffff; stroke-linejoin: miter"/>
   </g>
   <g id="patch_7">
    <path d="M 221.729346 294.749255  C 225.459693 289.614873 228.358737 283.925179 230.319897 277.889351  C 232.281057 271.853523 233.28 265.546448 233.28 259.200003  L 172.8 259.2  L 221.729346 294.749255  z " style="fill: #937860; stroke: #ffffff; stroke-linejoin: miter"/>
   </g>
   <g id="patch_8">
    <path d="M 191.489344 316.719899  C 197.525172 314.75874 203.214867 311.859696 208.349249 308.12935  C 213.483631 304.399003 217.998999 299.883636 221.729346 294.749255  L 172.8 259.2  L 191.489344 316.719899  z " style="fill: #da8bc3; stroke: #ffffff; stroke-linejoin: miter"/>
   </g>
   <g id="patch_9">
    <path d="M 154.110648 316.719897  C 160.146476 318.681057 166.453551 319.68 172.799996 319.68  C 179.146441 319.68 185.453516 318.681058 191.489344 316.719899  L 172.8 259.2  L 154.110648 316.719897  z " style="fill: #8c8c8c; stroke: #ffffff; stroke-linejoin: miter"/>
   </g>
   <g id="patch_10">
    <path d="M 123.870649 294.749248  C 127.600996 299.88363 132.116362 304.398998 137.250744 308.129345  C 142.385126 311.859692 148.07482 314.758737 154.110648 316.719897  L 172.8 259.2  L 123.870649 294.749248  z " style="fill: #ccb974; stroke: #ffffff; stroke-linejoin: miter"/>
   </g>
   <g id="patch_11">
    <path d="M 112.32 259.199994  C 112.319999 265.546439 113.318941 271.853515 115.2801 277.889343  C 117.241259 283.925171 120.140303 289.614866 123.870649 294.749248  L 172.8 259.2  L 112.32 259.199994  z " style="fill: #64b5cd; stroke: #ffffff; stroke-linejoin: miter"/>
   </g>
  </g>
  <g id="axes_2">
   <g id="matplotlib.axis_3"/>
   <g id="matplotlib.axis_4"/>
   <g id="patch_12">
    <path d="M 296.670653 50.850747  C 292.940306 55.985129 290.041261 61.674824 288.080102 67.710652  C 286.118943 73.74648 285.12 80.053555 285.12 86.4  L 345.6 86.4  L 296.670653 50.850747  z " style="fill: #023eff; stroke: #ffffff; stroke-linejoin: miter"/>
   </g>
   <g id="patch_13">
    <path d="M 326.910653 28.880102  C 320.874825 30.841261 315.185131 33.740305 310.050749 37.470652  C 304.916367 41.200998 300.400999 45.716366 296.670653 50.850747  L 345.6 86.4  L 326.910653 28.880102  z " style="fill: #ff7c00; stroke: #ffffff; stroke-linejoin: miter"/>
   </g>
   <g id="patch_14">
    <path d="M 364.289349 28.880102  C 358.253522 26.918943 351.946446 25.92 345.600001 25.92  C 339.253556 25.92 332.946481 26.918942 326.910653 28.880102  L 345.6 86.4  L 364.289349 28.880102  z " style="fill: #1ac938; stroke: #ffffff; stroke-linejoin: miter"/>
   </g>
   <g id="patch_15">
    <path d="M 394.529349 50.85075  C 390.799003 45.716368 386.283635 41.201 381.149254 37.470653  C 376.014872 33.740306 370.325177 30.841262 364.289349 28.880102  L 345.6 86.4  L 394.529349 50.85075  z " style="fill: #e8000b; stroke: #ffffff; stroke-linejoin: miter"/>
   </g>
   <g id="patch_16">
    <path d="M 406.08 86.400003  C 406.08 80.053558 405.081058 73.746483 403.119899 67.710655  C 401.15874 61.674827 398.259696 55.985132 394.529349 50.85075  L 345.6 86.4  L 406.08 86.400003  z " style="fill: #8b2be2; stroke: #ffffff; stroke-linejoin: miter"/>
   </g>
   <g id="patch_17">
    <path d="M 394.529346 121.949255  C 398.259693 116.814873 401.158737 111.125179 403.119897 105.089351  C 405.081057 99.053523 406.08 92.746448 406.08 86.400003  L 345.6 86.4  L 394.529346 121.949255  z " style="fill: #9f4800; stroke: #ffffff; stroke-linejoin: miter"/>
   </g>
   <g id="patch_18">
    <path d="M 364.289344 143.919899  C 370.325172 141.95874 376.014867 139.059696 381.149249 135.32935  C 386.283631 131.599003 390.798999 127.083636 394.529346 121.949255  L 345.6 86.4  L 364.289344 143.919899  z " style="fill: #f14cc1; stroke: #ffffff; stroke-linejoin: miter"/>
   </g>
   <g id="patch_19">
    <path d="M 326.910648 143.919897  C 332.946476 145.881057 339.253551 146.88 345.599996 146.88  C 351.946441 146.88 358.253516 145.881058 364.289344 143.919899  L 345.6 86.4  L 326.910648 143.919897  z " style="fill: #a3a3a3; stroke: #ffffff; stroke-linejoin: miter"/>
   </g>
   <g id="patch_20">
    <path d="M 296.670649 121.949248  C 300.400996 127.08363 304.916362 131.598998 310.050744 135.329345  C 315.185126 139.059692 320.87482 141.958737 326.910648 143.919897  L 345.6 86.4  L 296.670649 121.949248  z " style="fill: #ffc400; stroke: #ffffff; stroke-linejoin: miter"/>
   </g>
   <g id="patch_21">
    <path d="M 285.12 86.399994  C 285.119999 92.746439 286.118941 99.053515 288.0801 105.089343  C 290.041259 111.125171 292.940303 116.814866 296.670649 121.949248  L 345.6 86.4  L 285.12 86.399994  z " style="fill: #00d7ff; stroke: #ffffff; stroke-linejoin: miter"/>
   </g>
  </g>
  <g id="axes_3">
   <g id="matplotlib.axis_5"/>
   <g id="matplotlib.axis_6"/>
   <g id="patch_22">
    <path d="M 162.750653 89.730747  C 159.020306 94.865129 156.121261 100.554824 154.160102 106.590652  C 152.198943 112.62648 151.2 118.933555 151.2 125.28  L 211.68 125.28  L 162.750653 89.730747  z " style="fill: #4878d0; stroke: #ffffff; stroke-linejoin: miter"/>
   </g>
   <g id="patch_23">
    <path d="M 192.990653 67.760102  C 186.954825 69.721261 181.265131 72.620305 176.130749 76.350652  C 170.996367 80.080998 166.480999 84.596366 162.750653 89.730747  L 211.68 125.28  L 192.990653 67.760102  z " style="fill: #ee854a; stroke: #ffffff; stroke-linejoin: miter"/>
   </g>
   <g id="patch_24">
    <path d="M 230.369349 67.760102  C 224.333522 65.798943 218.026446 64.8 211.680001 64.8  C 205.333556 64.8 199.026481 65.798942 192.990653 67.760102  L 211.68 125.28  L 230.369349 67.760102  z " style="fill: #6acc64; stroke: #ffffff; stroke-linejoin: miter"/>
   </g>
   <g id="patch_25">
    <path d="M 260.609349 89.73075  C 256.879003 84.596368 252.363635 80.081 247.229254 76.350653  C 242.094872 72.620306 236.405177 69.721262 230.369349 67.760102  L 211.68 125.28  L 260.609349 89.73075  z " style="fill: #d65f5f; stroke: #ffffff; stroke-linejoin: miter"/>
   </g>
   <g id="patch_26">
    <path d="M 272.16 125.280003  C 272.16 118.933558 271.161058 112.626483 269.199899 106.590655  C 267.23874 100.554827 264.339696 94.865132 260.609349 89.73075  L 211.68 125.28  L 272.16 125.280003  z " style="fill: #956cb4; stroke: #ffffff; stroke-linejoin: miter"/>
   </g>
   <g id="patch_27">
    <path d="M 260.609346 160.829255  C 264.339693 155.694873 267.238737 150.005179 269.199897 143.969351  C 271.161057 137.933523 272.16 131.626448 272.16 125.280003  L 211.68 125.28  L 260.609346 160.829255  z " style="fill: #8c613c; stroke: #ffffff; stroke-linejoin: miter"/>
   </g>
   <g id="patch_28">
    <path d="M 230.369344 182.799899  C 236.405172 180.83874 242.094867 177.939696 247.229249 174.20935  C 252.363631 170.479003 256.878999 165.963636 260.609346 160.829255  L 211.68 125.28  L 230.369344 182.799899  z " style="fill: #dc7ec0; stroke: #ffffff; stroke-linejoin: miter"/>
   </g>
   <g id="patch_29">
    <path d="M 192.990648 182.799897  C 199.026476 184.761057 205.333551 185.76 211.679996 185.76  C 218.026441 185.76 224.333516 184.761058 230.369344 182.799899  L 211.68 125.28  L 192.990648 182.799897  z " style="fill: #797979; stroke: #ffffff; stroke-linejoin: miter"/>
   </g>
   <g id="patch_30">
    <path d="M 162.750649 160.829248  C 166.480996 165.96363 170.996362 170.478998 176.130744 174.209345  C 181.265126 177.939692 186.95482 180.838737 192.990648 182.799897  L 211.68 125.28  L 162.750649 160.829248  z " style="fill: #d5bb67; stroke: #ffffff; stroke-linejoin: miter"/>
   </g>
   <g id="patch_31">
    <path d="M 151.2 125.279994  C 151.199999 131.626439 152.198941 137.933515 154.1601 143.969343  C 156.121259 150.005171 159.020303 155.694866 162.750649 160.829248  L 211.68 125.28  L 151.2 125.279994  z " style="fill: #82c6e2; stroke: #ffffff; stroke-linejoin: miter"/>
   </g>
  </g>
  <g id="axes_4">
   <g id="matplotlib.axis_7"/>
   <g id="matplotlib.axis_8"/>
   <g id="patch_32">
    <path d="M 296.670653 310.050747  C 292.940306 315.185129 290.041261 320.874824 288.080102 326.910652  C 286.118943 332.94648 285.12 339.253555 285.12 345.6  L 345.6 345.6  L 296.670653 310.050747  z " style="fill: #001c7f; stroke: #ffffff; stroke-linejoin: miter"/>
   </g>
   <g id="patch_33">
    <path d="M 326.910653 288.080102  C 320.874825 290.041261 315.185131 292.940305 310.050749 296.670652  C 304.916367 300.400998 300.400999 304.916366 296.670653 310.050747  L 345.6 345.6  L 326.910653 288.080102  z " style="fill: #b1400d; stroke: #ffffff; stroke-linejoin: miter"/>
   </g>
   <g id="patch_34">
    <path d="M 364.289349 288.080102  C 358.253522 286.118943 351.946446 285.12 345.600001 285.12  C 339.253556 285.12 332.946481 286.118942 326.910653 288.080102  L 345.6 345.6  L 364.289349 288.080102  z " style="fill: #12711c; stroke: #ffffff; stroke-linejoin: miter"/>
   </g>
   <g id="patch_35">
    <path d="M 394.529349 310.05075  C 390.799003 304.916368 386.283635 300.401 381.149254 296.670653  C 376.014872 292.940306 370.325177 290.041262 364.289349 288.080102  L 345.6 345.6  L 394.529349 310.05075  z " style="fill: #8c0800; stroke: #ffffff; stroke-linejoin: miter"/>
   </g>
   <g id="patch_36">
    <path d="M 406.08 345.600003  C 406.08 339.253558 405.081058 332.946483 403.119899 326.910655  C 401.15874 320.874827 398.259696 315.185132 394.529349 310.05075  L 345.6 345.6  L 406.08 345.600003  z " style="fill: #591e71; stroke: #ffffff; stroke-linejoin: miter"/>
   </g>
   <g id="patch_37">
    <path d="M 394.529346 381.149255  C 398.259693 376.014873 401.158737 370.325179 403.119897 364.289351  C 405.081057 358.253523 406.08 351.946448 406.08 345.600003  L 345.6 345.6  L 394.529346 381.149255  z " style="fill: #592f0d; stroke: #ffffff; stroke-linejoin: miter"/>
   </g>
   <g id="patch_38">
    <path d="M 364.289344 403.119899  C 370.325172 401.15874 376.014867 398.259696 381.149249 394.52935  C 386.283631 390.799003 390.798999 386.283636 394.529346 381.149255  L 345.6 345.6  L 364.289344 403.119899  z " style="fill: #a23582; stroke: #ffffff; stroke-linejoin: miter"/>
   </g>
   <g id="patch_39">
    <path d="M 326.910648 403.119897  C 332.946476 405.081057 339.253551 406.08 345.599996 406.08  C 351.946441 406.08 358.253516 405.081058 364.289344 403.119899  L 345.6 345.6  L 326.910648 403.119897  z " style="fill: #3c3c3c; stroke: #ffffff; stroke-linejoin: miter"/>
   </g>
   <g id="patch_40">
    <path d="M 296.670649 381.149248  C 300.400996 386.28363 304.916362 390.798998 310.050744 394.529345  C 315.185126 398.259692 320.87482 401.158737 326.910648 403.119897  L 345.6 345.6  L 296.670649 381.149248  z " style="fill: #b8850a; stroke: #ffffff; stroke-linejoin: miter"/>
   </g>
   <g id="patch_41">
    <path d="M 285.12 345.599994  C 285.119999 351.946439 286.118941 358.253515 288.0801 364.289343  C 290.041259 370.325171 292.940303 376.014866 296.670649 381.149248  L 345.6 345.6  L 285.12 345.599994  z " style="fill: #006374; stroke: #ffffff; stroke-linejoin: miter"/>
   </g>
  </g>
  <g id="axes_5">
   <g id="matplotlib.axis_9"/>
   <g id="matplotlib.axis_10"/>
   <g id="patch_42">
    <path d="M 37.470653 50.850747  C 33.740306 55.985129 30.841261 61.674824 28.880102 67.710652  C 26.918943 73.74648 25.92 80.053555 25.92 86.4  L 86.4 86.4  L 37.470653 50.850747  z " style="fill: #a1c9f4; stroke: #ffffff; stroke-linejoin: miter"/>
   </g>
   <g id="patch_43">
    <path d="M 67.710653 28.880102  C 61.674825 30.841261 55.985131 33.740305 50.850749 37.470652  C 45.716367 41.200998 41.200999 45.716366 37.470653 50.850747  L 86.4 86.4  L 67.710653 28.880102  z " style="fill: #ffb482; stroke: #ffffff; stroke-linejoin: miter"/>
   </g>
   <g id="patch_44">
    <path d="M 105.089349 28.880102  C 99.053522 26.918943 92.746446 25.92 86.400001 25.92  C 80.053556 25.92 73.746481 26.918942 67.710653 28.880102  L 86.4 86.4  L 105.089349 28.880102  z " style="fill: #8de5a1; stroke: #ffffff; stroke-linejoin: miter"/>
   </g>
   <g id="patch_45">
    <path d="M 135.329349 50.85075  C 131.599003 45.716368 127.083635 41.201 121.949254 37.470653  C 116.814872 33.740306 111.125177 30.841262 105.089349 28.880102  L 86.4 86.4  L 135.329349 50.85075  z " style="fill: #ff9f9b; stroke: #ffffff; stroke-linejoin: miter"/>
   </g>
   <g id="patch_46">
    <path d="M 146.88 86.400003  C 146.88 80.053558 145.881058 73.746483 143.919899 67.710655  C 141.95874 61.674827 139.059696 55.985132 135.329349 50.85075  L 86.4 86.4  L 146.88 86.400003  z " style="fill: #d0bbff; stroke: #ffffff; stroke-linejoin: miter"/>
   </g>
   <g id="patch_47">
    <path d="M 135.329346 121.949255  C 139.059693 116.814873 141.958737 111.125179 143.919897 105.089351  C 145.881057 99.053523 146.88 92.746448 146.88 86.400003  L 86.4 86.4  L 135.329346 121.949255  z " style="fill: #debb9b; stroke: #ffffff; stroke-linejoin: miter"/>
   </g>
   <g id="patch_48">
    <path d="M 105.089344 143.919899  C 111.125172 141.95874 116.814867 139.059696 121.949249 135.32935  C 127.083631 131.599003 131.598999 127.083636 135.329346 121.949255  L 86.4 86.4  L 105.089344 143.919899  z " style="fill: #fab0e4; stroke: #ffffff; stroke-linejoin: miter"/>
   </g>
   <g id="patch_49">
    <path d="M 67.710648 143.919897  C 73.746476 145.881057 80.053551 146.88 86.399996 146.88  C 92.746441 146.88 99.053516 145.881058 105.089344 143.919899  L 86.4 86.4  L 67.710648 143.919897  z " style="fill: #cfcfcf; stroke: #ffffff; stroke-linejoin: miter"/>
   </g>
   <g id="patch_50">
    <path d="M 37.470649 121.949248  C 41.200996 127.08363 45.716362 131.598998 50.850744 135.329345  C 55.985126 139.059692 61.67482 141.958737 67.710648 143.919897  L 86.4 86.4  L 37.470649 121.949248  z " style="fill: #fffea3; stroke: #ffffff; stroke-linejoin: miter"/>
   </g>
   <g id="patch_51">
    <path d="M 25.92 86.399994  C 25.919999 92.746439 26.918941 99.053515 28.8801 105.089343  C 30.841259 111.125171 33.740303 116.814866 37.470649 121.949248  L 86.4 86.4  L 25.92 86.399994  z " style="fill: #b9f2f0; stroke: #ffffff; stroke-linejoin: miter"/>
   </g>
  </g>
  <g id="axes_6">
   <g id="matplotlib.axis_11"/>
   <g id="matplotlib.axis_12"/>
   <g id="patch_52">
    <path d="M 257.790653 184.770747  C 254.060306 189.905129 251.161261 195.594824 249.200102 201.630652  C 247.238943 207.66648 246.24 213.973555 246.24 220.32  L 306.72 220.32  L 257.790653 184.770747  z " style="fill: #0173b2; stroke: #ffffff; stroke-linejoin: miter"/>
   </g>
   <g id="patch_53">
    <path d="M 288.030653 162.800102  C 281.994825 164.761261 276.305131 167.660305 271.170749 171.390652  C 266.036367 175.120998 261.520999 179.636366 257.790653 184.770747  L 306.72 220.32  L 288.030653 162.800102  z " style="fill: #de8f05; stroke: #ffffff; stroke-linejoin: miter"/>
   </g>
   <g id="patch_54">
    <path d="M 325.409349 162.800102  C 319.373522 160.838943 313.066446 159.84 306.720001 159.84  C 300.373556 159.84 294.066481 160.838942 288.030653 162.800102  L 306.72 220.32  L 325.409349 162.800102  z " style="fill: #029e73; stroke: #ffffff; stroke-linejoin: miter"/>
   </g>
   <g id="patch_55">
    <path d="M 355.649349 184.77075  C 351.919003 179.636368 347.403635 175.121 342.269254 171.390653  C 337.134872 167.660306 331.445177 164.761262 325.409349 162.800102  L 306.72 220.32  L 355.649349 184.77075  z " style="fill: #d55e00; stroke: #ffffff; stroke-linejoin: miter"/>
   </g>
   <g id="patch_56">
    <path d="M 367.2 220.320003  C 367.2 213.973558 366.201058 207.666483 364.239899 201.630655  C 362.27874 195.594827 359.379696 189.905132 355.649349 184.77075  L 306.72 220.32  L 367.2 220.320003  z " style="fill: #cc78bc; stroke: #ffffff; stroke-linejoin: miter"/>
   </g>
   <g id="patch_57">
    <path d="M 355.649346 255.869255  C 359.379693 250.734873 362.278737 245.045179 364.239897 239.009351  C 366.201057 232.973523 367.2 226.666448 367.2 220.320003  L 306.72 220.32  L 355.649346 255.869255  z " style="fill: #ca9161; stroke: #ffffff; stroke-linejoin: miter"/>
   </g>
   <g id="patch_58">
    <path d="M 325.409344 277.839899  C 331.445172 275.87874 337.134867 272.979696 342.269249 269.24935  C 347.403631 265.519003 351.918999 261.003636 355.649346 255.869255  L 306.72 220.32  L 325.409344 277.839899  z " style="fill: #fbafe4; stroke: #ffffff; stroke-linejoin: miter"/>
   </g>
   <g id="patch_59">
    <path d="M 288.030648 277.839897  C 294.066476 279.801057 300.373551 280.8 306.719996 280.8  C 313.066441 280.8 319.373516 279.801058 325.409344 277.839899  L 306.72 220.32  L 288.030648 277.839897  z " style="fill: #949494; stroke: #ffffff; stroke-linejoin: miter"/>
   </g>
   <g id="patch_60">
    <path d="M 257.790649 255.869248  C 261.520996 261.00363 266.036362 265.518998 271.170744 269.249345  C 276.305126 272.979692 281.99482 275.878737 288.030648 277.839897  L 306.72 220.32  L 257.790649 255.869248  z " style="fill: #ece133; stroke: #ffffff; stroke-linejoin: miter"/>
   </g>
   <g id="patch_61">
    <path d="M 246.24 220.319994  C 246.239999 226.666439 247.238941 232.973515 249.2001 239.009343  C 251.161259 245.045171 254.060303 250.734866 257.790649 255.869248  L 306.72 220.32  L 246.24 220.319994  z " style="fill: #56b4e9; stroke: #ffffff; stroke-linejoin: miter"/>
   </g>
  </g>
  <g id="axes_7">
   <g id="patch_62">
    <path d="M 247.32 410.4  L 237.6 413.64  L 237.6 410.832  L 64.8 410.832  L 64.8 409.968  L 237.6 409.968  L 237.6 407.16  z " clip-path="url(#p6e5792df91)" style="fill: #262626; stroke: #262626; stroke-linejoin: miter"/>
   </g>
   <g id="patch_63">
    <path d="M 21.6 184.68  L 24.84 194.4  L 22.032 194.4  L 22.032 367.2  L 21.168 367.2  L 21.168 194.4  L 18.36 194.4  z " clip-path="url(#p6e5792df91)" style="fill: #262626; stroke: #262626; stroke-linejoin: miter"/>
   </g>
  </g>
  <g id="text_1">
   <g id="patch_64">
    <path d="M 157.229375 268.401719  L 188.370625 268.401719  Q 191.170625 268.401719 191.170625 265.601719  L 191.170625 252.798281  Q 191.170625 249.998281 188.370625 249.998281  L 157.229375 249.998281  Q 154.429375 249.998281 154.429375 252.798281  L 154.429375 265.601719  Q 154.429375 268.401719 157.229375 268.401719  z " style="fill: #ffffff; opacity: 0.85; stroke: #ffffff; stroke-linejoin: miter"/>
   </g>
   <!-- deep -->
   <g style="fill: #262626" transform="translate(157.229375 262.819219) scale(0.14 -0.14)">
    <defs>
     <path id="ArialMT-64" d="M 2575 0  L 2575 419  Q 2259 -75 1647 -75  Q 1250 -75 917 144  Q 584 363 401 755  Q 219 1147 219 1656  Q 219 2153 384 2558  Q 550 2963 881 3178  Q 1213 3394 1622 3394  Q 1922 3394 2156 3267  Q 2391 3141 2538 2938  L 2538 4581  L 3097 4581  L 3097 0  L 2575 0  z M 797 1656  Q 797 1019 1065 703  Q 1334 388 1700 388  Q 2069 388 2326 689  Q 2584 991 2584 1609  Q 2584 2291 2321 2609  Q 2059 2928 1675 2928  Q 1300 2928 1048 2622  Q 797 2316 797 1656  z " transform="scale(0.015625)"/>
     <path id="ArialMT-65" d="M 2694 1069  L 3275 997  Q 3138 488 2766 206  Q 2394 -75 1816 -75  Q 1088 -75 661 373  Q 234 822 234 1631  Q 234 2469 665 2931  Q 1097 3394 1784 3394  Q 2450 3394 2872 2941  Q 3294 2488 3294 1666  Q 3294 1616 3291 1516  L 816 1516  Q 847 969 1125 678  Q 1403 388 1819 388  Q 2128 388 2347 550  Q 2566 713 2694 1069  z M 847 1978  L 2700 1978  Q 2663 2397 2488 2606  Q 2219 2931 1791 2931  Q 1403 2931 1139 2672  Q 875 2413 847 1978  z " transform="scale(0.015625)"/>
     <path id="ArialMT-70" d="M 422 -1272  L 422 3319  L 934 3319  L 934 2888  Q 1116 3141 1344 3267  Q 1572 3394 1897 3394  Q 2322 3394 2647 3175  Q 2972 2956 3137 2557  Q 3303 2159 3303 1684  Q 3303 1175 3120 767  Q 2938 359 2589 142  Q 2241 -75 1856 -75  Q 1575 -75 1351 44  Q 1128 163 984 344  L 984 -1272  L 422 -1272  z M 931 1641  Q 931 1000 1190 694  Q 1450 388 1819 388  Q 2194 388 2461 705  Q 2728 1022 2728 1688  Q 2728 2322 2467 2637  Q 2206 2953 1844 2953  Q 1484 2953 1207 2617  Q 931 2281 931 1641  z " transform="scale(0.015625)"/>
    </defs>
    <use xlink:href="#ArialMT-64"/>
    <use xlink:href="#ArialMT-65" x="55.615234"/>
    <use xlink:href="#ArialMT-65" x="111.230469"/>
    <use xlink:href="#ArialMT-70" x="166.845703"/>
   </g>
  </g>
  <g id="text_2">
   <g id="patch_65">
    <path d="M 328.09125 95.68375  L 363.10875 95.68375  Q 365.90875 95.68375 365.90875 92.88375  L 365.90875 79.91625  Q 365.90875 77.11625 363.10875 77.11625  L 328.09125 77.11625  Q 325.29125 77.11625 325.29125 79.91625  L 325.29125 92.88375  Q 325.29125 95.68375 328.09125 95.68375  z " style="fill: #ffffff; opacity: 0.85; stroke: #ffffff; stroke-linejoin: miter"/>
   </g>
   <!-- bright -->
   <g style="fill: #262626" transform="translate(328.09125 89.937187) scale(0.14 -0.14)">
    <defs>
     <path id="ArialMT-62" d="M 941 0  L 419 0  L 419 4581  L 981 4581  L 981 2947  Q 1338 3394 1891 3394  Q 2197 3394 2470 3270  Q 2744 3147 2920 2923  Q 3097 2700 3197 2384  Q 3297 2069 3297 1709  Q 3297 856 2875 390  Q 2453 -75 1863 -75  Q 1275 -75 941 416  L 941 0  z M 934 1684  Q 934 1088 1097 822  Q 1363 388 1816 388  Q 2184 388 2453 708  Q 2722 1028 2722 1663  Q 2722 2313 2464 2622  Q 2206 2931 1841 2931  Q 1472 2931 1203 2611  Q 934 2291 934 1684  z " transform="scale(0.015625)"/>
     <path id="ArialMT-72" d="M 416 0  L 416 3319  L 922 3319  L 922 2816  Q 1116 3169 1280 3281  Q 1444 3394 1641 3394  Q 1925 3394 2219 3213  L 2025 2691  Q 1819 2813 1613 2813  Q 1428 2813 1281 2702  Q 1134 2591 1072 2394  Q 978 2094 978 1738  L 978 0  L 416 0  z " transform="scale(0.015625)"/>
     <path id="ArialMT-69" d="M 425 3934  L 425 4581  L 988 4581  L 988 3934  L 425 3934  z M 425 0  L 425 3319  L 988 3319  L 988 0  L 425 0  z " transform="scale(0.015625)"/>
     <path id="ArialMT-67" d="M 319 -275  L 866 -356  Q 900 -609 1056 -725  Q 1266 -881 1628 -881  Q 2019 -881 2231 -725  Q 2444 -569 2519 -288  Q 2563 -116 2559 434  Q 2191 0 1641 0  Q 956 0 581 494  Q 206 988 206 1678  Q 206 2153 378 2554  Q 550 2956 876 3175  Q 1203 3394 1644 3394  Q 2231 3394 2613 2919  L 2613 3319  L 3131 3319  L 3131 450  Q 3131 -325 2973 -648  Q 2816 -972 2473 -1159  Q 2131 -1347 1631 -1347  Q 1038 -1347 672 -1080  Q 306 -813 319 -275  z M 784 1719  Q 784 1066 1043 766  Q 1303 466 1694 466  Q 2081 466 2343 764  Q 2606 1063 2606 1700  Q 2606 2309 2336 2618  Q 2066 2928 1684 2928  Q 1309 2928 1046 2623  Q 784 2319 784 1719  z " transform="scale(0.015625)"/>
     <path id="ArialMT-68" d="M 422 0  L 422 4581  L 984 4581  L 984 2938  Q 1378 3394 1978 3394  Q 2347 3394 2619 3248  Q 2891 3103 3008 2847  Q 3125 2591 3125 2103  L 3125 0  L 2563 0  L 2563 2103  Q 2563 2525 2380 2717  Q 2197 2909 1863 2909  Q 1613 2909 1392 2779  Q 1172 2650 1078 2428  Q 984 2206 984 1816  L 984 0  L 422 0  z " transform="scale(0.015625)"/>
     <path id="ArialMT-74" d="M 1650 503  L 1731 6  Q 1494 -44 1306 -44  Q 1000 -44 831 53  Q 663 150 594 308  Q 525 466 525 972  L 525 2881  L 113 2881  L 113 3319  L 525 3319  L 525 4141  L 1084 4478  L 1084 3319  L 1650 3319  L 1650 2881  L 1084 2881  L 1084 941  Q 1084 700 1114 631  Q 1144 563 1211 522  Q 1278 481 1403 481  Q 1497 481 1650 503  z " transform="scale(0.015625)"/>
    </defs>
    <use xlink:href="#ArialMT-62"/>
    <use xlink:href="#ArialMT-72" x="55.615234"/>
    <use xlink:href="#ArialMT-69" x="88.916016"/>
    <use xlink:href="#ArialMT-67" x="111.132812"/>
    <use xlink:href="#ArialMT-68" x="166.748047"/>
    <use xlink:href="#ArialMT-74" x="222.363281"/>
   </g>
  </g>
  <g id="text_3">
   <g id="patch_66">
    <path d="M 192.226562 134.481719  L 231.133438 134.481719  Q 233.933438 134.481719 233.933438 131.681719  L 233.933438 118.878281  Q 233.933438 116.078281 231.133438 116.078281  L 192.226562 116.078281  Q 189.426562 116.078281 189.426562 118.878281  L 189.426562 131.681719  Q 189.426562 134.481719 192.226562 134.481719  z " style="fill: #ffffff; opacity: 0.85; stroke: #ffffff; stroke-linejoin: miter"/>
   </g>
   <!-- muted -->
   <g style="fill: #262626" transform="translate(192.226562 128.899219) scale(0.14 -0.14)">
    <defs>
     <path id="ArialMT-6d" d="M 422 0  L 422 3319  L 925 3319  L 925 2853  Q 1081 3097 1340 3245  Q 1600 3394 1931 3394  Q 2300 3394 2536 3241  Q 2772 3088 2869 2813  Q 3263 3394 3894 3394  Q 4388 3394 4653 3120  Q 4919 2847 4919 2278  L 4919 0  L 4359 0  L 4359 2091  Q 4359 2428 4304 2576  Q 4250 2725 4106 2815  Q 3963 2906 3769 2906  Q 3419 2906 3187 2673  Q 2956 2441 2956 1928  L 2956 0  L 2394 0  L 2394 2156  Q 2394 2531 2256 2718  Q 2119 2906 1806 2906  Q 1569 2906 1367 2781  Q 1166 2656 1075 2415  Q 984 2175 984 1722  L 984 0  L 422 0  z " transform="scale(0.015625)"/>
     <path id="ArialMT-75" d="M 2597 0  L 2597 488  Q 2209 -75 1544 -75  Q 1250 -75 995 37  Q 741 150 617 320  Q 494 491 444 738  Q 409 903 409 1263  L 409 3319  L 972 3319  L 972 1478  Q 972 1038 1006 884  Q 1059 663 1231 536  Q 1403 409 1656 409  Q 1909 409 2131 539  Q 2353 669 2445 892  Q 2538 1116 2538 1541  L 2538 3319  L 3100 3319  L 3100 0  L 2597 0  z " transform="scale(0.015625)"/>
    </defs>
    <use xlink:href="#ArialMT-6d"/>
    <use xlink:href="#ArialMT-75" x="83.300781"/>
    <use xlink:href="#ArialMT-74" x="138.916016"/>
    <use xlink:href="#ArialMT-65" x="166.699219"/>
    <use xlink:href="#ArialMT-64" x="222.314453"/>
   </g>
  </g>
  <g id="text_4">
   <g id="patch_67">
    <path d="M 331.983906 354.801719  L 359.216094 354.801719  Q 362.016094 354.801719 362.016094 352.001719  L 362.016094 339.198281  Q 362.016094 336.398281 359.216094 336.398281  L 331.983906 336.398281  Q 329.183906 336.398281 329.183906 339.198281  L 329.183906 352.001719  Q 329.183906 354.801719 331.983906 354.801719  z " style="fill: #ffffff; opacity: 0.85; stroke: #ffffff; stroke-linejoin: miter"/>
   </g>
   <!-- dark -->
   <g style="fill: #262626" transform="translate(331.983906 349.219219) scale(0.14 -0.14)">
    <defs>
     <path id="ArialMT-61" d="M 2588 409  Q 2275 144 1986 34  Q 1697 -75 1366 -75  Q 819 -75 525 192  Q 231 459 231 875  Q 231 1119 342 1320  Q 453 1522 633 1644  Q 813 1766 1038 1828  Q 1203 1872 1538 1913  Q 2219 1994 2541 2106  Q 2544 2222 2544 2253  Q 2544 2597 2384 2738  Q 2169 2928 1744 2928  Q 1347 2928 1158 2789  Q 969 2650 878 2297  L 328 2372  Q 403 2725 575 2942  Q 747 3159 1072 3276  Q 1397 3394 1825 3394  Q 2250 3394 2515 3294  Q 2781 3194 2906 3042  Q 3031 2891 3081 2659  Q 3109 2516 3109 2141  L 3109 1391  Q 3109 606 3145 398  Q 3181 191 3288 0  L 2700 0  Q 2613 175 2588 409  z M 2541 1666  Q 2234 1541 1622 1453  Q 1275 1403 1131 1340  Q 988 1278 909 1158  Q 831 1038 831 891  Q 831 666 1001 516  Q 1172 366 1500 366  Q 1825 366 2078 508  Q 2331 650 2450 897  Q 2541 1088 2541 1459  L 2541 1666  z " transform="scale(0.015625)"/>
     <path id="ArialMT-6b" d="M 425 0  L 425 4581  L 988 4581  L 988 1969  L 2319 3319  L 3047 3319  L 1778 2088  L 3175 0  L 2481 0  L 1384 1697  L 988 1316  L 988 0  L 425 0  z " transform="scale(0.015625)"/>
    </defs>
    <use xlink:href="#ArialMT-64"/>
    <use xlink:href="#ArialMT-61" x="55.615234"/>
    <use xlink:href="#ArialMT-72" x="111.230469"/>
    <use xlink:href="#ArialMT-6b" x="144.53125"/>
   </g>
  </g>
  <g id="text_5">
   <g id="patch_68">
    <path d="M 67.722031 95.601719  L 105.077969 95.601719  Q 107.877969 95.601719 107.877969 92.801719  L 107.877969 79.998281  Q 107.877969 77.198281 105.077969 77.198281  L 67.722031 77.198281  Q 64.922031 77.198281 64.922031 79.998281  L 64.922031 92.801719  Q 64.922031 95.601719 67.722031 95.601719  z " style="fill: #ffffff; opacity: 0.85; stroke: #ffffff; stroke-linejoin: miter"/>
   </g>
   <!-- pastel -->
   <g style="fill: #262626" transform="translate(67.722031 90.019219) scale(0.14 -0.14)">
    <defs>
     <path id="ArialMT-73" d="M 197 991  L 753 1078  Q 800 744 1014 566  Q 1228 388 1613 388  Q 2000 388 2187 545  Q 2375 703 2375 916  Q 2375 1106 2209 1216  Q 2094 1291 1634 1406  Q 1016 1563 777 1677  Q 538 1791 414 1992  Q 291 2194 291 2438  Q 291 2659 392 2848  Q 494 3038 669 3163  Q 800 3259 1026 3326  Q 1253 3394 1513 3394  Q 1903 3394 2198 3281  Q 2494 3169 2634 2976  Q 2775 2784 2828 2463  L 2278 2388  Q 2241 2644 2061 2787  Q 1881 2931 1553 2931  Q 1166 2931 1000 2803  Q 834 2675 834 2503  Q 834 2394 903 2306  Q 972 2216 1119 2156  Q 1203 2125 1616 2013  Q 2213 1853 2448 1751  Q 2684 1650 2818 1456  Q 2953 1263 2953 975  Q 2953 694 2789 445  Q 2625 197 2315 61  Q 2006 -75 1616 -75  Q 969 -75 630 194  Q 291 463 197 991  z " transform="scale(0.015625)"/>
     <path id="ArialMT-6c" d="M 409 0  L 409 4581  L 972 4581  L 972 0  L 409 0  z " transform="scale(0.015625)"/>
    </defs>
    <use xlink:href="#ArialMT-70"/>
    <use xlink:href="#ArialMT-61" x="55.615234"/>
    <use xlink:href="#ArialMT-73" x="111.230469"/>
    <use xlink:href="#ArialMT-74" x="161.230469"/>
    <use xlink:href="#ArialMT-65" x="189.013672"/>
    <use xlink:href="#ArialMT-6c" x="244.628906"/>
   </g>
  </g>
  <g id="text_6">
   <g id="patch_69">
    <path d="M 276.76 229.521719  L 336.68 229.521719  Q 339.48 229.521719 339.48 226.721719  L 339.48 213.918281  Q 339.48 211.118281 336.68 211.118281  L 276.76 211.118281  Q 273.96 211.118281 273.96 213.918281  L 273.96 226.721719  Q 273.96 229.521719 276.76 229.521719  z " style="fill: #ffffff; opacity: 0.85; stroke: #ffffff; stroke-linejoin: miter"/>
   </g>
   <!-- colorblind -->
   <g style="fill: #262626" transform="translate(276.76 223.939219) scale(0.14 -0.14)">
    <defs>
     <path id="ArialMT-63" d="M 2588 1216  L 3141 1144  Q 3050 572 2676 248  Q 2303 -75 1759 -75  Q 1078 -75 664 370  Q 250 816 250 1647  Q 250 2184 428 2587  Q 606 2991 970 3192  Q 1334 3394 1763 3394  Q 2303 3394 2647 3120  Q 2991 2847 3088 2344  L 2541 2259  Q 2463 2594 2264 2762  Q 2066 2931 1784 2931  Q 1359 2931 1093 2626  Q 828 2322 828 1663  Q 828 994 1084 691  Q 1341 388 1753 388  Q 2084 388 2306 591  Q 2528 794 2588 1216  z " transform="scale(0.015625)"/>
     <path id="ArialMT-6f" d="M 213 1659  Q 213 2581 725 3025  Q 1153 3394 1769 3394  Q 2453 3394 2887 2945  Q 3322 2497 3322 1706  Q 3322 1066 3130 698  Q 2938 331 2570 128  Q 2203 -75 1769 -75  Q 1072 -75 642 372  Q 213 819 213 1659  z M 791 1659  Q 791 1022 1069 705  Q 1347 388 1769 388  Q 2188 388 2466 706  Q 2744 1025 2744 1678  Q 2744 2294 2464 2611  Q 2184 2928 1769 2928  Q 1347 2928 1069 2612  Q 791 2297 791 1659  z " transform="scale(0.015625)"/>
     <path id="ArialMT-6e" d="M 422 0  L 422 3319  L 928 3319  L 928 2847  Q 1294 3394 1984 3394  Q 2284 3394 2536 3286  Q 2788 3178 2913 3003  Q 3038 2828 3088 2588  Q 3119 2431 3119 2041  L 3119 0  L 2556 0  L 2556 2019  Q 2556 2363 2490 2533  Q 2425 2703 2258 2804  Q 2091 2906 1866 2906  Q 1506 2906 1245 2678  Q 984 2450 984 1813  L 984 0  L 422 0  z " transform="scale(0.015625)"/>
    </defs>
    <use xlink:href="#ArialMT-63"/>
    <use xlink:href="#ArialMT-6f" x="50"/>
    <use xlink:href="#ArialMT-6c" x="105.615234"/>
    <use xlink:href="#ArialMT-6f" x="127.832031"/>
    <use xlink:href="#ArialMT-72" x="183.447266"/>
    <use xlink:href="#ArialMT-62" x="216.748047"/>
    <use xlink:href="#ArialMT-6c" x="272.363281"/>
    <use xlink:href="#ArialMT-69" x="294.580078"/>
    <use xlink:href="#ArialMT-6e" x="316.796875"/>
    <use xlink:href="#ArialMT-64" x="372.412109"/>
   </g>
  </g>
  <g id="text_7">
   <g id="patch_70">
    <path d="M 39.24 422.590781  L 129.209063 422.590781  L 129.209063 398.209219  L 39.24 398.209219  z " style="fill: #ffffff; stroke: #ffffff; stroke-linejoin: miter"/>
   </g>
   <!-- Saturation -->
   <g style="fill: #262626" transform="translate(43.2 415.053281) scale(0.18 -0.18)">
    <defs>
     <path id="ArialMT-53" d="M 288 1472  L 859 1522  Q 900 1178 1048 958  Q 1197 738 1509 602  Q 1822 466 2213 466  Q 2559 466 2825 569  Q 3091 672 3220 851  Q 3350 1031 3350 1244  Q 3350 1459 3225 1620  Q 3100 1781 2813 1891  Q 2628 1963 1997 2114  Q 1366 2266 1113 2400  Q 784 2572 623 2826  Q 463 3081 463 3397  Q 463 3744 659 4045  Q 856 4347 1234 4503  Q 1613 4659 2075 4659  Q 2584 4659 2973 4495  Q 3363 4331 3572 4012  Q 3781 3694 3797 3291  L 3216 3247  Q 3169 3681 2898 3903  Q 2628 4125 2100 4125  Q 1550 4125 1298 3923  Q 1047 3722 1047 3438  Q 1047 3191 1225 3031  Q 1400 2872 2139 2705  Q 2878 2538 3153 2413  Q 3553 2228 3743 1945  Q 3934 1663 3934 1294  Q 3934 928 3725 604  Q 3516 281 3123 101  Q 2731 -78 2241 -78  Q 1619 -78 1198 103  Q 778 284 539 648  Q 300 1013 288 1472  z " transform="scale(0.015625)"/>
    </defs>
    <use xlink:href="#ArialMT-53"/>
    <use xlink:href="#ArialMT-61" x="66.699219"/>
    <use xlink:href="#ArialMT-74" x="122.314453"/>
    <use xlink:href="#ArialMT-75" x="150.097656"/>
    <use xlink:href="#ArialMT-72" x="205.712891"/>
    <use xlink:href="#ArialMT-61" x="239.013672"/>
    <use xlink:href="#ArialMT-74" x="294.628906"/>
    <use xlink:href="#ArialMT-69" x="322.412109"/>
    <use xlink:href="#ArialMT-6f" x="344.628906"/>
    <use xlink:href="#ArialMT-6e" x="400.244141"/>
   </g>
  </g>
  <g id="text_8">
   <g id="patch_71">
    <path d="M 33.790781 392.76  L 33.790781 296.789062  L 9.409219 296.789062  L 9.409219 392.76  z " style="fill: #ffffff; stroke: #ffffff; stroke-linejoin: miter"/>
   </g>
   <!-- Luminance -->
   <g style="fill: #262626" transform="translate(26.253281 388.8) rotate(-90) scale(0.18 -0.18)">
    <defs>
     <path id="ArialMT-4c" d="M 469 0  L 469 4581  L 1075 4581  L 1075 541  L 3331 541  L 3331 0  L 469 0  z " transform="scale(0.015625)"/>
    </defs>
    <use xlink:href="#ArialMT-4c"/>
    <use xlink:href="#ArialMT-75" x="55.615234"/>
    <use xlink:href="#ArialMT-6d" x="111.230469"/>
    <use xlink:href="#ArialMT-69" x="194.53125"/>
    <use xlink:href="#ArialMT-6e" x="216.748047"/>
    <use xlink:href="#ArialMT-61" x="272.363281"/>
    <use xlink:href="#ArialMT-6e" x="327.978516"/>
    <use xlink:href="#ArialMT-63" x="383.59375"/>
    <use xlink:href="#ArialMT-65" x="433.59375"/>
   </g>
  </g>
 </g>
 <defs>
  <clipPath id="p6e5792df91">
   <rect x="0" y="0" width="432" height="432"/>
  </clipPath>
 </defs>
</svg>