<?xml version="1.0" encoding="utf-8" standalone="no"?>
<!DOCTYPE svg PUBLIC "-//W3C//DTD SVG 1.1//EN"
  "http://www.w3.org/Graphics/SVG/1.1/DTD/svg11.dtd">
<svg xmlns:xlink="http://www.w3.org/1999/xlink" width="348.48pt" height="348.48pt" viewBox="0 0 348.48 348.48" xmlns="http://www.w3.org/2000/svg" version="1.1">
 <metadata>
  <rdf:RDF xmlns:dc="http://purl.org/dc/elements/1.1/" xmlns:cc="http://creativecommons.org/ns#" xmlns:rdf="http://www.w3.org/1999/02/22-rdf-syntax-ns#">
   <cc:Work>
    <dc:type rdf:resource="http://purl.org/dc/dcmitype/StillImage"/>
    <dc:date>2022-09-05T21:32:56.711567</dc:date>
    <dc:format>image/svg+xml</dc:format>
    <dc:creator>
     <cc:Agent>
      <dc:title>Matplotlib v3.6.0rc1, https://matplotlib.org/</dc:title>
     </cc:Agent>
    </dc:creator>
   </cc:Work>
  </rdf:RDF>
 </metadata>
 <defs>
  <style type="text/css">*{stroke-linejoin: round; stroke-linecap: butt}</style>
 </defs>
 <g id="figure_1">
  <g id="patch_1">
   <path d="M 0 348.48 
L 348.48 348.48 
L 348.48 0 
L 0 0 
z
" style="fill: #ffffff"/>
  </g>
  <g id="axes_1">
   <g id="patch_2">
    <path d="M 7.2 109.92 
L 341.28 109.92 
L 341.28 7.2 
L 7.2 7.2 
z
" style="fill: #ffffff"/>
   </g>
   <g id="matplotlib.axis_1">
    <g id="xtick_1"/>
    <g id="xtick_2"/>
    <g id="xtick_3"/>
    <g id="xtick_4"/>
    <g id="xtick_5"/>
    <g id="xtick_6"/>
    <g id="xtick_7"/>
   </g>
   <g id="matplotlib.axis_2">
    <g id="ytick_1"/>
    <g id="ytick_2"/>
    <g id="ytick_3"/>
    <g id="ytick_4"/>
   </g>
   <g id="patch_3">
    <path d="M 22.385455 109.92 
L 42.632727 109.92 
L 42.632727 109.92 
L 22.385455 109.92 
z
" clip-path="url(#p4d327acd44)" style="fill: #4c72b0; fill-opacity: 0.5; stroke: #ffffff; stroke-linejoin: miter"/>
   </g>
   <g id="patch_4">
    <path d="M 42.632727 109.92 
L 62.88 109.92 
L 62.88 106.546601 
L 42.632727 106.546601 
z
" clip-path="url(#p4d327acd44)" style="fill: #4c72b0; fill-opacity: 0.5; stroke: #ffffff; stroke-linejoin: miter"/>
   </g>
   <g id="patch_5">
    <path d="M 62.88 109.92 
L 83.127273 109.92 
L 83.127273 99.799803 
L 62.88 99.799803 
z
" clip-path="url(#p4d327acd44)" style="fill: #4c72b0; fill-opacity: 0.5; stroke: #ffffff; stroke-linejoin: miter"/>
   </g>
   <g id="patch_6">
    <path d="M 83.127273 109.92 
L 103.374545 109.92 
L 103.374545 82.932808 
L 83.127273 82.932808 
z
" clip-path="url(#p4d327acd44)" style="fill: #4c72b0; fill-opacity: 0.5; stroke: #ffffff; stroke-linejoin: miter"/>
   </g>
   <g id="patch_7">
    <path d="M 103.374545 109.92 
L 123.621818 109.92 
L 123.621818 62.692414 
L 103.374545 62.692414 
z
" clip-path="url(#p4d327acd44)" style="fill: #4c72b0; fill-opacity: 0.5; stroke: #ffffff; stroke-linejoin: miter"/>
   </g>
   <g id="patch_8">
    <path d="M 123.621818 109.92 
L 143.869091 109.92 
L 143.869091 79.559409 
L 123.621818 79.559409 
z
" clip-path="url(#p4d327acd44)" style="fill: #4c72b0; fill-opacity: 0.5; stroke: #ffffff; stroke-linejoin: miter"/>
   </g>
   <g id="patch_9">
    <path d="M 143.869091 109.92 
L 164.116364 109.92 
L 164.116364 76.18601 
L 143.869091 76.18601 
z
" clip-path="url(#p4d327acd44)" style="fill: #4c72b0; fill-opacity: 0.5; stroke: #ffffff; stroke-linejoin: miter"/>
   </g>
   <g id="patch_10">
    <path d="M 164.116364 109.92 
L 184.363636 109.92 
L 184.363636 106.546601 
L 164.116364 106.546601 
z
" clip-path="url(#p4d327acd44)" style="fill: #4c72b0; fill-opacity: 0.5; stroke: #ffffff; stroke-linejoin: miter"/>
   </g>
   <g id="patch_11">
    <path d="M 184.363636 109.92 
L 204.610909 109.92 
L 204.610909 109.92 
L 184.363636 109.92 
z
" clip-path="url(#p4d327acd44)" style="fill: #4c72b0; fill-opacity: 0.5; stroke: #ffffff; stroke-linejoin: miter"/>
   </g>
   <g id="patch_12">
    <path d="M 204.610909 109.92 
L 224.858182 109.92 
L 224.858182 106.546601 
L 204.610909 106.546601 
z
" clip-path="url(#p4d327acd44)" style="fill: #4c72b0; fill-opacity: 0.5; stroke: #ffffff; stroke-linejoin: miter"/>
   </g>
   <g id="patch_13">
    <path d="M 224.858182 109.92 
L 245.105455 109.92 
L 245.105455 109.92 
L 224.858182 109.92 
z
" clip-path="url(#p4d327acd44)" style="fill: #4c72b0; fill-opacity: 0.5; stroke: #ffffff; stroke-linejoin: miter"/>
   </g>
   <g id="patch_14">
    <path d="M 245.105455 109.92 
L 265.352727 109.92 
L 265.352727 109.92 
L 245.105455 109.92 
z
" clip-path="url(#p4d327acd44)" style="fill: #4c72b0; fill-opacity: 0.5; stroke: #ffffff; stroke-linejoin: miter"/>
   </g>
   <g id="patch_15">
    <path d="M 265.352727 109.92 
L 285.6 109.92 
L 285.6 109.92 
L 265.352727 109.92 
z
" clip-path="url(#p4d327acd44)" style="fill: #4c72b0; fill-opacity: 0.5; stroke: #ffffff; stroke-linejoin: miter"/>
   </g>
   <g id="patch_16">
    <path d="M 285.6 109.92 
L 305.847273 109.92 
L 305.847273 109.92 
L 285.6 109.92 
z
" clip-path="url(#p4d327acd44)" style="fill: #4c72b0; fill-opacity: 0.5; stroke: #ffffff; stroke-linejoin: miter"/>
   </g>
   <g id="patch_17">
    <path d="M 305.847273 109.92 
L 326.094545 109.92 
L 326.094545 109.92 
L 305.847273 109.92 
z
" clip-path="url(#p4d327acd44)" style="fill: #4c72b0; fill-opacity: 0.5; stroke: #ffffff; stroke-linejoin: miter"/>
   </g>
   <g id="line2d_1">
    <path d="M 22.385455 109.174005 
L 29.889155 108.491179 
L 38.893595 107.428147 
L 44.896556 106.544331 
L 49.398776 105.696778 
L 53.900996 104.605938 
L 58.403216 103.221018 
L 62.905436 101.536602 
L 67.407656 99.582388 
L 71.909877 97.390996 
L 76.412097 94.968931 
L 80.914317 92.293686 
L 85.416537 89.342203 
L 89.918757 86.138018 
L 98.923198 79.541689 
L 101.924678 77.572014 
L 104.926158 75.874135 
L 107.927638 74.527746 
L 110.929118 73.579808 
L 113.930598 73.032439 
L 116.932079 72.839941 
L 119.933559 72.917595 
L 124.435779 73.314371 
L 136.441699 74.652256 
L 139.44318 75.212806 
L 142.44466 76.057666 
L 145.44614 77.282026 
L 148.44762 78.941755 
L 151.4491 81.040158 
L 154.45058 83.526115 
L 157.45206 86.302716 
L 167.957241 96.438951 
L 170.958721 98.96453 
L 173.960201 101.182501 
L 176.961681 103.065339 
L 179.963161 104.611275 
L 182.964641 105.836836 
L 185.966122 106.76959 
L 188.967602 107.442663 
L 191.969082 107.891618 
L 194.970562 108.153424 
L 199.472782 108.279951 
L 205.475742 108.165679 
L 212.979443 108.003563 
L 218.982403 108.110509 
L 224.985363 108.455673 
L 241.493504 109.573243 
L 248.997204 109.801945 
L 261.003125 109.907864 
L 313.529027 109.92 
L 321.032727 109.92 
L 321.032727 109.92 
" clip-path="url(#p4d327acd44)" style="fill: none; stroke: #4c72b0; stroke-width: 2; stroke-linecap: round"/>
   </g>
   <g id="patch_18">
    <path d="M 7.2 109.92 
L 341.28 109.92 
" style="fill: none; stroke: #262626; stroke-width: 1.25; stroke-linejoin: miter; stroke-linecap: square"/>
   </g>
  </g>
  <g id="axes_2">
   <g id="patch_19">
    <path d="M 7.2 225.6 
L 341.28 225.6 
L 341.28 122.88 
L 7.2 122.88 
z
" style="fill: #ffffff"/>
   </g>
   <g id="matplotlib.axis_3">
    <g id="xtick_8"/>
    <g id="xtick_9"/>
    <g id="xtick_10"/>
    <g id="xtick_11"/>
    <g id="xtick_12"/>
    <g id="xtick_13"/>
    <g id="xtick_14"/>
   </g>
   <g id="matplotlib.axis_4">
    <g id="ytick_5"/>
    <g id="ytick_6"/>
    <g id="ytick_7"/>
    <g id="ytick_8"/>
   </g>
   <g id="patch_20">
    <path d="M 22.385455 225.6 
L 42.632727 225.6 
L 42.632727 218.853202 
L 22.385455 218.853202 
z
" clip-path="url(#pfed88bb01e)" style="fill: #4c72b0; fill-opacity: 0.5; stroke: #ffffff; stroke-linejoin: miter"/>
   </g>
   <g id="patch_21">
    <path d="M 42.632727 225.6 
L 62.88 225.6 
L 62.88 225.6 
L 42.632727 225.6 
z
" clip-path="url(#pfed88bb01e)" style="fill: #4c72b0; fill-opacity: 0.5; stroke: #ffffff; stroke-linejoin: miter"/>
   </g>
   <g id="patch_22">
    <path d="M 62.88 225.6 
L 83.127273 225.6 
L 83.127273 201.986207 
L 62.88 201.986207 
z
" clip-path="url(#pfed88bb01e)" style="fill: #4c72b0; fill-opacity: 0.5; stroke: #ffffff; stroke-linejoin: miter"/>
   </g>
   <g id="patch_23">
    <path d="M 83.127273 225.6 
L 103.374545 225.6 
L 103.374545 191.86601 
L 83.127273 191.86601 
z
" clip-path="url(#pfed88bb01e)" style="fill: #4c72b0; fill-opacity: 0.5; stroke: #ffffff; stroke-linejoin: miter"/>
   </g>
   <g id="patch_24">
    <path d="M 103.374545 225.6 
L 123.621818 225.6 
L 123.621818 195.239409 
L 103.374545 195.239409 
z
" clip-path="url(#pfed88bb01e)" style="fill: #4c72b0; fill-opacity: 0.5; stroke: #ffffff; stroke-linejoin: miter"/>
   </g>
   <g id="patch_25">
    <path d="M 123.621818 225.6 
L 143.869091 225.6 
L 143.869091 195.239409 
L 123.621818 195.239409 
z
" clip-path="url(#pfed88bb01e)" style="fill: #4c72b0; fill-opacity: 0.5; stroke: #ffffff; stroke-linejoin: miter"/>
   </g>
   <g id="patch_26">
    <path d="M 143.869091 225.6 
L 164.116364 225.6 
L 164.116364 208.733005 
L 143.869091 208.733005 
z
" clip-path="url(#pfed88bb01e)" style="fill: #4c72b0; fill-opacity: 0.5; stroke: #ffffff; stroke-linejoin: miter"/>
   </g>
   <g id="patch_27">
    <path d="M 164.116364 225.6 
L 184.363636 225.6 
L 184.363636 215.479803 
L 164.116364 215.479803 
z
" clip-path="url(#pfed88bb01e)" style="fill: #4c72b0; fill-opacity: 0.5; stroke: #ffffff; stroke-linejoin: miter"/>
   </g>
   <g id="patch_28">
    <path d="M 184.363636 225.6 
L 204.610909 225.6 
L 204.610909 222.226601 
L 184.363636 222.226601 
z
" clip-path="url(#pfed88bb01e)" style="fill: #4c72b0; fill-opacity: 0.5; stroke: #ffffff; stroke-linejoin: miter"/>
   </g>
   <g id="patch_29">
    <path d="M 204.610909 225.6 
L 224.858182 225.6 
L 224.858182 144.638424 
L 204.610909 144.638424 
z
" clip-path="url(#pfed88bb01e)" style="fill: #4c72b0; fill-opacity: 0.5; stroke: #ffffff; stroke-linejoin: miter"/>
   </g>
   <g id="patch_30">
    <path d="M 224.858182 225.6 
L 245.105455 225.6 
L 245.105455 127.771429 
L 224.858182 127.771429 
z
" clip-path="url(#pfed88bb01e)" style="fill: #4c72b0; fill-opacity: 0.5; stroke: #ffffff; stroke-linejoin: miter"/>
   </g>
   <g id="patch_31">
    <path d="M 245.105455 225.6 
L 265.352727 225.6 
L 265.352727 154.758621 
L 245.105455 154.758621 
z
" clip-path="url(#pfed88bb01e)" style="fill: #4c72b0; fill-opacity: 0.5; stroke: #ffffff; stroke-linejoin: miter"/>
   </g>
   <g id="patch_32">
    <path d="M 265.352727 225.6 
L 285.6 225.6 
L 285.6 154.758621 
L 265.352727 154.758621 
z
" clip-path="url(#pfed88bb01e)" style="fill: #4c72b0; fill-opacity: 0.5; stroke: #ffffff; stroke-linejoin: miter"/>
   </g>
   <g id="patch_33">
    <path d="M 285.6 225.6 
L 305.847273 225.6 
L 305.847273 198.612808 
L 285.6 198.612808 
z
" clip-path="url(#pfed88bb01e)" style="fill: #4c72b0; fill-opacity: 0.5; stroke: #ffffff; stroke-linejoin: miter"/>
   </g>
   <g id="patch_34">
    <path d="M 305.847273 225.6 
L 326.094545 225.6 
L 326.094545 178.372414 
L 305.847273 178.372414 
z
" clip-path="url(#pfed88bb01e)" style="fill: #4c72b0; fill-opacity: 0.5; stroke: #ffffff; stroke-linejoin: miter"/>
   </g>
   <g id="line2d_2">
    <path d="M 22.385455 221.575377 
L 28.388415 220.526979 
L 34.391375 219.257571 
L 40.394335 217.737563 
L 46.397296 215.9545 
L 52.400256 213.922414 
L 59.903956 211.104285 
L 79.413577 203.523699 
L 85.416537 201.533323 
L 89.918757 200.25536 
L 94.420978 199.198177 
L 98.923198 198.38795 
L 103.425418 197.844119 
L 107.927638 197.578862 
L 112.429858 197.596273 
L 116.932079 197.891184 
L 121.434299 198.447715 
L 125.936519 199.237757 
L 131.939479 200.580283 
L 142.44466 203.303018 
L 148.44762 204.729232 
L 152.94984 205.553607 
L 155.95132 205.925338 
L 158.9528 206.116688 
L 161.95428 206.096229 
L 164.955761 205.834762 
L 167.957241 205.306435 
L 170.958721 204.489884 
L 173.960201 203.369359 
L 176.961681 201.935749 
L 179.963161 200.187452 
L 182.964641 198.13101 
L 185.966122 195.78145 
L 188.967602 193.16229 
L 191.969082 190.305172 
L 196.471302 185.660488 
L 202.474262 179.04837 
L 211.478703 169.106438 
L 215.980923 164.52168 
L 218.982403 161.721511 
L 221.983883 159.175116 
L 224.985363 156.917459 
L 227.986843 154.97696 
L 230.988323 153.375298 
L 233.989804 152.127438 
L 236.991284 151.241836 
L 239.992764 150.720759 
L 242.994244 150.560707 
L 245.995724 150.752871 
L 248.997204 151.283628 
L 251.998684 152.135049 
L 255.000164 153.28542 
L 258.001645 154.709796 
L 261.003125 156.380575 
L 264.004605 158.268139 
L 268.506825 161.438085 
L 273.009045 164.920007 
L 279.012005 169.871389 
L 298.521626 186.291738 
L 306.025327 192.243776 
L 313.529027 197.924856 
L 321.032727 203.316727 
L 321.032727 203.316727 
" clip-path="url(#pfed88bb01e)" style="fill: none; stroke: #4c72b0; stroke-width: 2; stroke-linecap: round"/>
   </g>
   <g id="patch_35">
    <path d="M 7.2 225.6 
L 341.28 225.6 
" style="fill: none; stroke: #262626; stroke-width: 1.25; stroke-linejoin: miter; stroke-linecap: square"/>
   </g>
  </g>
  <g id="axes_3">
   <g id="patch_36">
    <path d="M 7.2 341.28 
L 341.28 341.28 
L 341.28 238.56 
L 7.2 238.56 
z
" style="fill: #ffffff"/>
   </g>
   <g id="matplotlib.axis_5">
    <g id="xtick_15"/>
    <g id="xtick_16"/>
    <g id="xtick_17"/>
    <g id="xtick_18"/>
    <g id="xtick_19"/>
    <g id="xtick_20"/>
    <g id="xtick_21"/>
   </g>
   <g id="matplotlib.axis_6">
    <g id="ytick_9"/>
    <g id="ytick_10"/>
    <g id="ytick_11"/>
    <g id="ytick_12"/>
   </g>
   <g id="patch_37">
    <path d="M 22.385455 341.28 
L 42.632727 341.28 
L 42.632727 341.28 
L 22.385455 341.28 
z
" clip-path="url(#p1e42b89df0)" style="fill: #4c72b0; fill-opacity: 0.5; stroke: #ffffff; stroke-linejoin: miter"/>
   </g>
   <g id="patch_38">
    <path d="M 42.632727 341.28 
L 62.88 341.28 
L 62.88 327.786404 
L 42.632727 327.786404 
z
" clip-path="url(#p1e42b89df0)" style="fill: #4c72b0; fill-opacity: 0.5; stroke: #ffffff; stroke-linejoin: miter"/>
   </g>
   <g id="patch_39">
    <path d="M 62.88 341.28 
L 83.127273 341.28 
L 83.127273 321.039606 
L 62.88 321.039606 
z
" clip-path="url(#p1e42b89df0)" style="fill: #4c72b0; fill-opacity: 0.5; stroke: #ffffff; stroke-linejoin: miter"/>
   </g>
   <g id="patch_40">
    <path d="M 83.127273 341.28 
L 103.374545 341.28 
L 103.374545 273.81202 
L 83.127273 273.81202 
z
" clip-path="url(#p1e42b89df0)" style="fill: #4c72b0; fill-opacity: 0.5; stroke: #ffffff; stroke-linejoin: miter"/>
   </g>
   <g id="patch_41">
    <path d="M 103.374545 341.28 
L 123.621818 341.28 
L 123.621818 260.318424 
L 103.374545 260.318424 
z
" clip-path="url(#p1e42b89df0)" style="fill: #4c72b0; fill-opacity: 0.5; stroke: #ffffff; stroke-linejoin: miter"/>
   </g>
   <g id="patch_42">
    <path d="M 123.621818 341.28 
L 143.869091 341.28 
L 143.869091 256.945025 
L 123.621818 256.945025 
z
" clip-path="url(#p1e42b89df0)" style="fill: #4c72b0; fill-opacity: 0.5; stroke: #ffffff; stroke-linejoin: miter"/>
   </g>
   <g id="patch_43">
    <path d="M 143.869091 341.28 
L 164.116364 341.28 
L 164.116364 277.185419 
L 143.869091 277.185419 
z
" clip-path="url(#p1e42b89df0)" style="fill: #4c72b0; fill-opacity: 0.5; stroke: #ffffff; stroke-linejoin: miter"/>
   </g>
   <g id="patch_44">
    <path d="M 164.116364 341.28 
L 184.363636 341.28 
L 184.363636 290.679015 
L 164.116364 290.679015 
z
" clip-path="url(#p1e42b89df0)" style="fill: #4c72b0; fill-opacity: 0.5; stroke: #ffffff; stroke-linejoin: miter"/>
   </g>
   <g id="patch_45">
    <path d="M 184.363636 341.28 
L 204.610909 341.28 
L 204.610909 324.413005 
L 184.363636 324.413005 
z
" clip-path="url(#p1e42b89df0)" style="fill: #4c72b0; fill-opacity: 0.5; stroke: #ffffff; stroke-linejoin: miter"/>
   </g>
   <g id="patch_46">
    <path d="M 204.610909 341.28 
L 224.858182 341.28 
L 224.858182 327.786404 
L 204.610909 327.786404 
z
" clip-path="url(#p1e42b89df0)" style="fill: #4c72b0; fill-opacity: 0.5; stroke: #ffffff; stroke-linejoin: miter"/>
   </g>
   <g id="patch_47">
    <path d="M 224.858182 341.28 
L 245.105455 341.28 
L 245.105455 337.906601 
L 224.858182 337.906601 
z
" clip-path="url(#p1e42b89df0)" style="fill: #4c72b0; fill-opacity: 0.5; stroke: #ffffff; stroke-linejoin: miter"/>
   </g>
   <g id="patch_48">
    <path d="M 245.105455 341.28 
L 265.352727 341.28 
L 265.352727 341.28 
L 245.105455 341.28 
z
" clip-path="url(#p1e42b89df0)" style="fill: #4c72b0; fill-opacity: 0.5; stroke: #ffffff; stroke-linejoin: miter"/>
   </g>
   <g id="patch_49">
    <path d="M 265.352727 341.28 
L 285.6 341.28 
L 285.6 341.28 
L 265.352727 341.28 
z
" clip-path="url(#p1e42b89df0)" style="fill: #4c72b0; fill-opacity: 0.5; stroke: #ffffff; stroke-linejoin: miter"/>
   </g>
   <g id="patch_50">
    <path d="M 285.6 341.28 
L 305.847273 341.28 
L 305.847273 341.28 
L 285.6 341.28 
z
" clip-path="url(#p1e42b89df0)" style="fill: #4c72b0; fill-opacity: 0.5; stroke: #ffffff; stroke-linejoin: miter"/>
   </g>
   <g id="patch_51">
    <path d="M 305.847273 341.28 
L 326.094545 341.28 
L 326.094545 341.28 
L 305.847273 341.28 
z
" clip-path="url(#p1e42b89df0)" style="fill: #4c72b0; fill-opacity: 0.5; stroke: #ffffff; stroke-linejoin: miter"/>
   </g>
   <g id="line2d_3">
    <path d="M 22.385455 340.387091 
L 25.386935 339.89342 
L 28.388415 339.209775 
L 31.389895 338.305271 
L 34.391375 337.161412 
L 37.392855 335.777704 
L 40.394335 334.174596 
L 44.896556 331.450425 
L 52.400256 326.514339 
L 64.406176 318.448962 
L 67.407656 316.17556 
L 70.409137 313.63295 
L 73.410617 310.738991 
L 76.412097 307.438216 
L 79.413577 303.714707 
L 82.415057 299.598467 
L 86.917277 292.860295 
L 97.422458 276.655842 
L 100.423938 272.47561 
L 103.425418 268.68494 
L 106.426898 265.354209 
L 109.428378 262.532877 
L 112.429858 260.24962 
L 113.930598 259.313095 
L 115.431339 258.512628 
L 116.932079 257.84637 
L 118.432819 257.311611 
L 119.933559 256.905037 
L 121.434299 256.623024 
L 122.935039 256.461958 
L 124.435779 256.418545 
L 125.936519 256.490089 
L 127.437259 256.674681 
L 130.438739 257.379809 
L 133.440219 258.535066 
L 136.441699 260.147541 
L 139.44318 262.217447 
L 142.44466 264.723958 
L 145.44614 267.615585 
L 148.44762 270.809828 
L 154.45058 277.690705 
L 161.95428 286.322027 
L 172.459461 297.919112 
L 182.964641 309.330366 
L 187.466862 313.784408 
L 190.468342 316.452154 
L 193.469822 318.830409 
L 196.471302 320.90617 
L 199.472782 322.693252 
L 202.474262 324.229423 
L 206.976482 326.188139 
L 226.486103 334.000356 
L 232.489063 336.427245 
L 236.991284 337.976332 
L 239.992764 338.826229 
L 242.994244 339.51864 
L 247.496464 340.277108 
L 251.998684 340.753502 
L 258.001645 341.08417 
L 265.505345 341.234095 
L 283.514226 341.279486 
L 321.032727 341.28 
L 321.032727 341.28 
" clip-path="url(#p1e42b89df0)" style="fill: none; stroke: #4c72b0; stroke-width: 2; stroke-linecap: round"/>
   </g>
   <g id="patch_52">
    <path d="M 7.2 341.28 
L 341.28 341.28 
" style="fill: none; stroke: #262626; stroke-width: 1.25; stroke-linejoin: miter; stroke-linecap: square"/>
   </g>
  </g>
 </g>
 <defs>
  <clipPath id="p4d327acd44">
   <rect x="7.2" y="7.2" width="334.08" height="102.72"/>
  </clipPath>
  <clipPath id="pfed88bb01e">
   <rect x="7.2" y="122.88" width="334.08" height="102.72"/>
  </clipPath>
  <clipPath id="p1e42b89df0">
   <rect x="7.2" y="238.56" width="334.08" height="102.72"/>
  </clipPath>
 </defs>
</svg>
