<?xml version="1.0" encoding="utf-8" standalone="no"?>
<!DOCTYPE svg PUBLIC "-//W3C//DTD SVG 1.1//EN"
  "http://www.w3.org/Graphics/SVG/1.1/DTD/svg11.dtd">
<svg xmlns:xlink="http://www.w3.org/1999/xlink" width="348.48pt" height="348.48pt" viewBox="0 0 348.48 348.48" xmlns="http://www.w3.org/2000/svg" version="1.1">
 <metadata>
  <rdf:RDF xmlns:dc="http://purl.org/dc/elements/1.1/" xmlns:cc="http://creativecommons.org/ns#" xmlns:rdf="http://www.w3.org/1999/02/22-rdf-syntax-ns#">
   <cc:Work>
    <dc:type rdf:resource="http://purl.org/dc/dcmitype/StillImage"/>
    <dc:date>2024-01-25T08:11:20.557360</dc:date>
    <dc:format>image/svg+xml</dc:format>
    <dc:creator>
     <cc:Agent>
      <dc:title>Matplotlib v3.8.1, https://matplotlib.org/</dc:title>
     </cc:Agent>
    </dc:creator>
   </cc:Work>
  </rdf:RDF>
 </metadata>
 <defs>
  <style type="text/css">*{stroke-linejoin: round; stroke-linecap: butt}</style>
 </defs>
 <g id="figure_1">
  <g id="patch_1">
   <path d="M 0 348.48 
L 348.48 348.48 
L 348.48 0 
L 0 0 
z
" style="fill: #ffffff"/>
  </g>
  <g id="axes_1">
   <g id="patch_2">
    <path d="M 7.2 109.92 
L 341.28 109.92 
L 341.28 7.2 
L 7.2 7.2 
z
" style="fill: #ffffff"/>
   </g>
   <g id="matplotlib.axis_1">
    <g id="xtick_1"/>
    <g id="xtick_2"/>
    <g id="xtick_3"/>
    <g id="xtick_4"/>
    <g id="xtick_5"/>
    <g id="xtick_6"/>
    <g id="xtick_7"/>
   </g>
   <g id="matplotlib.axis_2">
    <g id="ytick_1"/>
    <g id="ytick_2"/>
    <g id="ytick_3"/>
    <g id="ytick_4"/>
   </g>
   <g id="patch_3">
    <path d="M 22.385455 109.92 
L 42.632727 109.92 
L 42.632727 109.92 
L 22.385455 109.92 
z
" clip-path="url(#p228417ff3b)" style="fill: #4c72b0; fill-opacity: 0.5; stroke: #ffffff; stroke-linejoin: miter"/>
   </g>
   <g id="patch_4">
    <path d="M 42.632727 109.92 
L 62.88 109.92 
L 62.88 106.546601 
L 42.632727 106.546601 
z
" clip-path="url(#p228417ff3b)" style="fill: #4c72b0; fill-opacity: 0.5; stroke: #ffffff; stroke-linejoin: miter"/>
   </g>
   <g id="patch_5">
    <path d="M 62.88 109.92 
L 83.127273 109.92 
L 83.127273 99.799803 
L 62.88 99.799803 
z
" clip-path="url(#p228417ff3b)" style="fill: #4c72b0; fill-opacity: 0.5; stroke: #ffffff; stroke-linejoin: miter"/>
   </g>
   <g id="patch_6">
    <path d="M 83.127273 109.92 
L 103.374545 109.92 
L 103.374545 82.932808 
L 83.127273 82.932808 
z
" clip-path="url(#p228417ff3b)" style="fill: #4c72b0; fill-opacity: 0.5; stroke: #ffffff; stroke-linejoin: miter"/>
   </g>
   <g id="patch_7">
    <path d="M 103.374545 109.92 
L 123.621818 109.92 
L 123.621818 62.692414 
L 103.374545 62.692414 
z
" clip-path="url(#p228417ff3b)" style="fill: #4c72b0; fill-opacity: 0.5; stroke: #ffffff; stroke-linejoin: miter"/>
   </g>
   <g id="patch_8">
    <path d="M 123.621818 109.92 
L 143.869091 109.92 
L 143.869091 79.559409 
L 123.621818 79.559409 
z
" clip-path="url(#p228417ff3b)" style="fill: #4c72b0; fill-opacity: 0.5; stroke: #ffffff; stroke-linejoin: miter"/>
   </g>
   <g id="patch_9">
    <path d="M 143.869091 109.92 
L 164.116364 109.92 
L 164.116364 76.18601 
L 143.869091 76.18601 
z
" clip-path="url(#p228417ff3b)" style="fill: #4c72b0; fill-opacity: 0.5; stroke: #ffffff; stroke-linejoin: miter"/>
   </g>
   <g id="patch_10">
    <path d="M 164.116364 109.92 
L 184.363636 109.92 
L 184.363636 106.546601 
L 164.116364 106.546601 
z
" clip-path="url(#p228417ff3b)" style="fill: #4c72b0; fill-opacity: 0.5; stroke: #ffffff; stroke-linejoin: miter"/>
   </g>
   <g id="patch_11">
    <path d="M 184.363636 109.92 
L 204.610909 109.92 
L 204.610909 109.92 
L 184.363636 109.92 
z
" clip-path="url(#p228417ff3b)" style="fill: #4c72b0; fill-opacity: 0.5; stroke: #ffffff; stroke-linejoin: miter"/>
   </g>
   <g id="patch_12">
    <path d="M 204.610909 109.92 
L 224.858182 109.92 
L 224.858182 106.546601 
L 204.610909 106.546601 
z
" clip-path="url(#p228417ff3b)" style="fill: #4c72b0; fill-opacity: 0.5; stroke: #ffffff; stroke-linejoin: miter"/>
   </g>
   <g id="patch_13">
    <path d="M 224.858182 109.92 
L 245.105455 109.92 
L 245.105455 109.92 
L 224.858182 109.92 
z
" clip-path="url(#p228417ff3b)" style="fill: #4c72b0; fill-opacity: 0.5; stroke: #ffffff; stroke-linejoin: miter"/>
   </g>
   <g id="patch_14">
    <path d="M 245.105455 109.92 
L 265.352727 109.92 
L 265.352727 109.92 
L 245.105455 109.92 
z
" clip-path="url(#p228417ff3b)" style="fill: #4c72b0; fill-opacity: 0.5; stroke: #ffffff; stroke-linejoin: miter"/>
   </g>
   <g id="patch_15">
    <path d="M 265.352727 109.92 
L 285.6 109.92 
L 285.6 109.92 
L 265.352727 109.92 
z
" clip-path="url(#p228417ff3b)" style="fill: #4c72b0; fill-opacity: 0.5; stroke: #ffffff; stroke-linejoin: miter"/>
   </g>
   <g id="patch_16">
    <path d="M 285.6 109.92 
L 305.847273 109.92 
L 305.847273 109.92 
L 285.6 109.92 
z
" clip-path="url(#p228417ff3b)" style="fill: #4c72b0; fill-opacity: 0.5; stroke: #ffffff; stroke-linejoin: miter"/>
   </g>
   <g id="patch_17">
    <path d="M 305.847273 109.92 
L 326.094545 109.92 
L 326.094545 109.92 
L 305.847273 109.92 
z
" clip-path="url(#p228417ff3b)" style="fill: #4c72b0; fill-opacity: 0.5; stroke: #ffffff; stroke-linejoin: miter"/>
   </g>
   <g id="line2d_1">
    <path d="M 22.385455 109.186438 
L 30.016336 108.514992 
L 39.173394 107.469678 
L 45.2781 106.600592 
L 49.856629 105.767165 
L 54.435158 104.694506 
L 59.013687 103.332667 
L 63.592216 101.676325 
L 68.170745 99.754682 
L 72.749274 97.599813 
L 77.327803 95.218116 
L 81.906332 92.587458 
L 86.484861 89.685167 
L 91.06339 86.534384 
L 100.220448 80.047994 
L 103.2728 78.111147 
L 106.325153 76.441566 
L 109.377506 75.117616 
L 112.429858 74.185477 
L 115.482211 73.647231 
L 118.534564 73.457942 
L 121.586916 73.534302 
L 126.165445 73.924465 
L 138.374856 75.240052 
L 141.427209 75.791259 
L 144.479561 76.622038 
L 147.531914 77.825992 
L 150.584267 79.458059 
L 153.636619 81.521489 
L 156.688972 83.966013 
L 159.741325 86.696337 
L 170.424559 96.663635 
L 173.476912 99.147121 
L 176.529265 101.328126 
L 179.581617 103.179583 
L 182.63397 104.699754 
L 185.686323 105.904889 
L 188.738675 106.822097 
L 191.791028 107.483952 
L 194.843381 107.925425 
L 197.895733 108.182867 
L 202.474262 108.307285 
L 208.578968 108.194917 
L 217.736026 108.03755 
L 223.840731 108.206712 
L 231.471613 108.70197 
L 242.154847 109.432799 
L 249.785729 109.735599 
L 260.468963 109.889675 
L 286.413961 109.919956 
L 326.094545 109.92 
L 326.094545 109.92 
" clip-path="url(#p228417ff3b)" style="fill: none; stroke: #4c72b0; stroke-width: 2; stroke-linecap: round"/>
   </g>
   <g id="patch_18">
    <path d="M 7.2 109.92 
L 341.28 109.92 
" style="fill: none; stroke: #262626; stroke-width: 1.25; stroke-linejoin: miter; stroke-linecap: square"/>
   </g>
  </g>
  <g id="axes_2">
   <g id="patch_19">
    <path d="M 7.2 225.6 
L 341.28 225.6 
L 341.28 122.88 
L 7.2 122.88 
z
" style="fill: #ffffff"/>
   </g>
   <g id="matplotlib.axis_3">
    <g id="xtick_8"/>
    <g id="xtick_9"/>
    <g id="xtick_10"/>
    <g id="xtick_11"/>
    <g id="xtick_12"/>
    <g id="xtick_13"/>
    <g id="xtick_14"/>
   </g>
   <g id="matplotlib.axis_4">
    <g id="ytick_5"/>
    <g id="ytick_6"/>
    <g id="ytick_7"/>
    <g id="ytick_8"/>
   </g>
   <g id="patch_20">
    <path d="M 22.385455 225.6 
L 42.632727 225.6 
L 42.632727 218.853202 
L 22.385455 218.853202 
z
" clip-path="url(#p6257294ffa)" style="fill: #4c72b0; fill-opacity: 0.5; stroke: #ffffff; stroke-linejoin: miter"/>
   </g>
   <g id="patch_21">
    <path d="M 42.632727 225.6 
L 62.88 225.6 
L 62.88 225.6 
L 42.632727 225.6 
z
" clip-path="url(#p6257294ffa)" style="fill: #4c72b0; fill-opacity: 0.5; stroke: #ffffff; stroke-linejoin: miter"/>
   </g>
   <g id="patch_22">
    <path d="M 62.88 225.6 
L 83.127273 225.6 
L 83.127273 201.986207 
L 62.88 201.986207 
z
" clip-path="url(#p6257294ffa)" style="fill: #4c72b0; fill-opacity: 0.5; stroke: #ffffff; stroke-linejoin: miter"/>
   </g>
   <g id="patch_23">
    <path d="M 83.127273 225.6 
L 103.374545 225.6 
L 103.374545 191.86601 
L 83.127273 191.86601 
z
" clip-path="url(#p6257294ffa)" style="fill: #4c72b0; fill-opacity: 0.5; stroke: #ffffff; stroke-linejoin: miter"/>
   </g>
   <g id="patch_24">
    <path d="M 103.374545 225.6 
L 123.621818 225.6 
L 123.621818 195.239409 
L 103.374545 195.239409 
z
" clip-path="url(#p6257294ffa)" style="fill: #4c72b0; fill-opacity: 0.5; stroke: #ffffff; stroke-linejoin: miter"/>
   </g>
   <g id="patch_25">
    <path d="M 123.621818 225.6 
L 143.869091 225.6 
L 143.869091 195.239409 
L 123.621818 195.239409 
z
" clip-path="url(#p6257294ffa)" style="fill: #4c72b0; fill-opacity: 0.5; stroke: #ffffff; stroke-linejoin: miter"/>
   </g>
   <g id="patch_26">
    <path d="M 143.869091 225.6 
L 164.116364 225.6 
L 164.116364 208.733005 
L 143.869091 208.733005 
z
" clip-path="url(#p6257294ffa)" style="fill: #4c72b0; fill-opacity: 0.5; stroke: #ffffff; stroke-linejoin: miter"/>
   </g>
   <g id="patch_27">
    <path d="M 164.116364 225.6 
L 184.363636 225.6 
L 184.363636 215.479803 
L 164.116364 215.479803 
z
" clip-path="url(#p6257294ffa)" style="fill: #4c72b0; fill-opacity: 0.5; stroke: #ffffff; stroke-linejoin: miter"/>
   </g>
   <g id="patch_28">
    <path d="M 184.363636 225.6 
L 204.610909 225.6 
L 204.610909 222.226601 
L 184.363636 222.226601 
z
" clip-path="url(#p6257294ffa)" style="fill: #4c72b0; fill-opacity: 0.5; stroke: #ffffff; stroke-linejoin: miter"/>
   </g>
   <g id="patch_29">
    <path d="M 204.610909 225.6 
L 224.858182 225.6 
L 224.858182 144.638424 
L 204.610909 144.638424 
z
" clip-path="url(#p6257294ffa)" style="fill: #4c72b0; fill-opacity: 0.5; stroke: #ffffff; stroke-linejoin: miter"/>
   </g>
   <g id="patch_30">
    <path d="M 224.858182 225.6 
L 245.105455 225.6 
L 245.105455 127.771429 
L 224.858182 127.771429 
z
" clip-path="url(#p6257294ffa)" style="fill: #4c72b0; fill-opacity: 0.5; stroke: #ffffff; stroke-linejoin: miter"/>
   </g>
   <g id="patch_31">
    <path d="M 245.105455 225.6 
L 265.352727 225.6 
L 265.352727 154.758621 
L 245.105455 154.758621 
z
" clip-path="url(#p6257294ffa)" style="fill: #4c72b0; fill-opacity: 0.5; stroke: #ffffff; stroke-linejoin: miter"/>
   </g>
   <g id="patch_32">
    <path d="M 265.352727 225.6 
L 285.6 225.6 
L 285.6 154.758621 
L 265.352727 154.758621 
z
" clip-path="url(#p6257294ffa)" style="fill: #4c72b0; fill-opacity: 0.5; stroke: #ffffff; stroke-linejoin: miter"/>
   </g>
   <g id="patch_33">
    <path d="M 285.6 225.6 
L 305.847273 225.6 
L 305.847273 198.612808 
L 285.6 198.612808 
z
" clip-path="url(#p6257294ffa)" style="fill: #4c72b0; fill-opacity: 0.5; stroke: #ffffff; stroke-linejoin: miter"/>
   </g>
   <g id="patch_34">
    <path d="M 305.847273 225.6 
L 326.094545 225.6 
L 326.094545 178.372414 
L 305.847273 178.372414 
z
" clip-path="url(#p6257294ffa)" style="fill: #4c72b0; fill-opacity: 0.5; stroke: #ffffff; stroke-linejoin: miter"/>
   </g>
   <g id="line2d_2">
    <path d="M 22.385455 221.642455 
L 28.49016 220.611529 
L 34.594865 219.363278 
L 40.699571 217.868604 
L 46.804276 216.115258 
L 52.908981 214.117041 
L 60.539863 211.34588 
L 80.380155 203.891638 
L 86.484861 201.934435 
L 91.06339 200.67777 
L 95.641919 199.638207 
L 100.220448 198.841484 
L 104.798977 198.306717 
L 109.377506 198.045881 
L 113.956035 198.063002 
L 118.534564 198.352998 
L 123.113093 198.900253 
L 127.691622 199.677127 
L 133.796327 200.997279 
L 152.110443 205.376874 
L 156.688972 206.090665 
L 159.741325 206.371472 
L 162.793677 206.459244 
L 165.84603 206.32404 
L 168.898383 205.938653 
L 171.950735 205.279727 
L 175.003088 204.328882 
L 178.055441 203.073775 
L 181.107794 201.509046 
L 184.160146 199.637061 
L 187.212499 197.468403 
L 190.264852 195.022047 
L 193.317204 192.325179 
L 197.895733 187.888316 
L 202.474262 183.112873 
L 216.209849 168.502317 
L 220.788378 164.1341 
L 223.840731 161.500686 
L 226.893084 159.134791 
L 229.945436 157.067617 
L 232.997789 155.323805 
L 236.050142 153.921357 
L 239.102494 152.871755 
L 242.154847 152.180223 
L 245.2072 151.846103 
L 248.259552 151.863282 
L 251.311905 152.220669 
L 254.364258 152.902688 
L 257.41661 153.889783 
L 260.468963 155.158944 
L 263.521316 156.68426 
L 266.573668 158.437517 
L 269.626021 160.38885 
L 274.20455 163.619777 
L 278.783079 167.123127 
L 286.413961 173.304183 
L 300.149548 184.532213 
L 307.780429 190.49058 
L 315.411311 196.183687 
L 323.042193 201.604828 
L 326.094545 203.688115 
L 326.094545 203.688115 
" clip-path="url(#p6257294ffa)" style="fill: none; stroke: #4c72b0; stroke-width: 2; stroke-linecap: round"/>
   </g>
   <g id="patch_35">
    <path d="M 7.2 225.6 
L 341.28 225.6 
" style="fill: none; stroke: #262626; stroke-width: 1.25; stroke-linejoin: miter; stroke-linecap: square"/>
   </g>
  </g>
  <g id="axes_3">
   <g id="patch_36">
    <path d="M 7.2 341.28 
L 341.28 341.28 
L 341.28 238.56 
L 7.2 238.56 
z
" style="fill: #ffffff"/>
   </g>
   <g id="matplotlib.axis_5">
    <g id="xtick_15"/>
    <g id="xtick_16"/>
    <g id="xtick_17"/>
    <g id="xtick_18"/>
    <g id="xtick_19"/>
    <g id="xtick_20"/>
    <g id="xtick_21"/>
   </g>
   <g id="matplotlib.axis_6">
    <g id="ytick_9"/>
    <g id="ytick_10"/>
    <g id="ytick_11"/>
    <g id="ytick_12"/>
   </g>
   <g id="patch_37">
    <path d="M 22.385455 341.28 
L 42.632727 341.28 
L 42.632727 341.28 
L 22.385455 341.28 
z
" clip-path="url(#p9f59d84378)" style="fill: #4c72b0; fill-opacity: 0.5; stroke: #ffffff; stroke-linejoin: miter"/>
   </g>
   <g id="patch_38">
    <path d="M 42.632727 341.28 
L 62.88 341.28 
L 62.88 327.786404 
L 42.632727 327.786404 
z
" clip-path="url(#p9f59d84378)" style="fill: #4c72b0; fill-opacity: 0.5; stroke: #ffffff; stroke-linejoin: miter"/>
   </g>
   <g id="patch_39">
    <path d="M 62.88 341.28 
L 83.127273 341.28 
L 83.127273 321.039606 
L 62.88 321.039606 
z
" clip-path="url(#p9f59d84378)" style="fill: #4c72b0; fill-opacity: 0.5; stroke: #ffffff; stroke-linejoin: miter"/>
   </g>
   <g id="patch_40">
    <path d="M 83.127273 341.28 
L 103.374545 341.28 
L 103.374545 273.81202 
L 83.127273 273.81202 
z
" clip-path="url(#p9f59d84378)" style="fill: #4c72b0; fill-opacity: 0.5; stroke: #ffffff; stroke-linejoin: miter"/>
   </g>
   <g id="patch_41">
    <path d="M 103.374545 341.28 
L 123.621818 341.28 
L 123.621818 260.318424 
L 103.374545 260.318424 
z
" clip-path="url(#p9f59d84378)" style="fill: #4c72b0; fill-opacity: 0.5; stroke: #ffffff; stroke-linejoin: miter"/>
   </g>
   <g id="patch_42">
    <path d="M 123.621818 341.28 
L 143.869091 341.28 
L 143.869091 256.945025 
L 123.621818 256.945025 
z
" clip-path="url(#p9f59d84378)" style="fill: #4c72b0; fill-opacity: 0.5; stroke: #ffffff; stroke-linejoin: miter"/>
   </g>
   <g id="patch_43">
    <path d="M 143.869091 341.28 
L 164.116364 341.28 
L 164.116364 277.185419 
L 143.869091 277.185419 
z
" clip-path="url(#p9f59d84378)" style="fill: #4c72b0; fill-opacity: 0.5; stroke: #ffffff; stroke-linejoin: miter"/>
   </g>
   <g id="patch_44">
    <path d="M 164.116364 341.28 
L 184.363636 341.28 
L 184.363636 290.679015 
L 164.116364 290.679015 
z
" clip-path="url(#p9f59d84378)" style="fill: #4c72b0; fill-opacity: 0.5; stroke: #ffffff; stroke-linejoin: miter"/>
   </g>
   <g id="patch_45">
    <path d="M 184.363636 341.28 
L 204.610909 341.28 
L 204.610909 324.413005 
L 184.363636 324.413005 
z
" clip-path="url(#p9f59d84378)" style="fill: #4c72b0; fill-opacity: 0.5; stroke: #ffffff; stroke-linejoin: miter"/>
   </g>
   <g id="patch_46">
    <path d="M 204.610909 341.28 
L 224.858182 341.28 
L 224.858182 327.786404 
L 204.610909 327.786404 
z
" clip-path="url(#p9f59d84378)" style="fill: #4c72b0; fill-opacity: 0.5; stroke: #ffffff; stroke-linejoin: miter"/>
   </g>
   <g id="patch_47">
    <path d="M 224.858182 341.28 
L 245.105455 341.28 
L 245.105455 337.906601 
L 224.858182 337.906601 
z
" clip-path="url(#p9f59d84378)" style="fill: #4c72b0; fill-opacity: 0.5; stroke: #ffffff; stroke-linejoin: miter"/>
   </g>
   <g id="patch_48">
    <path d="M 245.105455 341.28 
L 265.352727 341.28 
L 265.352727 341.28 
L 245.105455 341.28 
z
" clip-path="url(#p9f59d84378)" style="fill: #4c72b0; fill-opacity: 0.5; stroke: #ffffff; stroke-linejoin: miter"/>
   </g>
   <g id="patch_49">
    <path d="M 265.352727 341.28 
L 285.6 341.28 
L 285.6 341.28 
L 265.352727 341.28 
z
" clip-path="url(#p9f59d84378)" style="fill: #4c72b0; fill-opacity: 0.5; stroke: #ffffff; stroke-linejoin: miter"/>
   </g>
   <g id="patch_50">
    <path d="M 285.6 341.28 
L 305.847273 341.28 
L 305.847273 341.28 
L 285.6 341.28 
z
" clip-path="url(#p9f59d84378)" style="fill: #4c72b0; fill-opacity: 0.5; stroke: #ffffff; stroke-linejoin: miter"/>
   </g>
   <g id="patch_51">
    <path d="M 305.847273 341.28 
L 326.094545 341.28 
L 326.094545 341.28 
L 305.847273 341.28 
z
" clip-path="url(#p9f59d84378)" style="fill: #4c72b0; fill-opacity: 0.5; stroke: #ffffff; stroke-linejoin: miter"/>
   </g>
   <g id="line2d_3">
    <path d="M 22.385455 340.401972 
L 25.437807 339.91653 
L 28.49016 339.244279 
L 31.542513 338.35485 
L 34.594865 337.230055 
L 37.647218 335.869409 
L 40.699571 334.293019 
L 45.2781 331.614251 
L 52.908981 326.760433 
L 65.118392 318.829479 
L 68.170745 316.593967 
L 71.223097 314.093734 
L 74.27545 311.248007 
L 77.327803 308.002246 
L 80.380155 304.340795 
L 83.432508 300.29316 
L 88.011037 293.66729 
L 98.694271 277.732911 
L 101.746624 273.62235 
L 104.798977 269.894858 
L 107.851329 266.619639 
L 110.903682 263.845329 
L 113.956035 261.600127 
L 115.482211 260.67921 
L 117.008387 259.892085 
L 118.534564 259.236931 
L 120.06074 258.711084 
L 121.586916 258.311286 
L 123.113093 258.033973 
L 124.639269 257.875592 
L 126.165445 257.832903 
L 129.217798 258.08477 
L 132.270151 258.778145 
L 135.322503 259.914149 
L 138.374856 261.499748 
L 141.427209 263.535157 
L 144.479561 265.999892 
L 147.531914 268.843325 
L 150.584267 271.984331 
L 156.688972 278.750526 
L 164.319854 287.237994 
L 175.003088 298.641794 
L 185.686323 309.86286 
L 190.264852 314.242667 
L 193.317204 316.865952 
L 196.369557 319.204569 
L 199.42191 321.245733 
L 202.474262 323.003031 
L 205.526615 324.513599 
L 210.105144 326.43967 
L 229.945436 334.121684 
L 236.050142 336.508125 
L 240.628671 338.031393 
L 243.681023 338.867125 
L 246.733376 339.547996 
L 251.311905 340.293823 
L 255.890434 340.762277 
L 261.995139 341.087433 
L 269.626021 341.23486 
L 287.940137 341.279495 
L 326.094545 341.28 
L 326.094545 341.28 
" clip-path="url(#p9f59d84378)" style="fill: none; stroke: #4c72b0; stroke-width: 2; stroke-linecap: round"/>
   </g>
   <g id="patch_52">
    <path d="M 7.2 341.28 
L 341.28 341.28 
" style="fill: none; stroke: #262626; stroke-width: 1.25; stroke-linejoin: miter; stroke-linecap: square"/>
   </g>
  </g>
 </g>
 <defs>
  <clipPath id="p228417ff3b">
   <rect x="7.2" y="7.2" width="334.08" height="102.72"/>
  </clipPath>
  <clipPath id="p6257294ffa">
   <rect x="7.2" y="122.88" width="334.08" height="102.72"/>
  </clipPath>
  <clipPath id="p9f59d84378">
   <rect x="7.2" y="238.56" width="334.08" height="102.72"/>
  </clipPath>
 </defs>
</svg>
