<svg xmlns:xlink="http://www.w3.org/1999/xlink" xmlns="http://www.w3.org/2000/svg" width="576pt" height="360pt" viewBox="0 0 576 360" version="1.1">
 <metadata>
  <rdf:RDF xmlns:dc="http://purl.org/dc/elements/1.1/" xmlns:cc="http://creativecommons.org/ns#" xmlns:rdf="http://www.w3.org/1999/02/22-rdf-syntax-ns#">
   <cc:Work>
    <dc:type rdf:resource="http://purl.org/dc/dcmitype/StillImage"/>
    <dc:date>2022-09-05T21:26:36.823443</dc:date>
    <dc:format>image/svg+xml</dc:format>
    <dc:creator>
     <cc:Agent>
      <dc:title>Matplotlib v3.6.0rc1, https://matplotlib.org/</dc:title>
     </cc:Agent>
    </dc:creator>
   </cc:Work>
  </rdf:RDF>
 </metadata>
 <defs>
  <style type="text/css">*{stroke-linejoin: round; stroke-linecap: butt}</style>
 </defs>
 <g id="figure_1">
  <g id="patch_1">
   <path d="M 0 360  L 576 360  L 576 0  L 0 0  z " style="fill: #ffffff"/>
  </g>
  <g id="axes_1">
   <g id="patch_2">
    <path d="M 33.52 185.637073  L 285.409121 185.637073  L 285.409121 31.92  L 33.52 31.92  z " style="fill: #4c72b0; fill-opacity: 0.25"/>
   </g>
   <g id="matplotlib.axis_1"/>
   <g id="matplotlib.axis_2">
    <g id="text_1">
     <!-- Parametric -->
     <g style="fill: #262626" transform="translate(25.9425 152.286505) rotate(-90) scale(0.18 -0.18)">
      <defs>
       <path id="ArialMT-50" d="M 494 0  L 494 4581  L 2222 4581  Q 2678 4581 2919 4538  Q 3256 4481 3484 4323  Q 3713 4166 3852 3881  Q 3991 3597 3991 3256  Q 3991 2672 3619 2267  Q 3247 1863 2275 1863  L 1100 1863  L 1100 0  L 494 0  z M 1100 2403  L 2284 2403  Q 2872 2403 3119 2622  Q 3366 2841 3366 3238  Q 3366 3525 3220 3729  Q 3075 3934 2838 4000  Q 2684 4041 2272 4041  L 1100 4041  L 1100 2403  z " transform="scale(0.015625)"/>
       <path id="ArialMT-61" d="M 2588 409  Q 2275 144 1986 34  Q 1697 -75 1366 -75  Q 819 -75 525 192  Q 231 459 231 875  Q 231 1119 342 1320  Q 453 1522 633 1644  Q 813 1766 1038 1828  Q 1203 1872 1538 1913  Q 2219 1994 2541 2106  Q 2544 2222 2544 2253  Q 2544 2597 2384 2738  Q 2169 2928 1744 2928  Q 1347 2928 1158 2789  Q 969 2650 878 2297  L 328 2372  Q 403 2725 575 2942  Q 747 3159 1072 3276  Q 1397 3394 1825 3394  Q 2250 3394 2515 3294  Q 2781 3194 2906 3042  Q 3031 2891 3081 2659  Q 3109 2516 3109 2141  L 3109 1391  Q 3109 606 3145 398  Q 3181 191 3288 0  L 2700 0  Q 2613 175 2588 409  z M 2541 1666  Q 2234 1541 1622 1453  Q 1275 1403 1131 1340  Q 988 1278 909 1158  Q 831 1038 831 891  Q 831 666 1001 516  Q 1172 366 1500 366  Q 1825 366 2078 508  Q 2331 650 2450 897  Q 2541 1088 2541 1459  L 2541 1666  z " transform="scale(0.015625)"/>
       <path id="ArialMT-72" d="M 416 0  L 416 3319  L 922 3319  L 922 2816  Q 1116 3169 1280 3281  Q 1444 3394 1641 3394  Q 1925 3394 2219 3213  L 2025 2691  Q 1819 2813 1613 2813  Q 1428 2813 1281 2702  Q 1134 2591 1072 2394  Q 978 2094 978 1738  L 978 0  L 416 0  z " transform="scale(0.015625)"/>
       <path id="ArialMT-6d" d="M 422 0  L 422 3319  L 925 3319  L 925 2853  Q 1081 3097 1340 3245  Q 1600 3394 1931 3394  Q 2300 3394 2536 3241  Q 2772 3088 2869 2813  Q 3263 3394 3894 3394  Q 4388 3394 4653 3120  Q 4919 2847 4919 2278  L 4919 0  L 4359 0  L 4359 2091  Q 4359 2428 4304 2576  Q 4250 2725 4106 2815  Q 3963 2906 3769 2906  Q 3419 2906 3187 2673  Q 2956 2441 2956 1928  L 2956 0  L 2394 0  L 2394 2156  Q 2394 2531 2256 2718  Q 2119 2906 1806 2906  Q 1569 2906 1367 2781  Q 1166 2656 1075 2415  Q 984 2175 984 1722  L 984 0  L 422 0  z " transform="scale(0.015625)"/>
       <path id="ArialMT-65" d="M 2694 1069  L 3275 997  Q 3138 488 2766 206  Q 2394 -75 1816 -75  Q 1088 -75 661 373  Q 234 822 234 1631  Q 234 2469 665 2931  Q 1097 3394 1784 3394  Q 2450 3394 2872 2941  Q 3294 2488 3294 1666  Q 3294 1616 3291 1516  L 816 1516  Q 847 969 1125 678  Q 1403 388 1819 388  Q 2128 388 2347 550  Q 2566 713 2694 1069  z M 847 1978  L 2700 1978  Q 2663 2397 2488 2606  Q 2219 2931 1791 2931  Q 1403 2931 1139 2672  Q 875 2413 847 1978  z " transform="scale(0.015625)"/>
       <path id="ArialMT-74" d="M 1650 503  L 1731 6  Q 1494 -44 1306 -44  Q 1000 -44 831 53  Q 663 150 594 308  Q 525 466 525 972  L 525 2881  L 113 2881  L 113 3319  L 525 3319  L 525 4141  L 1084 4478  L 1084 3319  L 1650 3319  L 1650 2881  L 1084 2881  L 1084 941  Q 1084 700 1114 631  Q 1144 563 1211 522  Q 1278 481 1403 481  Q 1497 481 1650 503  z " transform="scale(0.015625)"/>
       <path id="ArialMT-69" d="M 425 3934  L 425 4581  L 988 4581  L 988 3934  L 425 3934  z M 425 0  L 425 3319  L 988 3319  L 988 0  L 425 0  z " transform="scale(0.015625)"/>
       <path id="ArialMT-63" d="M 2588 1216  L 3141 1144  Q 3050 572 2676 248  Q 2303 -75 1759 -75  Q 1078 -75 664 370  Q 250 816 250 1647  Q 250 2184 428 2587  Q 606 2991 970 3192  Q 1334 3394 1763 3394  Q 2303 3394 2647 3120  Q 2991 2847 3088 2344  L 2541 2259  Q 2463 2594 2264 2762  Q 2066 2931 1784 2931  Q 1359 2931 1093 2626  Q 828 2322 828 1663  Q 828 994 1084 691  Q 1341 388 1753 388  Q 2084 388 2306 591  Q 2528 794 2588 1216  z " transform="scale(0.015625)"/>
      </defs>
      <use xlink:href="#ArialMT-50"/>
      <use xlink:href="#ArialMT-61" x="66.699219"/>
      <use xlink:href="#ArialMT-72" x="122.314453"/>
      <use xlink:href="#ArialMT-61" x="155.615234"/>
      <use xlink:href="#ArialMT-6d" x="211.230469"/>
      <use xlink:href="#ArialMT-65" x="294.53125"/>
      <use xlink:href="#ArialMT-74" x="350.146484"/>
      <use xlink:href="#ArialMT-72" x="377.929688"/>
      <use xlink:href="#ArialMT-69" x="411.230469"/>
      <use xlink:href="#ArialMT-63" x="433.447266"/>
     </g>
    </g>
   </g>
   <g id="patch_3">
    <path d="M 33.52 185.637073  L 33.52 31.92  " style="fill: none; stroke: #ffffff; stroke-width: 1.25; stroke-linejoin: miter; stroke-linecap: square"/>
   </g>
   <g id="patch_4">
    <path d="M 285.409121 185.637073  L 285.409121 31.92  " style="fill: none; stroke: #ffffff; stroke-width: 1.25; stroke-linejoin: miter; stroke-linecap: square"/>
   </g>
   <g id="patch_5">
    <path d="M 33.52 185.637073  L 285.409121 185.637073  " style="fill: none; stroke: #ffffff; stroke-width: 1.25; stroke-linejoin: miter; stroke-linecap: square"/>
   </g>
   <g id="patch_6">
    <path d="M 33.52 31.92  L 285.409121 31.92  " style="fill: none; stroke: #ffffff; stroke-width: 1.25; stroke-linejoin: miter; stroke-linecap: square"/>
   </g>
   <g id="text_2">
    <!-- Standard deviation -->
    <g style="fill: #262626" transform="translate(84.41581 98.060111) scale(0.18 -0.18)">
     <defs>
      <path id="ArialMT-53" d="M 288 1472  L 859 1522  Q 900 1178 1048 958  Q 1197 738 1509 602  Q 1822 466 2213 466  Q 2559 466 2825 569  Q 3091 672 3220 851  Q 3350 1031 3350 1244  Q 3350 1459 3225 1620  Q 3100 1781 2813 1891  Q 2628 1963 1997 2114  Q 1366 2266 1113 2400  Q 784 2572 623 2826  Q 463 3081 463 3397  Q 463 3744 659 4045  Q 856 4347 1234 4503  Q 1613 4659 2075 4659  Q 2584 4659 2973 4495  Q 3363 4331 3572 4012  Q 3781 3694 3797 3291  L 3216 3247  Q 3169 3681 2898 3903  Q 2628 4125 2100 4125  Q 1550 4125 1298 3923  Q 1047 3722 1047 3438  Q 1047 3191 1225 3031  Q 1400 2872 2139 2705  Q 2878 2538 3153 2413  Q 3553 2228 3743 1945  Q 3934 1663 3934 1294  Q 3934 928 3725 604  Q 3516 281 3123 101  Q 2731 -78 2241 -78  Q 1619 -78 1198 103  Q 778 284 539 648  Q 300 1013 288 1472  z " transform="scale(0.015625)"/>
      <path id="ArialMT-6e" d="M 422 0  L 422 3319  L 928 3319  L 928 2847  Q 1294 3394 1984 3394  Q 2284 3394 2536 3286  Q 2788 3178 2913 3003  Q 3038 2828 3088 2588  Q 3119 2431 3119 2041  L 3119 0  L 2556 0  L 2556 2019  Q 2556 2363 2490 2533  Q 2425 2703 2258 2804  Q 2091 2906 1866 2906  Q 1506 2906 1245 2678  Q 984 2450 984 1813  L 984 0  L 422 0  z " transform="scale(0.015625)"/>
      <path id="ArialMT-64" d="M 2575 0  L 2575 419  Q 2259 -75 1647 -75  Q 1250 -75 917 144  Q 584 363 401 755  Q 219 1147 219 1656  Q 219 2153 384 2558  Q 550 2963 881 3178  Q 1213 3394 1622 3394  Q 1922 3394 2156 3267  Q 2391 3141 2538 2938  L 2538 4581  L 3097 4581  L 3097 0  L 2575 0  z M 797 1656  Q 797 1019 1065 703  Q 1334 388 1700 388  Q 2069 388 2326 689  Q 2584 991 2584 1609  Q 2584 2291 2321 2609  Q 2059 2928 1675 2928  Q 1300 2928 1048 2622  Q 797 2316 797 1656  z " transform="scale(0.015625)"/>
      <path id="ArialMT-20" transform="scale(0.015625)"/>
      <path id="ArialMT-76" d="M 1344 0  L 81 3319  L 675 3319  L 1388 1331  Q 1503 1009 1600 663  Q 1675 925 1809 1294  L 2547 3319  L 3125 3319  L 1869 0  L 1344 0  z " transform="scale(0.015625)"/>
      <path id="ArialMT-6f" d="M 213 1659  Q 213 2581 725 3025  Q 1153 3394 1769 3394  Q 2453 3394 2887 2945  Q 3322 2497 3322 1706  Q 3322 1066 3130 698  Q 2938 331 2570 128  Q 2203 -75 1769 -75  Q 1072 -75 642 372  Q 213 819 213 1659  z M 791 1659  Q 791 1022 1069 705  Q 1347 388 1769 388  Q 2188 388 2466 706  Q 2744 1025 2744 1678  Q 2744 2294 2464 2611  Q 2184 2928 1769 2928  Q 1347 2928 1069 2612  Q 791 2297 791 1659  z " transform="scale(0.015625)"/>
     </defs>
     <use xlink:href="#ArialMT-53"/>
     <use xlink:href="#ArialMT-74" x="66.699219"/>
     <use xlink:href="#ArialMT-61" x="94.482422"/>
     <use xlink:href="#ArialMT-6e" x="150.097656"/>
     <use xlink:href="#ArialMT-64" x="205.712891"/>
     <use xlink:href="#ArialMT-61" x="261.328125"/>
     <use xlink:href="#ArialMT-72" x="316.943359"/>
     <use xlink:href="#ArialMT-64" x="350.244141"/>
     <use xlink:href="#ArialMT-20" x="405.859375"/>
     <use xlink:href="#ArialMT-64" x="433.642578"/>
     <use xlink:href="#ArialMT-65" x="489.257812"/>
     <use xlink:href="#ArialMT-76" x="544.873047"/>
     <use xlink:href="#ArialMT-69" x="594.873047"/>
     <use xlink:href="#ArialMT-61" x="617.089844"/>
     <use xlink:href="#ArialMT-74" x="672.705078"/>
     <use xlink:href="#ArialMT-69" x="700.488281"/>
     <use xlink:href="#ArialMT-6f" x="722.705078"/>
     <use xlink:href="#ArialMT-6e" x="778.320312"/>
    </g>
   </g>
   <g id="text_3">
    <!-- errorbar=("sd", scale) -->
    <g style="fill: #262626" transform="translate(40.633623 127.969619) scale(0.18 -0.18)">
     <defs>
      <path id="CourierNewPSMT-65" d="M 3341 1291  L 666 1291  Q 734 781 1092 470  Q 1450 159 1978 159  Q 2272 159 2594 256  Q 2916 353 3119 513  Q 3178 559 3222 559  Q 3272 559 3309 520  Q 3347 481 3347 428  Q 3347 375 3297 325  Q 3147 169 2764 33  Q 2381 -103 1978 -103  Q 1303 -103 851 339  Q 400 781 400 1409  Q 400 1981 823 2390  Q 1247 2800 1872 2800  Q 2516 2800 2931 2379  Q 3347 1959 3341 1291  z M 3075 1556  Q 2997 1991 2664 2262  Q 2331 2534 1872 2534  Q 1413 2534 1081 2265  Q 750 1997 669 1556  L 3075 1556  z " transform="scale(0.015625)"/>
      <path id="CourierNewPSMT-72" d="M 1606 2706  L 1606 2044  Q 2119 2506 2373 2639  Q 2628 2772 2844 2772  Q 3078 2772 3279 2614  Q 3481 2456 3481 2375  Q 3481 2316 3442 2277  Q 3403 2238 3344 2238  Q 3313 2238 3291 2248  Q 3269 2259 3209 2319  Q 3100 2428 3019 2468  Q 2938 2509 2859 2509  Q 2688 2509 2445 2371  Q 2203 2234 1606 1700  L 1606 263  L 2769 263  Q 2866 263 2906 227  Q 2947 191 2947 131  Q 2947 75 2906 37  Q 2866 0 2769 0  L 709 0  Q 616 0 575 36  Q 534 72 534 128  Q 534 181 573 217  Q 613 253 709 253  L 1344 253  L 1344 2441  L 859 2441  Q 766 2441 725 2478  Q 684 2516 684 2575  Q 684 2631 723 2668  Q 763 2706 859 2706  L 1606 2706  z " transform="scale(0.015625)"/>
      <path id="CourierNewPSMT-6f" d="M 3388 1347  Q 3388 747 2958 322  Q 2528 -103 1922 -103  Q 1309 -103 881 323  Q 453 750 453 1347  Q 453 1947 881 2373  Q 1309 2800 1922 2800  Q 2528 2800 2958 2375  Q 3388 1950 3388 1347  z M 3122 1347  Q 3122 1841 2770 2187  Q 2419 2534 1919 2534  Q 1419 2534 1067 2186  Q 716 1838 716 1347  Q 716 859 1067 509  Q 1419 159 1919 159  Q 2419 159 2770 507  Q 3122 856 3122 1347  z " transform="scale(0.015625)"/>
      <path id="CourierNewPSMT-62" d="M 931 3922  L 931 2181  Q 1406 2800 2078 2800  Q 2653 2800 3062 2383  Q 3472 1966 3472 1359  Q 3472 747 3058 322  Q 2644 -103 2078 -103  Q 1391 -103 931 516  L 931 0  L 316 0  Q 222 0 181 37  Q 141 75 141 131  Q 141 191 181 227  Q 222 263 316 263  L 669 263  L 669 3656  L 316 3656  Q 222 3656 181 3693  Q 141 3731 141 3791  Q 141 3847 181 3884  Q 222 3922 316 3922  L 931 3922  z M 3209 1347  Q 3209 1844 2868 2189  Q 2528 2534 2072 2534  Q 1616 2534 1275 2189  Q 934 1844 934 1347  Q 934 850 1275 504  Q 1616 159 2072 159  Q 2528 159 2868 504  Q 3209 850 3209 1347  z " transform="scale(0.015625)"/>
      <path id="CourierNewPSMT-61" d="M 2675 0  L 2675 378  Q 2103 -103 1453 -103  Q 981 -103 715 136  Q 450 375 450 722  Q 450 1103 800 1387  Q 1150 1672 1822 1672  Q 2003 1672 2215 1648  Q 2428 1625 2675 1575  L 2675 2000  Q 2675 2216 2475 2375  Q 2275 2534 1875 2534  Q 1569 2534 1016 2356  Q 916 2325 888 2325  Q 838 2325 802 2362  Q 766 2400 766 2456  Q 766 2509 797 2541  Q 841 2588 1150 2669  Q 1638 2800 1888 2800  Q 2384 2800 2662 2554  Q 2941 2309 2941 2000  L 2941 263  L 3291 263  Q 3388 263 3428 227  Q 3469 191 3469 131  Q 3469 75 3428 37  Q 3388 0 3291 0  L 2675 0  z M 2675 1306  Q 2491 1359 2284 1384  Q 2078 1409 1850 1409  Q 1278 1409 956 1163  Q 713 978 713 722  Q 713 484 898 321  Q 1084 159 1441 159  Q 1781 159 2073 295  Q 2366 431 2675 728  L 2675 1306  z " transform="scale(0.015625)"/>
      <path id="CourierNewPSMT-3d" d="M 3353 2172  L 491 2172  Q 397 2172 356 2209  Q 316 2247 316 2306  Q 316 2363 356 2400  Q 397 2438 491 2438  L 3353 2438  Q 3447 2438 3487 2400  Q 3528 2363 3528 2303  Q 3528 2247 3487 2209  Q 3447 2172 3353 2172  z M 3353 1231  L 491 1231  Q 397 1231 356 1267  Q 316 1303 316 1363  Q 316 1422 356 1458  Q 397 1494 491 1494  L 3353 1494  Q 3447 1494 3487 1458  Q 3528 1422 3528 1363  Q 3528 1303 3487 1267  Q 3447 1231 3353 1231  z " transform="scale(0.015625)"/>
      <path id="CourierNewPSMT-28" d="M 1891 1556  Q 1891 1916 1984 2319  Q 2078 2722 2343 3250  Q 2609 3778 2731 3888  Q 2769 3922 2813 3922  Q 2869 3922 2908 3884  Q 2947 3847 2947 3794  Q 2947 3763 2925 3725  Q 2581 3094 2434 2581  Q 2288 2069 2288 1556  Q 2288 1041 2434 528  Q 2581 16 2925 -613  Q 2947 -650 2947 -681  Q 2947 -734 2908 -773  Q 2869 -813 2813 -813  Q 2769 -813 2731 -778  Q 2616 -672 2353 -156  Q 2091 359 1991 756  Q 1891 1153 1891 1556  z " transform="scale(0.015625)"/>
      <path id="CourierNewPSMT-22" d="M 831 3856  L 1663 3856  L 1444 2338  Q 1425 2219 1375 2170  Q 1325 2122 1247 2122  Q 1169 2122 1119 2170  Q 1069 2219 1050 2338  L 831 3856  z M 2172 3856  L 3003 3856  L 2784 2338  Q 2766 2219 2716 2170  Q 2666 2122 2591 2122  Q 2509 2122 2459 2170  Q 2409 2219 2394 2338  L 2172 3856  z " transform="scale(0.015625)"/>
      <path id="CourierNewPSMT-73" d="M 2788 2534  Q 2788 2625 2825 2665  Q 2863 2706 2919 2706  Q 2978 2706 3015 2665  Q 3053 2625 3053 2528  L 3053 2078  Q 3053 1984 3015 1943  Q 2978 1903 2919 1903  Q 2866 1903 2830 1937  Q 2794 1972 2788 2050  Q 2769 2238 2594 2359  Q 2338 2534 1916 2534  Q 1475 2534 1231 2356  Q 1047 2222 1047 2056  Q 1047 1869 1266 1744  Q 1416 1656 1834 1609  Q 2381 1550 2594 1475  Q 2897 1366 3045 1172  Q 3194 978 3194 753  Q 3194 419 2872 158  Q 2550 -103 1928 -103  Q 1306 -103 909 213  Q 909 106 896 75  Q 884 44 851 22  Q 819 0 778 0  Q 722 0 684 40  Q 647 81 647 175  L 647 716  Q 647 809 683 850  Q 719 891 778 891  Q 834 891 873 852  Q 913 813 913 747  Q 913 603 984 506  Q 1094 356 1333 257  Q 1572 159 1919 159  Q 2431 159 2681 350  Q 2931 541 2931 753  Q 2931 997 2678 1144  Q 2422 1291 1933 1341  Q 1444 1391 1231 1472  Q 1019 1553 900 1715  Q 781 1878 781 2066  Q 781 2403 1112 2601  Q 1444 2800 1903 2800  Q 2447 2800 2788 2534  z " transform="scale(0.015625)"/>
      <path id="CourierNewPSMT-64" d="M 3206 3922  L 3206 263  L 3556 263  Q 3653 263 3693 227  Q 3734 191 3734 131  Q 3734 75 3693 37  Q 3653 0 3556 0  L 2941 0  L 2941 522  Q 2484 -103 1781 -103  Q 1425 -103 1098 86  Q 772 275 583 625  Q 394 975 394 1347  Q 394 1722 583 2070  Q 772 2419 1098 2609  Q 1425 2800 1784 2800  Q 2472 2800 2941 2175  L 2941 3656  L 2591 3656  Q 2494 3656 2453 3693  Q 2413 3731 2413 3791  Q 2413 3847 2453 3884  Q 2494 3922 2591 3922  L 3206 3922  z M 2941 1347  Q 2941 1847 2603 2190  Q 2266 2534 1800 2534  Q 1331 2534 993 2190  Q 656 1847 656 1347  Q 656 850 993 504  Q 1331 159 1800 159  Q 2266 159 2603 504  Q 2941 850 2941 1347  z " transform="scale(0.015625)"/>
      <path id="CourierNewPSMT-2c" d="M 1400 944  L 2253 944  L 1325 -781  Q 1241 -938 1122 -938  Q 1044 -938 989 -883  Q 934 -828 934 -750  Q 934 -719 944 -681  L 1400 944  z " transform="scale(0.015625)"/>
      <path id="CourierNewPSMT-20" transform="scale(0.015625)"/>
      <path id="CourierNewPSMT-63" d="M 3016 2441  L 3016 2528  Q 3016 2625 3053 2665  Q 3091 2706 3147 2706  Q 3206 2706 3243 2665  Q 3281 2625 3281 2528  L 3281 1934  Q 3278 1838 3242 1797  Q 3206 1756 3147 1756  Q 3094 1756 3058 1792  Q 3022 1828 3016 1913  Q 2997 2134 2723 2334  Q 2450 2534 1988 2534  Q 1403 2534 1100 2168  Q 797 1803 797 1331  Q 797 822 1131 490  Q 1466 159 1997 159  Q 2303 159 2620 271  Q 2938 384 3194 634  Q 3259 697 3309 697  Q 3363 697 3398 661  Q 3434 625 3434 572  Q 3434 438 3119 231  Q 2609 -103 1984 -103  Q 1350 -103 942 301  Q 534 706 534 1328  Q 534 1963 951 2381  Q 1369 2800 2003 2800  Q 2606 2800 3016 2441  z " transform="scale(0.015625)"/>
      <path id="CourierNewPSMT-6c" d="M 2053 3922  L 2053 263  L 3084 263  Q 3181 263 3222 227  Q 3263 191 3263 131  Q 3263 75 3222 37  Q 3181 0 3084 0  L 759 0  Q 666 0 625 37  Q 584 75 584 131  Q 584 191 625 227  Q 666 263 759 263  L 1791 263  L 1791 3656  L 1034 3656  Q 941 3656 898 3693  Q 856 3731 856 3791  Q 856 3847 897 3884  Q 938 3922 1034 3922  L 2053 3922  z " transform="scale(0.015625)"/>
      <path id="CourierNewPSMT-29" d="M 1997 1553  Q 1997 1194 1903 792  Q 1809 391 1543 -139  Q 1278 -669 1156 -775  Q 1119 -813 1075 -813  Q 1019 -813 980 -773  Q 941 -734 941 -681  Q 941 -650 963 -613  Q 1306 16 1453 528  Q 1600 1041 1600 1553  Q 1600 2069 1453 2581  Q 1306 3094 963 3725  Q 941 3763 941 3794  Q 941 3847 980 3884  Q 1019 3922 1075 3922  Q 1119 3922 1156 3888  Q 1272 3781 1534 3265  Q 1797 2750 1897 2353  Q 1997 1956 1997 1553  z " transform="scale(0.015625)"/>
     </defs>
     <use xlink:href="#CourierNewPSMT-65"/>
     <use xlink:href="#CourierNewPSMT-72" x="60.009766"/>
     <use xlink:href="#CourierNewPSMT-72" x="120.019531"/>
     <use xlink:href="#CourierNewPSMT-6f" x="180.029297"/>
     <use xlink:href="#CourierNewPSMT-72" x="240.039062"/>
     <use xlink:href="#CourierNewPSMT-62" x="300.048828"/>
     <use xlink:href="#CourierNewPSMT-61" x="360.058594"/>
     <use xlink:href="#CourierNewPSMT-72" x="420.068359"/>
     <use xlink:href="#CourierNewPSMT-3d" x="480.078125"/>
     <use xlink:href="#CourierNewPSMT-28" x="540.087891"/>
     <use xlink:href="#CourierNewPSMT-22" x="600.097656"/>
     <use xlink:href="#CourierNewPSMT-73" x="660.107422"/>
     <use xlink:href="#CourierNewPSMT-64" x="720.117188"/>
     <use xlink:href="#CourierNewPSMT-22" x="780.126953"/>
     <use xlink:href="#CourierNewPSMT-2c" x="840.136719"/>
     <use xlink:href="#CourierNewPSMT-20" x="900.146484"/>
     <use xlink:href="#CourierNewPSMT-73" x="960.15625"/>
     <use xlink:href="#CourierNewPSMT-63" x="1020.166016"/>
     <use xlink:href="#CourierNewPSMT-61" x="1080.175781"/>
     <use xlink:href="#CourierNewPSMT-6c" x="1140.185547"/>
     <use xlink:href="#CourierNewPSMT-65" x="1200.195312"/>
     <use xlink:href="#CourierNewPSMT-29" x="1260.205078"/>
    </g>
   </g>
   <g id="text_4">
    <!-- Spread -->
    <g style="fill: #262626" transform="translate(130.445185 25.92) scale(0.18 -0.18)">
     <defs>
      <path id="ArialMT-70" d="M 422 -1272  L 422 3319  L 934 3319  L 934 2888  Q 1116 3141 1344 3267  Q 1572 3394 1897 3394  Q 2322 3394 2647 3175  Q 2972 2956 3137 2557  Q 3303 2159 3303 1684  Q 3303 1175 3120 767  Q 2938 359 2589 142  Q 2241 -75 1856 -75  Q 1575 -75 1351 44  Q 1128 163 984 344  L 984 -1272  L 422 -1272  z M 931 1641  Q 931 1000 1190 694  Q 1450 388 1819 388  Q 2194 388 2461 705  Q 2728 1022 2728 1688  Q 2728 2322 2467 2637  Q 2206 2953 1844 2953  Q 1484 2953 1207 2617  Q 931 2281 931 1641  z " transform="scale(0.015625)"/>
     </defs>
     <use xlink:href="#ArialMT-53"/>
     <use xlink:href="#ArialMT-70" x="66.699219"/>
     <use xlink:href="#ArialMT-72" x="122.314453"/>
     <use xlink:href="#ArialMT-65" x="155.615234"/>
     <use xlink:href="#ArialMT-61" x="211.230469"/>
     <use xlink:href="#ArialMT-64" x="266.845703"/>
    </g>
   </g>
  </g>
  <g id="axes_2">
   <g id="patch_7">
    <path d="M 293.805425 185.637073  L 545.694545 185.637073  L 545.694545 31.92  L 293.805425 31.92  z " style="fill: #55a868; fill-opacity: 0.25"/>
   </g>
   <g id="matplotlib.axis_3"/>
   <g id="matplotlib.axis_4"/>
   <g id="patch_8">
    <path d="M 293.805425 185.637073  L 293.805425 31.92  " style="fill: none; stroke: #ffffff; stroke-width: 1.25; stroke-linejoin: miter; stroke-linecap: square"/>
   </g>
   <g id="patch_9">
    <path d="M 545.694545 185.637073  L 545.694545 31.92  " style="fill: none; stroke: #ffffff; stroke-width: 1.25; stroke-linejoin: miter; stroke-linecap: square"/>
   </g>
   <g id="patch_10">
    <path d="M 293.805425 185.637073  L 545.694545 185.637073  " style="fill: none; stroke: #ffffff; stroke-width: 1.25; stroke-linejoin: miter; stroke-linecap: square"/>
   </g>
   <g id="patch_11">
    <path d="M 293.805425 31.92  L 545.694545 31.92  " style="fill: none; stroke: #ffffff; stroke-width: 1.25; stroke-linejoin: miter; stroke-linecap: square"/>
   </g>
   <g id="text_5">
    <!-- Standard error -->
    <g style="fill: #262626" transform="translate(361.725298 98.060111) scale(0.18 -0.18)">
     <use xlink:href="#ArialMT-53"/>
     <use xlink:href="#ArialMT-74" x="66.699219"/>
     <use xlink:href="#ArialMT-61" x="94.482422"/>
     <use xlink:href="#ArialMT-6e" x="150.097656"/>
     <use xlink:href="#ArialMT-64" x="205.712891"/>
     <use xlink:href="#ArialMT-61" x="261.328125"/>
     <use xlink:href="#ArialMT-72" x="316.943359"/>
     <use xlink:href="#ArialMT-64" x="350.244141"/>
     <use xlink:href="#ArialMT-20" x="405.859375"/>
     <use xlink:href="#ArialMT-65" x="433.642578"/>
     <use xlink:href="#ArialMT-72" x="489.257812"/>
     <use xlink:href="#ArialMT-72" x="522.558594"/>
     <use xlink:href="#ArialMT-6f" x="555.859375"/>
     <use xlink:href="#ArialMT-72" x="611.474609"/>
    </g>
   </g>
   <g id="text_6">
    <!-- errorbar=("se", scale) -->
    <g style="fill: #262626" transform="translate(300.919048 127.969619) scale(0.18 -0.18)">
     <use xlink:href="#CourierNewPSMT-65"/>
     <use xlink:href="#CourierNewPSMT-72" x="60.009766"/>
     <use xlink:href="#CourierNewPSMT-72" x="120.019531"/>
     <use xlink:href="#CourierNewPSMT-6f" x="180.029297"/>
     <use xlink:href="#CourierNewPSMT-72" x="240.039062"/>
     <use xlink:href="#CourierNewPSMT-62" x="300.048828"/>
     <use xlink:href="#CourierNewPSMT-61" x="360.058594"/>
     <use xlink:href="#CourierNewPSMT-72" x="420.068359"/>
     <use xlink:href="#CourierNewPSMT-3d" x="480.078125"/>
     <use xlink:href="#CourierNewPSMT-28" x="540.087891"/>
     <use xlink:href="#CourierNewPSMT-22" x="600.097656"/>
     <use xlink:href="#CourierNewPSMT-73" x="660.107422"/>
     <use xlink:href="#CourierNewPSMT-65" x="720.117188"/>
     <use xlink:href="#CourierNewPSMT-22" x="780.126953"/>
     <use xlink:href="#CourierNewPSMT-2c" x="840.136719"/>
     <use xlink:href="#CourierNewPSMT-20" x="900.146484"/>
     <use xlink:href="#CourierNewPSMT-73" x="960.15625"/>
     <use xlink:href="#CourierNewPSMT-63" x="1020.166016"/>
     <use xlink:href="#CourierNewPSMT-61" x="1080.175781"/>
     <use xlink:href="#CourierNewPSMT-6c" x="1140.185547"/>
     <use xlink:href="#CourierNewPSMT-65" x="1200.195312"/>
     <use xlink:href="#CourierNewPSMT-29" x="1260.205078"/>
    </g>
   </g>
   <g id="text_7">
    <!-- Uncertainty -->
    <g style="fill: #262626" transform="translate(374.233891 25.92) scale(0.18 -0.18)">
     <defs>
      <path id="ArialMT-55" d="M 3500 4581  L 4106 4581  L 4106 1934  Q 4106 1244 3950 837  Q 3794 431 3386 176  Q 2978 -78 2316 -78  Q 1672 -78 1262 144  Q 853 366 678 786  Q 503 1206 503 1934  L 503 4581  L 1109 4581  L 1109 1938  Q 1109 1341 1220 1058  Q 1331 775 1601 622  Q 1872 469 2263 469  Q 2931 469 3215 772  Q 3500 1075 3500 1938  L 3500 4581  z " transform="scale(0.015625)"/>
      <path id="ArialMT-79" d="M 397 -1278  L 334 -750  Q 519 -800 656 -800  Q 844 -800 956 -737  Q 1069 -675 1141 -563  Q 1194 -478 1313 -144  Q 1328 -97 1363 -6  L 103 3319  L 709 3319  L 1400 1397  Q 1534 1031 1641 628  Q 1738 1016 1872 1384  L 2581 3319  L 3144 3319  L 1881 -56  Q 1678 -603 1566 -809  Q 1416 -1088 1222 -1217  Q 1028 -1347 759 -1347  Q 597 -1347 397 -1278  z " transform="scale(0.015625)"/>
     </defs>
     <use xlink:href="#ArialMT-55"/>
     <use xlink:href="#ArialMT-6e" x="72.216797"/>
     <use xlink:href="#ArialMT-63" x="127.832031"/>
     <use xlink:href="#ArialMT-65" x="177.832031"/>
     <use xlink:href="#ArialMT-72" x="233.447266"/>
     <use xlink:href="#ArialMT-74" x="266.748047"/>
     <use xlink:href="#ArialMT-61" x="294.53125"/>
     <use xlink:href="#ArialMT-69" x="350.146484"/>
     <use xlink:href="#ArialMT-6e" x="372.363281"/>
     <use xlink:href="#ArialMT-74" x="427.978516"/>
     <use xlink:href="#ArialMT-79" x="455.761719"/>
    </g>
   </g>
  </g>
  <g id="axes_3">
   <g id="patch_12">
    <path d="M 33.52 347.04  L 285.409121 347.04  L 285.409121 193.322927  L 33.52 193.322927  z " style="fill: #c44e52; fill-opacity: 0.25"/>
   </g>
   <g id="matplotlib.axis_5"/>
   <g id="matplotlib.axis_6">
    <g id="text_8">
     <!-- Nonparametric -->
     <g style="fill: #262626" transform="translate(25.9425 329.20037) rotate(-90) scale(0.18 -0.18)">
      <defs>
       <path id="ArialMT-4e" d="M 488 0  L 488 4581  L 1109 4581  L 3516 984  L 3516 4581  L 4097 4581  L 4097 0  L 3475 0  L 1069 3600  L 1069 0  L 488 0  z " transform="scale(0.015625)"/>
      </defs>
      <use xlink:href="#ArialMT-4e"/>
      <use xlink:href="#ArialMT-6f" x="72.216797"/>
      <use xlink:href="#ArialMT-6e" x="127.832031"/>
      <use xlink:href="#ArialMT-70" x="183.447266"/>
      <use xlink:href="#ArialMT-61" x="239.0625"/>
      <use xlink:href="#ArialMT-72" x="294.677734"/>
      <use xlink:href="#ArialMT-61" x="327.978516"/>
      <use xlink:href="#ArialMT-6d" x="383.59375"/>
      <use xlink:href="#ArialMT-65" x="466.894531"/>
      <use xlink:href="#ArialMT-74" x="522.509766"/>
      <use xlink:href="#ArialMT-72" x="550.292969"/>
      <use xlink:href="#ArialMT-69" x="583.59375"/>
      <use xlink:href="#ArialMT-63" x="605.810547"/>
     </g>
    </g>
   </g>
   <g id="patch_13">
    <path d="M 33.52 347.04  L 33.52 193.322927  " style="fill: none; stroke: #ffffff; stroke-width: 1.25; stroke-linejoin: miter; stroke-linecap: square"/>
   </g>
   <g id="patch_14">
    <path d="M 285.409121 347.04  L 285.409121 193.322927  " style="fill: none; stroke: #ffffff; stroke-width: 1.25; stroke-linejoin: miter; stroke-linecap: square"/>
   </g>
   <g id="patch_15">
    <path d="M 33.52 347.04  L 285.409121 347.04  " style="fill: none; stroke: #ffffff; stroke-width: 1.25; stroke-linejoin: miter; stroke-linecap: square"/>
   </g>
   <g id="patch_16">
    <path d="M 33.52 193.322927  L 285.409121 193.322927  " style="fill: none; stroke: #ffffff; stroke-width: 1.25; stroke-linejoin: miter; stroke-linecap: square"/>
   </g>
   <g id="text_9">
    <!-- Percentile interval -->
    <g style="fill: #262626" transform="translate(87.934248 259.463037) scale(0.18 -0.18)">
     <defs>
      <path id="ArialMT-6c" d="M 409 0  L 409 4581  L 972 4581  L 972 0  L 409 0  z " transform="scale(0.015625)"/>
     </defs>
     <use xlink:href="#ArialMT-50"/>
     <use xlink:href="#ArialMT-65" x="66.699219"/>
     <use xlink:href="#ArialMT-72" x="122.314453"/>
     <use xlink:href="#ArialMT-63" x="155.615234"/>
     <use xlink:href="#ArialMT-65" x="205.615234"/>
     <use xlink:href="#ArialMT-6e" x="261.230469"/>
     <use xlink:href="#ArialMT-74" x="316.845703"/>
     <use xlink:href="#ArialMT-69" x="344.628906"/>
     <use xlink:href="#ArialMT-6c" x="366.845703"/>
     <use xlink:href="#ArialMT-65" x="389.0625"/>
     <use xlink:href="#ArialMT-20" x="444.677734"/>
     <use xlink:href="#ArialMT-69" x="472.460938"/>
     <use xlink:href="#ArialMT-6e" x="494.677734"/>
     <use xlink:href="#ArialMT-74" x="550.292969"/>
     <use xlink:href="#ArialMT-65" x="578.076172"/>
     <use xlink:href="#ArialMT-72" x="633.691406"/>
     <use xlink:href="#ArialMT-76" x="666.992188"/>
     <use xlink:href="#ArialMT-61" x="716.992188"/>
     <use xlink:href="#ArialMT-6c" x="772.607422"/>
    </g>
   </g>
   <g id="text_10">
    <!-- errorbar=("pi", width) -->
    <g style="fill: #262626" transform="translate(40.633623 289.556764) scale(0.18 -0.18)">
     <defs>
      <path id="CourierNewPSMT-70" d="M 931 2706  L 931 2228  Q 1166 2513 1434 2656  Q 1703 2800 2069 2800  Q 2456 2800 2784 2619  Q 3113 2438 3292 2114  Q 3472 1791 3472 1434  Q 3472 869 3067 467  Q 2663 66 2072 66  Q 1369 66 931 638  L 931 -944  L 1569 -944  Q 1663 -944 1703 -980  Q 1744 -1016 1744 -1075  Q 1744 -1131 1703 -1168  Q 1663 -1206 1569 -1206  L 316 -1206  Q 222 -1206 181 -1170  Q 141 -1134 141 -1075  Q 141 -1016 181 -980  Q 222 -944 316 -944  L 669 -944  L 669 2441  L 316 2441  Q 222 2441 181 2478  Q 141 2516 141 2575  Q 141 2631 181 2668  Q 222 2706 316 2706  L 931 2706  z M 3206 1434  Q 3206 1888 2876 2211  Q 2547 2534 2072 2534  Q 1594 2534 1262 2209  Q 931 1884 931 1434  Q 931 981 1262 656  Q 1594 331 2072 331  Q 2544 331 2875 654  Q 3206 978 3206 1434  z " transform="scale(0.015625)"/>
      <path id="CourierNewPSMT-69" d="M 2050 4053  L 2050 3375  L 1663 3375  L 1663 4053  L 2050 4053  z M 2059 2706  L 2059 263  L 3091 263  Q 3188 263 3228 227  Q 3269 191 3269 131  Q 3269 75 3228 37  Q 3188 0 3091 0  L 766 0  Q 672 0 631 37  Q 591 75 591 131  Q 591 191 631 227  Q 672 263 766 263  L 1797 263  L 1797 2441  L 1031 2441  Q 938 2441 895 2478  Q 853 2516 853 2572  Q 853 2631 893 2668  Q 934 2706 1031 2706  L 2059 2706  z " transform="scale(0.015625)"/>
      <path id="CourierNewPSMT-77" d="M 2825 0  L 2500 -3  L 1922 1684  L 1347 -3  L 1022 0  L 478 2441  L 350 2441  Q 256 2441 215 2478  Q 175 2516 175 2575  Q 175 2631 215 2668  Q 256 2706 350 2706  L 1072 2706  Q 1166 2706 1206 2668  Q 1247 2631 1247 2572  Q 1247 2516 1206 2478  Q 1166 2441 1072 2441  L 738 2441  L 1203 359  L 1763 2022  L 2075 2022  L 2650 359  L 3097 2441  L 2766 2441  Q 2672 2441 2630 2478  Q 2588 2516 2588 2575  Q 2588 2631 2628 2668  Q 2669 2706 2766 2706  L 3484 2706  Q 3581 2706 3622 2668  Q 3663 2631 3663 2572  Q 3663 2516 3622 2478  Q 3581 2441 3484 2441  L 3359 2441  L 2825 0  z " transform="scale(0.015625)"/>
      <path id="CourierNewPSMT-74" d="M 1381 2706  L 2806 2706  Q 2900 2706 2940 2668  Q 2981 2631 2981 2572  Q 2981 2516 2940 2478  Q 2900 2441 2806 2441  L 1381 2441  L 1381 694  Q 1381 466 1564 312  Q 1747 159 2100 159  Q 2366 159 2675 239  Q 2984 319 3156 419  Q 3219 459 3259 459  Q 3309 459 3346 420  Q 3384 381 3384 328  Q 3384 281 3344 241  Q 3244 138 2858 17  Q 2472 -103 2119 -103  Q 1659 -103 1387 112  Q 1116 328 1116 694  L 1116 2441  L 631 2441  Q 538 2441 497 2478  Q 456 2516 456 2575  Q 456 2631 497 2668  Q 538 2706 631 2706  L 1116 2706  L 1116 3481  Q 1116 3575 1153 3615  Q 1191 3656 1247 3656  Q 1306 3656 1343 3615  Q 1381 3575 1381 3481  L 1381 2706  z " transform="scale(0.015625)"/>
      <path id="CourierNewPSMT-68" d="M 1056 3922  L 1056 2306  Q 1306 2578 1536 2689  Q 1766 2800 2050 2800  Q 2356 2800 2570 2692  Q 2784 2584 2928 2361  Q 3072 2138 3072 1891  L 3072 263  L 3366 263  Q 3463 263 3502 227  Q 3541 191 3541 131  Q 3541 75 3502 37  Q 3463 0 3366 0  L 2513 0  Q 2416 0 2375 37  Q 2334 75 2334 131  Q 2334 191 2375 227  Q 2416 263 2513 263  L 2806 263  L 2806 1872  Q 2806 2156 2601 2347  Q 2397 2538 2031 2538  Q 1744 2538 1541 2397  Q 1394 2297 1056 1925  L 1056 263  L 1353 263  Q 1447 263 1487 227  Q 1528 191 1528 131  Q 1528 75 1487 37  Q 1447 0 1353 0  L 497 0  Q 403 0 362 37  Q 322 75 322 131  Q 322 191 362 227  Q 403 263 497 263  L 794 263  L 794 3656  L 441 3656  Q 347 3656 306 3693  Q 266 3731 266 3791  Q 266 3847 306 3884  Q 347 3922 441 3922  L 1056 3922  z " transform="scale(0.015625)"/>
     </defs>
     <use xlink:href="#CourierNewPSMT-65"/>
     <use xlink:href="#CourierNewPSMT-72" x="60.009766"/>
     <use xlink:href="#CourierNewPSMT-72" x="120.019531"/>
     <use xlink:href="#CourierNewPSMT-6f" x="180.029297"/>
     <use xlink:href="#CourierNewPSMT-72" x="240.039062"/>
     <use xlink:href="#CourierNewPSMT-62" x="300.048828"/>
     <use xlink:href="#CourierNewPSMT-61" x="360.058594"/>
     <use xlink:href="#CourierNewPSMT-72" x="420.068359"/>
     <use xlink:href="#CourierNewPSMT-3d" x="480.078125"/>
     <use xlink:href="#CourierNewPSMT-28" x="540.087891"/>
     <use xlink:href="#CourierNewPSMT-22" x="600.097656"/>
     <use xlink:href="#CourierNewPSMT-70" x="660.107422"/>
     <use xlink:href="#CourierNewPSMT-69" x="720.117188"/>
     <use xlink:href="#CourierNewPSMT-22" x="780.126953"/>
     <use xlink:href="#CourierNewPSMT-2c" x="840.136719"/>
     <use xlink:href="#CourierNewPSMT-20" x="900.146484"/>
     <use xlink:href="#CourierNewPSMT-77" x="960.15625"/>
     <use xlink:href="#CourierNewPSMT-69" x="1020.166016"/>
     <use xlink:href="#CourierNewPSMT-64" x="1080.175781"/>
     <use xlink:href="#CourierNewPSMT-74" x="1140.185547"/>
     <use xlink:href="#CourierNewPSMT-68" x="1200.195312"/>
     <use xlink:href="#CourierNewPSMT-29" x="1260.205078"/>
    </g>
   </g>
  </g>
  <g id="axes_4">
   <g id="patch_17">
    <path d="M 293.805425 347.04  L 545.694545 347.04  L 545.694545 193.322927  L 293.805425 193.322927  z " style="fill: #dd8452; fill-opacity: 0.25"/>
   </g>
   <g id="matplotlib.axis_7"/>
   <g id="matplotlib.axis_8"/>
   <g id="patch_18">
    <path d="M 293.805425 347.04  L 293.805425 193.322927  " style="fill: none; stroke: #ffffff; stroke-width: 1.25; stroke-linejoin: miter; stroke-linecap: square"/>
   </g>
   <g id="patch_19">
    <path d="M 545.694545 347.04  L 545.694545 193.322927  " style="fill: none; stroke: #ffffff; stroke-width: 1.25; stroke-linejoin: miter; stroke-linecap: square"/>
   </g>
   <g id="patch_20">
    <path d="M 293.805425 347.04  L 545.694545 347.04  " style="fill: none; stroke: #ffffff; stroke-width: 1.25; stroke-linejoin: miter; stroke-linecap: square"/>
   </g>
   <g id="patch_21">
    <path d="M 293.805425 193.322927  L 545.694545 193.322927  " style="fill: none; stroke: #ffffff; stroke-width: 1.25; stroke-linejoin: miter; stroke-linecap: square"/>
   </g>
   <g id="text_11">
    <!-- Confidence interval -->
    <g style="fill: #262626" transform="translate(342.709985 259.463037) scale(0.18 -0.18)">
     <defs>
      <path id="ArialMT-43" d="M 3763 1606  L 4369 1453  Q 4178 706 3683 314  Q 3188 -78 2472 -78  Q 1731 -78 1267 223  Q 803 525 561 1097  Q 319 1669 319 2325  Q 319 3041 592 3573  Q 866 4106 1370 4382  Q 1875 4659 2481 4659  Q 3169 4659 3637 4309  Q 4106 3959 4291 3325  L 3694 3184  Q 3534 3684 3231 3912  Q 2928 4141 2469 4141  Q 1941 4141 1586 3887  Q 1231 3634 1087 3207  Q 944 2781 944 2328  Q 944 1744 1114 1308  Q 1284 872 1643 656  Q 2003 441 2422 441  Q 2931 441 3284 734  Q 3638 1028 3763 1606  z " transform="scale(0.015625)"/>
      <path id="ArialMT-66" d="M 556 0  L 556 2881  L 59 2881  L 59 3319  L 556 3319  L 556 3672  Q 556 4006 616 4169  Q 697 4388 901 4523  Q 1106 4659 1475 4659  Q 1713 4659 2000 4603  L 1916 4113  Q 1741 4144 1584 4144  Q 1328 4144 1222 4034  Q 1116 3925 1116 3625  L 1116 3319  L 1763 3319  L 1763 2881  L 1116 2881  L 1116 0  L 556 0  z " transform="scale(0.015625)"/>
     </defs>
     <use xlink:href="#ArialMT-43"/>
     <use xlink:href="#ArialMT-6f" x="72.216797"/>
     <use xlink:href="#ArialMT-6e" x="127.832031"/>
     <use xlink:href="#ArialMT-66" x="183.447266"/>
     <use xlink:href="#ArialMT-69" x="211.230469"/>
     <use xlink:href="#ArialMT-64" x="233.447266"/>
     <use xlink:href="#ArialMT-65" x="289.0625"/>
     <use xlink:href="#ArialMT-6e" x="344.677734"/>
     <use xlink:href="#ArialMT-63" x="400.292969"/>
     <use xlink:href="#ArialMT-65" x="450.292969"/>
     <use xlink:href="#ArialMT-20" x="505.908203"/>
     <use xlink:href="#ArialMT-69" x="533.691406"/>
     <use xlink:href="#ArialMT-6e" x="555.908203"/>
     <use xlink:href="#ArialMT-74" x="611.523438"/>
     <use xlink:href="#ArialMT-65" x="639.306641"/>
     <use xlink:href="#ArialMT-72" x="694.921875"/>
     <use xlink:href="#ArialMT-76" x="728.222656"/>
     <use xlink:href="#ArialMT-61" x="778.222656"/>
     <use xlink:href="#ArialMT-6c" x="833.837891"/>
    </g>
   </g>
   <g id="text_12">
    <!-- errorbar=("ci", width) -->
    <g style="fill: #262626" transform="translate(300.919048 289.372546) scale(0.18 -0.18)">
     <use xlink:href="#CourierNewPSMT-65"/>
     <use xlink:href="#CourierNewPSMT-72" x="60.009766"/>
     <use xlink:href="#CourierNewPSMT-72" x="120.019531"/>
     <use xlink:href="#CourierNewPSMT-6f" x="180.029297"/>
     <use xlink:href="#CourierNewPSMT-72" x="240.039062"/>
     <use xlink:href="#CourierNewPSMT-62" x="300.048828"/>
     <use xlink:href="#CourierNewPSMT-61" x="360.058594"/>
     <use xlink:href="#CourierNewPSMT-72" x="420.068359"/>
     <use xlink:href="#CourierNewPSMT-3d" x="480.078125"/>
     <use xlink:href="#CourierNewPSMT-28" x="540.087891"/>
     <use xlink:href="#CourierNewPSMT-22" x="600.097656"/>
     <use xlink:href="#CourierNewPSMT-63" x="660.107422"/>
     <use xlink:href="#CourierNewPSMT-69" x="720.117188"/>
     <use xlink:href="#CourierNewPSMT-22" x="780.126953"/>
     <use xlink:href="#CourierNewPSMT-2c" x="840.136719"/>
     <use xlink:href="#CourierNewPSMT-20" x="900.146484"/>
     <use xlink:href="#CourierNewPSMT-77" x="960.15625"/>
     <use xlink:href="#CourierNewPSMT-69" x="1020.166016"/>
     <use xlink:href="#CourierNewPSMT-64" x="1080.175781"/>
     <use xlink:href="#CourierNewPSMT-74" x="1140.185547"/>
     <use xlink:href="#CourierNewPSMT-68" x="1200.195312"/>
     <use xlink:href="#CourierNewPSMT-29" x="1260.205078"/>
    </g>
   </g>
  </g>
 </g>
</svg>