<?xml version="1.0" encoding="utf-8" standalone="no"?>
<!DOCTYPE svg PUBLIC "-//W3C//DTD SVG 1.1//EN"
  "http://www.w3.org/Graphics/SVG/1.1/DTD/svg11.dtd">
<svg xmlns:xlink="http://www.w3.org/1999/xlink" width="348.48pt" height="348.48pt" viewBox="0 0 348.48 348.48" xmlns="http://www.w3.org/2000/svg" version="1.1">
 <metadata>
  <rdf:RDF xmlns:dc="http://purl.org/dc/elements/1.1/" xmlns:cc="http://creativecommons.org/ns#" xmlns:rdf="http://www.w3.org/1999/02/22-rdf-syntax-ns#">
   <cc:Work>
    <dc:type rdf:resource="http://purl.org/dc/dcmitype/StillImage"/>
    <dc:date>2023-12-31T16:45:46.728847</dc:date>
    <dc:format>image/svg+xml</dc:format>
    <dc:creator>
     <cc:Agent>
      <dc:title>Matplotlib v3.8.1, https://matplotlib.org/</dc:title>
     </cc:Agent>
    </dc:creator>
   </cc:Work>
  </rdf:RDF>
 </metadata>
 <defs>
  <style type="text/css">*{stroke-linejoin: round; stroke-linecap: butt}</style>
 </defs>
 <g id="figure_1">
  <g id="patch_1">
   <path d="M 0 348.48 
L 348.48 348.48 
L 348.48 0 
L 0 0 
z
" style="fill: #ffffff"/>
  </g>
  <g id="axes_1">
   <g id="patch_2">
    <path d="M 7.2 341.28 
L 341.28 341.28 
L 341.28 7.2 
L 7.2 7.2 
z
" style="fill: #ffffff"/>
   </g>
   <g id="matplotlib.axis_1">
    <g id="xtick_1">
     <g id="line2d_1">
      <path d="M 34.90442 341.28 
L 34.90442 7.2 
" clip-path="url(#pb6eb3dab9c)" style="fill: none; stroke: #cccccc; stroke-linecap: round"/>
     </g>
    </g>
    <g id="xtick_2">
     <g id="line2d_2">
      <path d="M 83.433512 341.28 
L 83.433512 7.2 
" clip-path="url(#pb6eb3dab9c)" style="fill: none; stroke: #cccccc; stroke-linecap: round"/>
     </g>
    </g>
    <g id="xtick_3">
     <g id="line2d_3">
      <path d="M 131.962605 341.28 
L 131.962605 7.2 
" clip-path="url(#pb6eb3dab9c)" style="fill: none; stroke: #cccccc; stroke-linecap: round"/>
     </g>
    </g>
    <g id="xtick_4">
     <g id="line2d_4">
      <path d="M 180.491698 341.28 
L 180.491698 7.2 
" clip-path="url(#pb6eb3dab9c)" style="fill: none; stroke: #cccccc; stroke-linecap: round"/>
     </g>
    </g>
    <g id="xtick_5">
     <g id="line2d_5">
      <path d="M 229.020791 341.28 
L 229.020791 7.2 
" clip-path="url(#pb6eb3dab9c)" style="fill: none; stroke: #cccccc; stroke-linecap: round"/>
     </g>
    </g>
    <g id="xtick_6">
     <g id="line2d_6">
      <path d="M 277.549883 341.28 
L 277.549883 7.2 
" clip-path="url(#pb6eb3dab9c)" style="fill: none; stroke: #cccccc; stroke-linecap: round"/>
     </g>
    </g>
    <g id="xtick_7">
     <g id="line2d_7">
      <path d="M 326.078976 341.28 
L 326.078976 7.2 
" clip-path="url(#pb6eb3dab9c)" style="fill: none; stroke: #cccccc; stroke-linecap: round"/>
     </g>
    </g>
   </g>
   <g id="matplotlib.axis_2">
    <g id="ytick_1"/>
    <g id="ytick_2"/>
    <g id="ytick_3"/>
    <g id="ytick_4"/>
    <g id="ytick_5"/>
    <g id="ytick_6"/>
    <g id="ytick_7"/>
    <g id="ytick_8"/>
   </g>
   <g id="line2d_8">
    <defs>
     <path id="m8922d981aa" d="M 0 2.025 
C 0.537036 2.025 1.052149 1.811633 1.431891 1.431891 
C 1.811633 1.052149 2.025 0.537036 2.025 0 
C 2.025 -0.537036 1.811633 -1.052149 1.431891 -1.431891 
C 1.052149 -1.811633 0.537036 -2.025 0 -2.025 
C -0.537036 -2.025 -1.052149 -1.811633 -1.431891 -1.431891 
C -1.811633 -1.052149 -2.025 -0.537036 -2.025 0 
C -2.025 0.537036 -1.811633 1.052149 -1.431891 1.431891 
C -1.052149 1.811633 -0.537036 2.025 0 2.025 
z
" style="stroke: #417383; stroke-width: 1.51875"/>
    </defs>
    <g clip-path="url(#pb6eb3dab9c)">
     <use xlink:href="#m8922d981aa" x="60.412016" y="320.4" style="fill: #417383; stroke: #417383; stroke-width: 1.51875"/>
    </g>
   </g>
   <g id="line2d_9">
    <path d="M 22.385455 326.664 
L 22.385455 314.136 
M 22.385455 320.4 
L 98.438577 320.4 
M 98.438577 326.664 
L 98.438577 314.136 
" clip-path="url(#pb6eb3dab9c)" style="fill: none; stroke: #417383; stroke-width: 2.025; stroke-linecap: round"/>
   </g>
   <g id="line2d_10">
    <path clip-path="url(#pb6eb3dab9c)" style="fill: none; stroke: #417383; stroke-width: 2.025; stroke-linecap: round"/>
   </g>
   <g id="line2d_11">
    <path clip-path="url(#pb6eb3dab9c)" style="fill: none; stroke: #417383; stroke-width: 2.025; stroke-linecap: round"/>
   </g>
   <g id="line2d_12">
    <path clip-path="url(#pb6eb3dab9c)" style="fill: none; stroke: #417383; stroke-width: 2.025; stroke-linecap: round"/>
   </g>
   <g id="line2d_13">
    <path clip-path="url(#pb6eb3dab9c)" style="fill: none; stroke: #417383; stroke-width: 2.025; stroke-linecap: round"/>
   </g>
   <g id="line2d_14">
    <path clip-path="url(#pb6eb3dab9c)" style="fill: none; stroke: #417383; stroke-width: 2.025; stroke-linecap: round"/>
   </g>
   <g id="line2d_15">
    <path clip-path="url(#pb6eb3dab9c)" style="fill: none; stroke: #417383; stroke-width: 2.025; stroke-linecap: round"/>
   </g>
   <g id="line2d_16">
    <path clip-path="url(#pb6eb3dab9c)" style="fill: none; stroke: #417383; stroke-width: 2.025; stroke-linecap: round"/>
   </g>
   <g id="line2d_17">
    <defs>
     <path id="m3fc4bed9f5" d="M 0 2.025 
C 0.537036 2.025 1.052149 1.811633 1.431891 1.431891 
C 1.811633 1.052149 2.025 0.537036 2.025 0 
C 2.025 -0.537036 1.811633 -1.052149 1.431891 -1.431891 
C 1.052149 -1.811633 0.537036 -2.025 0 -2.025 
C -0.537036 -2.025 -1.052149 -1.811633 -1.431891 -1.431891 
C -1.811633 -1.052149 -2.025 -0.537036 -2.025 0 
C -2.025 0.537036 -1.811633 1.052149 -1.431891 1.431891 
C -1.052149 1.811633 -0.537036 2.025 0 2.025 
z
" style="stroke: #477b89; stroke-width: 1.51875"/>
    </defs>
    <g clip-path="url(#pb6eb3dab9c)">
     <use xlink:href="#m3fc4bed9f5" x="59.974908" y="278.64" style="fill: #477b89; stroke: #477b89; stroke-width: 1.51875"/>
    </g>
   </g>
   <g id="line2d_18">
    <path clip-path="url(#pb6eb3dab9c)" style="fill: none; stroke: #477b89; stroke-width: 2.025; stroke-linecap: round"/>
   </g>
   <g id="line2d_19">
    <path d="M 23.631801 284.904 
L 23.631801 272.376 
M 23.631801 278.64 
L 96.318014 278.64 
M 96.318014 284.904 
L 96.318014 272.376 
" clip-path="url(#pb6eb3dab9c)" style="fill: none; stroke: #477b89; stroke-width: 2.025; stroke-linecap: round"/>
   </g>
   <g id="line2d_20">
    <path clip-path="url(#pb6eb3dab9c)" style="fill: none; stroke: #477b89; stroke-width: 2.025; stroke-linecap: round"/>
   </g>
   <g id="line2d_21">
    <path clip-path="url(#pb6eb3dab9c)" style="fill: none; stroke: #477b89; stroke-width: 2.025; stroke-linecap: round"/>
   </g>
   <g id="line2d_22">
    <path clip-path="url(#pb6eb3dab9c)" style="fill: none; stroke: #477b89; stroke-width: 2.025; stroke-linecap: round"/>
   </g>
   <g id="line2d_23">
    <path clip-path="url(#pb6eb3dab9c)" style="fill: none; stroke: #477b89; stroke-width: 2.025; stroke-linecap: round"/>
   </g>
   <g id="line2d_24">
    <path clip-path="url(#pb6eb3dab9c)" style="fill: none; stroke: #477b89; stroke-width: 2.025; stroke-linecap: round"/>
   </g>
   <g id="line2d_25">
    <path clip-path="url(#pb6eb3dab9c)" style="fill: none; stroke: #477b89; stroke-width: 2.025; stroke-linecap: round"/>
   </g>
   <g id="line2d_26">
    <defs>
     <path id="mcca19518a2" d="M 0 2.025 
C 0.537036 2.025 1.052149 1.811633 1.431891 1.431891 
C 1.811633 1.052149 2.025 0.537036 2.025 0 
C 2.025 -0.537036 1.811633 -1.052149 1.431891 -1.431891 
C 1.052149 -1.811633 0.537036 -2.025 0 -2.025 
C -0.537036 -2.025 -1.052149 -1.811633 -1.431891 -1.431891 
C -1.811633 -1.052149 -2.025 -0.537036 -2.025 0 
C -2.025 0.537036 -1.811633 1.052149 -1.431891 1.431891 
C -1.052149 1.811633 -0.537036 2.025 0 2.025 
z
" style="stroke: #4d8490; stroke-width: 1.51875"/>
    </defs>
    <g clip-path="url(#pb6eb3dab9c)">
     <use xlink:href="#mcca19518a2" x="82.511977" y="236.88" style="fill: #4d8490; stroke: #4d8490; stroke-width: 1.51875"/>
    </g>
   </g>
   <g id="line2d_27">
    <path clip-path="url(#pb6eb3dab9c)" style="fill: none; stroke: #4d8490; stroke-width: 2.025; stroke-linecap: round"/>
   </g>
   <g id="line2d_28">
    <path clip-path="url(#pb6eb3dab9c)" style="fill: none; stroke: #4d8490; stroke-width: 2.025; stroke-linecap: round"/>
   </g>
   <g id="line2d_29">
    <path d="M 38.872573 243.144 
L 38.872573 230.616 
M 38.872573 236.88 
L 126.151381 236.88 
M 126.151381 243.144 
L 126.151381 230.616 
" clip-path="url(#pb6eb3dab9c)" style="fill: none; stroke: #4d8490; stroke-width: 2.025; stroke-linecap: round"/>
   </g>
   <g id="line2d_30">
    <path clip-path="url(#pb6eb3dab9c)" style="fill: none; stroke: #4d8490; stroke-width: 2.025; stroke-linecap: round"/>
   </g>
   <g id="line2d_31">
    <path clip-path="url(#pb6eb3dab9c)" style="fill: none; stroke: #4d8490; stroke-width: 2.025; stroke-linecap: round"/>
   </g>
   <g id="line2d_32">
    <path clip-path="url(#pb6eb3dab9c)" style="fill: none; stroke: #4d8490; stroke-width: 2.025; stroke-linecap: round"/>
   </g>
   <g id="line2d_33">
    <path clip-path="url(#pb6eb3dab9c)" style="fill: none; stroke: #4d8490; stroke-width: 2.025; stroke-linecap: round"/>
   </g>
   <g id="line2d_34">
    <path clip-path="url(#pb6eb3dab9c)" style="fill: none; stroke: #4d8490; stroke-width: 2.025; stroke-linecap: round"/>
   </g>
   <g id="line2d_35">
    <defs>
     <path id="m788de2814b" d="M 0 2.025 
C 0.537036 2.025 1.052149 1.811633 1.431891 1.431891 
C 1.811633 1.052149 2.025 0.537036 2.025 0 
C 2.025 -0.537036 1.811633 -1.052149 1.431891 -1.431891 
C 1.052149 -1.811633 0.537036 -2.025 0 -2.025 
C -0.537036 -2.025 -1.052149 -1.811633 -1.431891 -1.431891 
C -1.811633 -1.052149 -2.025 -0.537036 -2.025 0 
C -2.025 0.537036 -1.811633 1.052149 -1.431891 1.431891 
C -1.052149 1.811633 -0.537036 2.025 0 2.025 
z
" style="stroke: #538c96; stroke-width: 1.51875"/>
    </defs>
    <g clip-path="url(#pb6eb3dab9c)">
     <use xlink:href="#m788de2814b" x="114.287883" y="195.12" style="fill: #538c96; stroke: #538c96; stroke-width: 1.51875"/>
    </g>
   </g>
   <g id="line2d_36">
    <path clip-path="url(#pb6eb3dab9c)" style="fill: none; stroke: #538c96; stroke-width: 2.025; stroke-linecap: round"/>
   </g>
   <g id="line2d_37">
    <path clip-path="url(#pb6eb3dab9c)" style="fill: none; stroke: #538c96; stroke-width: 2.025; stroke-linecap: round"/>
   </g>
   <g id="line2d_38">
    <path clip-path="url(#pb6eb3dab9c)" style="fill: none; stroke: #538c96; stroke-width: 2.025; stroke-linecap: round"/>
   </g>
   <g id="line2d_39">
    <path d="M 62.904134 201.384 
L 62.904134 188.856 
M 62.904134 195.12 
L 165.671632 195.12 
M 165.671632 201.384 
L 165.671632 188.856 
" clip-path="url(#pb6eb3dab9c)" style="fill: none; stroke: #538c96; stroke-width: 2.025; stroke-linecap: round"/>
   </g>
   <g id="line2d_40">
    <path clip-path="url(#pb6eb3dab9c)" style="fill: none; stroke: #538c96; stroke-width: 2.025; stroke-linecap: round"/>
   </g>
   <g id="line2d_41">
    <path clip-path="url(#pb6eb3dab9c)" style="fill: none; stroke: #538c96; stroke-width: 2.025; stroke-linecap: round"/>
   </g>
   <g id="line2d_42">
    <path clip-path="url(#pb6eb3dab9c)" style="fill: none; stroke: #538c96; stroke-width: 2.025; stroke-linecap: round"/>
   </g>
   <g id="line2d_43">
    <path clip-path="url(#pb6eb3dab9c)" style="fill: none; stroke: #538c96; stroke-width: 2.025; stroke-linecap: round"/>
   </g>
   <g id="line2d_44">
    <defs>
     <path id="m90a99c2a1e" d="M 0 2.025 
C 0.537036 2.025 1.052149 1.811633 1.431891 1.431891 
C 1.811633 1.052149 2.025 0.537036 2.025 0 
C 2.025 -0.537036 1.811633 -1.052149 1.431891 -1.431891 
C 1.052149 -1.811633 0.537036 -2.025 0 -2.025 
C -0.537036 -2.025 -1.052149 -1.811633 -1.431891 -1.431891 
C -1.811633 -1.052149 -2.025 -0.537036 -2.025 0 
C -2.025 0.537036 -1.811633 1.052149 -1.431891 1.431891 
C -1.052149 1.811633 -0.537036 2.025 0 2.025 
z
" style="stroke: #59949b; stroke-width: 1.51875"/>
    </defs>
    <g clip-path="url(#pb6eb3dab9c)">
     <use xlink:href="#m90a99c2a1e" x="123.211493" y="153.36" style="fill: #59949b; stroke: #59949b; stroke-width: 1.51875"/>
    </g>
   </g>
   <g id="line2d_45">
    <path clip-path="url(#pb6eb3dab9c)" style="fill: none; stroke: #59949b; stroke-width: 2.025; stroke-linecap: round"/>
   </g>
   <g id="line2d_46">
    <path clip-path="url(#pb6eb3dab9c)" style="fill: none; stroke: #59949b; stroke-width: 2.025; stroke-linecap: round"/>
   </g>
   <g id="line2d_47">
    <path clip-path="url(#pb6eb3dab9c)" style="fill: none; stroke: #59949b; stroke-width: 2.025; stroke-linecap: round"/>
   </g>
   <g id="line2d_48">
    <path clip-path="url(#pb6eb3dab9c)" style="fill: none; stroke: #59949b; stroke-width: 2.025; stroke-linecap: round"/>
   </g>
   <g id="line2d_49">
    <path d="M 69.066122 159.624 
L 69.066122 147.096 
M 69.066122 153.36 
L 177.356864 153.36 
M 177.356864 159.624 
L 177.356864 147.096 
" clip-path="url(#pb6eb3dab9c)" style="fill: none; stroke: #59949b; stroke-width: 2.025; stroke-linecap: round"/>
   </g>
   <g id="line2d_50">
    <path clip-path="url(#pb6eb3dab9c)" style="fill: none; stroke: #59949b; stroke-width: 2.025; stroke-linecap: round"/>
   </g>
   <g id="line2d_51">
    <path clip-path="url(#pb6eb3dab9c)" style="fill: none; stroke: #59949b; stroke-width: 2.025; stroke-linecap: round"/>
   </g>
   <g id="line2d_52">
    <path clip-path="url(#pb6eb3dab9c)" style="fill: none; stroke: #59949b; stroke-width: 2.025; stroke-linecap: round"/>
   </g>
   <g id="line2d_53">
    <defs>
     <path id="mace64b4e77" d="M 0 2.025 
C 0.537036 2.025 1.052149 1.811633 1.431891 1.431891 
C 1.811633 1.052149 2.025 0.537036 2.025 0 
C 2.025 -0.537036 1.811633 -1.052149 1.431891 -1.431891 
C 1.052149 -1.811633 0.537036 -2.025 0 -2.025 
C -0.537036 -2.025 -1.052149 -1.811633 -1.431891 -1.431891 
C -1.811633 -1.052149 -2.025 -0.537036 -2.025 0 
C -2.025 0.537036 -1.811633 1.052149 -1.431891 1.431891 
C -1.052149 1.811633 -0.537036 2.025 0 2.025 
z
" style="stroke: #609ba1; stroke-width: 1.51875"/>
    </defs>
    <g clip-path="url(#pb6eb3dab9c)">
     <use xlink:href="#mace64b4e77" x="144.211883" y="111.6" style="fill: #609ba1; stroke: #609ba1; stroke-width: 1.51875"/>
    </g>
   </g>
   <g id="line2d_54">
    <path clip-path="url(#pb6eb3dab9c)" style="fill: none; stroke: #609ba1; stroke-width: 2.025; stroke-linecap: round"/>
   </g>
   <g id="line2d_55">
    <path clip-path="url(#pb6eb3dab9c)" style="fill: none; stroke: #609ba1; stroke-width: 2.025; stroke-linecap: round"/>
   </g>
   <g id="line2d_56">
    <path clip-path="url(#pb6eb3dab9c)" style="fill: none; stroke: #609ba1; stroke-width: 2.025; stroke-linecap: round"/>
   </g>
   <g id="line2d_57">
    <path clip-path="url(#pb6eb3dab9c)" style="fill: none; stroke: #609ba1; stroke-width: 2.025; stroke-linecap: round"/>
   </g>
   <g id="line2d_58">
    <path clip-path="url(#pb6eb3dab9c)" style="fill: none; stroke: #609ba1; stroke-width: 2.025; stroke-linecap: round"/>
   </g>
   <g id="line2d_59">
    <path d="M 89.658905 117.864 
L 89.658905 105.336 
M 89.658905 111.6 
L 198.764861 111.6 
M 198.764861 117.864 
L 198.764861 105.336 
" clip-path="url(#pb6eb3dab9c)" style="fill: none; stroke: #609ba1; stroke-width: 2.025; stroke-linecap: round"/>
   </g>
   <g id="line2d_60">
    <path clip-path="url(#pb6eb3dab9c)" style="fill: none; stroke: #609ba1; stroke-width: 2.025; stroke-linecap: round"/>
   </g>
   <g id="line2d_61">
    <path clip-path="url(#pb6eb3dab9c)" style="fill: none; stroke: #609ba1; stroke-width: 2.025; stroke-linecap: round"/>
   </g>
   <g id="line2d_62">
    <defs>
     <path id="m42a4e844c8" d="M 0 2.025 
C 0.537036 2.025 1.052149 1.811633 1.431891 1.431891 
C 1.811633 1.052149 2.025 0.537036 2.025 0 
C 2.025 -0.537036 1.811633 -1.052149 1.431891 -1.431891 
C 1.052149 -1.811633 0.537036 -2.025 0 -2.025 
C -0.537036 -2.025 -1.052149 -1.811633 -1.431891 -1.431891 
C -1.811633 -1.052149 -2.025 -0.537036 -2.025 0 
C -2.025 0.537036 -1.811633 1.052149 -1.431891 1.431891 
C -1.052149 1.811633 -0.537036 2.025 0 2.025 
z
" style="stroke: #68a3a7; stroke-width: 1.51875"/>
    </defs>
    <g clip-path="url(#pb6eb3dab9c)">
     <use xlink:href="#m42a4e844c8" x="199.332746" y="69.84" style="fill: #68a3a7; stroke: #68a3a7; stroke-width: 1.51875"/>
    </g>
   </g>
   <g id="line2d_63">
    <path clip-path="url(#pb6eb3dab9c)" style="fill: none; stroke: #68a3a7; stroke-width: 2.025; stroke-linecap: round"/>
   </g>
   <g id="line2d_64">
    <path clip-path="url(#pb6eb3dab9c)" style="fill: none; stroke: #68a3a7; stroke-width: 2.025; stroke-linecap: round"/>
   </g>
   <g id="line2d_65">
    <path clip-path="url(#pb6eb3dab9c)" style="fill: none; stroke: #68a3a7; stroke-width: 2.025; stroke-linecap: round"/>
   </g>
   <g id="line2d_66">
    <path clip-path="url(#pb6eb3dab9c)" style="fill: none; stroke: #68a3a7; stroke-width: 2.025; stroke-linecap: round"/>
   </g>
   <g id="line2d_67">
    <path clip-path="url(#pb6eb3dab9c)" style="fill: none; stroke: #68a3a7; stroke-width: 2.025; stroke-linecap: round"/>
   </g>
   <g id="line2d_68">
    <path clip-path="url(#pb6eb3dab9c)" style="fill: none; stroke: #68a3a7; stroke-width: 2.025; stroke-linecap: round"/>
   </g>
   <g id="line2d_69">
    <path d="M 136.650966 76.104 
L 136.650966 63.576 
M 136.650966 69.84 
L 262.014526 69.84 
M 262.014526 76.104 
L 262.014526 63.576 
" clip-path="url(#pb6eb3dab9c)" style="fill: none; stroke: #68a3a7; stroke-width: 2.025; stroke-linecap: round"/>
   </g>
   <g id="line2d_70">
    <path clip-path="url(#pb6eb3dab9c)" style="fill: none; stroke: #68a3a7; stroke-width: 2.025; stroke-linecap: round"/>
   </g>
   <g id="line2d_71">
    <defs>
     <path id="ma21cd8cf68" d="M 0 2.025 
C 0.537036 2.025 1.052149 1.811633 1.431891 1.431891 
C 1.811633 1.052149 2.025 0.537036 2.025 0 
C 2.025 -0.537036 1.811633 -1.052149 1.431891 -1.431891 
C 1.052149 -1.811633 0.537036 -2.025 0 -2.025 
C -0.537036 -2.025 -1.052149 -1.811633 -1.431891 -1.431891 
C -1.811633 -1.052149 -2.025 -0.537036 -2.025 0 
C -2.025 0.537036 -1.811633 1.052149 -1.431891 1.431891 
C -1.052149 1.811633 -0.537036 2.025 0 2.025 
z
" style="stroke: #6fabac; stroke-width: 1.51875"/>
    </defs>
    <g clip-path="url(#pb6eb3dab9c)">
     <use xlink:href="#ma21cd8cf68" x="249.36568" y="28.08" style="fill: #6fabac; stroke: #6fabac; stroke-width: 1.51875"/>
    </g>
   </g>
   <g id="line2d_72">
    <path clip-path="url(#pb6eb3dab9c)" style="fill: none; stroke: #6fabac; stroke-width: 2.025; stroke-linecap: round"/>
   </g>
   <g id="line2d_73">
    <path clip-path="url(#pb6eb3dab9c)" style="fill: none; stroke: #6fabac; stroke-width: 2.025; stroke-linecap: round"/>
   </g>
   <g id="line2d_74">
    <path clip-path="url(#pb6eb3dab9c)" style="fill: none; stroke: #6fabac; stroke-width: 2.025; stroke-linecap: round"/>
   </g>
   <g id="line2d_75">
    <path clip-path="url(#pb6eb3dab9c)" style="fill: none; stroke: #6fabac; stroke-width: 2.025; stroke-linecap: round"/>
   </g>
   <g id="line2d_76">
    <path clip-path="url(#pb6eb3dab9c)" style="fill: none; stroke: #6fabac; stroke-width: 2.025; stroke-linecap: round"/>
   </g>
   <g id="line2d_77">
    <path clip-path="url(#pb6eb3dab9c)" style="fill: none; stroke: #6fabac; stroke-width: 2.025; stroke-linecap: round"/>
   </g>
   <g id="line2d_78">
    <path clip-path="url(#pb6eb3dab9c)" style="fill: none; stroke: #6fabac; stroke-width: 2.025; stroke-linecap: round"/>
   </g>
   <g id="line2d_79">
    <path d="M 172.636814 34.344 
L 172.636814 21.816 
M 172.636814 28.08 
L 326.094545 28.08 
M 326.094545 34.344 
L 326.094545 21.816 
" clip-path="url(#pb6eb3dab9c)" style="fill: none; stroke: #6fabac; stroke-width: 2.025; stroke-linecap: round"/>
   </g>
   <g id="patch_3">
    <path d="M 7.2 341.28 
L 7.2 7.2 
" style="fill: none; stroke: #cccccc; stroke-width: 1.25; stroke-linejoin: miter; stroke-linecap: square"/>
   </g>
   <g id="patch_4">
    <path d="M 341.28 341.28 
L 341.28 7.2 
" style="fill: none; stroke: #cccccc; stroke-width: 1.25; stroke-linejoin: miter; stroke-linecap: square"/>
   </g>
   <g id="patch_5">
    <path d="M 7.2 341.28 
L 341.28 341.28 
" style="fill: none; stroke: #cccccc; stroke-width: 1.25; stroke-linejoin: miter; stroke-linecap: square"/>
   </g>
   <g id="patch_6">
    <path d="M 7.2 7.2 
L 341.28 7.2 
" style="fill: none; stroke: #cccccc; stroke-width: 1.25; stroke-linejoin: miter; stroke-linecap: square"/>
   </g>
  </g>
 </g>
 <defs>
  <clipPath id="pb6eb3dab9c">
   <rect x="7.2" y="7.2" width="334.08" height="334.08"/>
  </clipPath>
 </defs>
</svg>
