<?xml version="1.0" encoding="utf-8" standalone="no"?>
<!DOCTYPE svg PUBLIC "-//W3C//DTD SVG 1.1//EN"
  "http://www.w3.org/Graphics/SVG/1.1/DTD/svg11.dtd">
<svg xmlns:xlink="http://www.w3.org/1999/xlink" width="492.48pt" height="348.48pt" viewBox="0 0 492.48 348.48" xmlns="http://www.w3.org/2000/svg" version="1.1">
 <metadata>
  <rdf:RDF xmlns:dc="http://purl.org/dc/elements/1.1/" xmlns:cc="http://creativecommons.org/ns#" xmlns:rdf="http://www.w3.org/1999/02/22-rdf-syntax-ns#">
   <cc:Work>
    <dc:type rdf:resource="http://purl.org/dc/dcmitype/StillImage"/>
    <dc:date>2022-09-05T21:32:53.510916</dc:date>
    <dc:format>image/svg+xml</dc:format>
    <dc:creator>
     <cc:Agent>
      <dc:title>Matplotlib v3.6.0rc1, https://matplotlib.org/</dc:title>
     </cc:Agent>
    </dc:creator>
   </cc:Work>
  </rdf:RDF>
 </metadata>
 <defs>
  <style type="text/css">*{stroke-linejoin: round; stroke-linecap: butt}</style>
 </defs>
 <g id="figure_1">
  <g id="patch_1">
   <path d="M 0 348.48 
L 492.48 348.48 
L 492.48 0 
L 0 0 
z
" style="fill: #ffffff"/>
  </g>
  <g id="axes_1">
   <g id="line2d_1">
    <path d="M 85.12704 107.424 
L 85.12704 185.9328 
" clip-path="url(#pe40a022d0c)" style="fill: none; stroke: #001c7f; stroke-linecap: round"/>
   </g>
   <g id="line2d_2">
    <path d="M 244.48704 107.424 
L 244.48704 252.7488 
" clip-path="url(#pe40a022d0c)" style="fill: none; stroke: #b1400d; stroke-linecap: round"/>
   </g>
   <g id="line2d_3">
    <path d="M 403.84704 107.424 
L 403.84704 319.5648 
" clip-path="url(#pe40a022d0c)" style="fill: none; stroke: #12711c; stroke-linecap: round"/>
   </g>
   <g id="patch_2">
    <path d="M 37.31904 127.4688 
L 132.93504 127.4688 
Q 161.61984 127.4688 161.61984 107.424 
L 161.61984 57.312 
Q 161.61984 37.2672 132.93504 37.2672 
L 37.31904 37.2672 
Q 8.63424 37.2672 8.63424 57.312 
L 8.63424 107.424 
Q 8.63424 127.4688 37.31904 127.4688 
z
" clip-path="url(#pe40a022d0c)" style="fill: #ffffff; stroke: #ffffff; stroke-linejoin: miter"/>
   </g>
   <g id="patch_3">
    <path d="M 37.31904 127.4688 
L 132.93504 127.4688 
Q 161.61984 127.4688 161.61984 107.424 
L 161.61984 57.312 
Q 161.61984 37.2672 132.93504 37.2672 
L 37.31904 37.2672 
Q 8.63424 37.2672 8.63424 57.312 
L 8.63424 107.424 
Q 8.63424 127.4688 37.31904 127.4688 
z
" clip-path="url(#pe40a022d0c)" style="fill: #4c72b0; fill-opacity: 0.2; stroke: #001c7f; stroke-linejoin: miter"/>
   </g>
   <g id="patch_4">
    <path d="M 37.31904 165.888 
L 132.93504 165.888 
Q 142.49664 165.888 142.49664 159.2064 
L 142.49664 146.6784 
Q 142.49664 139.9968 132.93504 139.9968 
L 37.31904 139.9968 
Q 27.75744 139.9968 27.75744 146.6784 
L 27.75744 159.2064 
Q 27.75744 165.888 37.31904 165.888 
z
" clip-path="url(#pe40a022d0c)" style="fill: #ffffff; stroke: #ffffff; stroke-linejoin: miter"/>
   </g>
   <g id="patch_5">
    <path d="M 37.31904 165.888 
L 132.93504 165.888 
Q 142.49664 165.888 142.49664 159.2064 
L 142.49664 146.6784 
Q 142.49664 139.9968 132.93504 139.9968 
L 37.31904 139.9968 
Q 27.75744 139.9968 27.75744 146.6784 
L 27.75744 159.2064 
Q 27.75744 165.888 37.31904 165.888 
z
" clip-path="url(#pe40a022d0c)" style="fill: #4c72b0; fill-opacity: 0.2; stroke: #001c7f; stroke-linejoin: miter"/>
   </g>
   <g id="patch_6">
    <path d="M 37.31904 199.296 
L 132.93504 199.296 
Q 142.49664 199.296 142.49664 192.6144 
L 142.49664 180.0864 
Q 142.49664 173.4048 132.93504 173.4048 
L 37.31904 173.4048 
Q 27.75744 173.4048 27.75744 180.0864 
L 27.75744 192.6144 
Q 27.75744 199.296 37.31904 199.296 
z
" clip-path="url(#pe40a022d0c)" style="fill: #ffffff; stroke: #ffffff; stroke-linejoin: miter"/>
   </g>
   <g id="patch_7">
    <path d="M 37.31904 199.296 
L 132.93504 199.296 
Q 142.49664 199.296 142.49664 192.6144 
L 142.49664 180.0864 
Q 142.49664 173.4048 132.93504 173.4048 
L 37.31904 173.4048 
Q 27.75744 173.4048 27.75744 180.0864 
L 27.75744 192.6144 
Q 27.75744 199.296 37.31904 199.296 
z
" clip-path="url(#pe40a022d0c)" style="fill: #4c72b0; fill-opacity: 0.2; stroke: #001c7f; stroke-linejoin: miter"/>
   </g>
   <g id="patch_8">
    <path d="M 196.67904 127.4688 
L 292.29504 127.4688 
Q 320.97984 127.4688 320.97984 107.424 
L 320.97984 57.312 
Q 320.97984 37.2672 292.29504 37.2672 
L 196.67904 37.2672 
Q 167.99424 37.2672 167.99424 57.312 
L 167.99424 107.424 
Q 167.99424 127.4688 196.67904 127.4688 
z
" clip-path="url(#pe40a022d0c)" style="fill: #ffffff; stroke: #ffffff; stroke-linejoin: miter"/>
   </g>
   <g id="patch_9">
    <path d="M 196.67904 127.4688 
L 292.29504 127.4688 
Q 320.97984 127.4688 320.97984 107.424 
L 320.97984 57.312 
Q 320.97984 37.2672 292.29504 37.2672 
L 196.67904 37.2672 
Q 167.99424 37.2672 167.99424 57.312 
L 167.99424 107.424 
Q 167.99424 127.4688 196.67904 127.4688 
z
" clip-path="url(#pe40a022d0c)" style="fill: #dd8452; fill-opacity: 0.2; stroke: #b1400d; stroke-linejoin: miter"/>
   </g>
   <g id="patch_10">
    <path d="M 196.67904 165.888 
L 292.29504 165.888 
Q 301.85664 165.888 301.85664 159.2064 
L 301.85664 146.6784 
Q 301.85664 139.9968 292.29504 139.9968 
L 196.67904 139.9968 
Q 187.11744 139.9968 187.11744 146.6784 
L 187.11744 159.2064 
Q 187.11744 165.888 196.67904 165.888 
z
" clip-path="url(#pe40a022d0c)" style="fill: #ffffff; stroke: #ffffff; stroke-linejoin: miter"/>
   </g>
   <g id="patch_11">
    <path d="M 196.67904 165.888 
L 292.29504 165.888 
Q 301.85664 165.888 301.85664 159.2064 
L 301.85664 146.6784 
Q 301.85664 139.9968 292.29504 139.9968 
L 196.67904 139.9968 
Q 187.11744 139.9968 187.11744 146.6784 
L 187.11744 159.2064 
Q 187.11744 165.888 196.67904 165.888 
z
" clip-path="url(#pe40a022d0c)" style="fill: #dd8452; fill-opacity: 0.2; stroke: #b1400d; stroke-linejoin: miter"/>
   </g>
   <g id="patch_12">
    <path d="M 196.67904 199.296 
L 292.29504 199.296 
Q 301.85664 199.296 301.85664 192.6144 
L 301.85664 180.0864 
Q 301.85664 173.4048 292.29504 173.4048 
L 196.67904 173.4048 
Q 187.11744 173.4048 187.11744 180.0864 
L 187.11744 192.6144 
Q 187.11744 199.296 196.67904 199.296 
z
" clip-path="url(#pe40a022d0c)" style="fill: #ffffff; stroke: #ffffff; stroke-linejoin: miter"/>
   </g>
   <g id="patch_13">
    <path d="M 196.67904 199.296 
L 292.29504 199.296 
Q 301.85664 199.296 301.85664 192.6144 
L 301.85664 180.0864 
Q 301.85664 173.4048 292.29504 173.4048 
L 196.67904 173.4048 
Q 187.11744 173.4048 187.11744 180.0864 
L 187.11744 192.6144 
Q 187.11744 199.296 196.67904 199.296 
z
" clip-path="url(#pe40a022d0c)" style="fill: #dd8452; fill-opacity: 0.2; stroke: #b1400d; stroke-linejoin: miter"/>
   </g>
   <g id="patch_14">
    <path d="M 196.67904 232.704 
L 292.29504 232.704 
Q 301.85664 232.704 301.85664 226.0224 
L 301.85664 213.4944 
Q 301.85664 206.8128 292.29504 206.8128 
L 196.67904 206.8128 
Q 187.11744 206.8128 187.11744 213.4944 
L 187.11744 226.0224 
Q 187.11744 232.704 196.67904 232.704 
z
" clip-path="url(#pe40a022d0c)" style="fill: #ffffff; stroke: #ffffff; stroke-linejoin: miter"/>
   </g>
   <g id="patch_15">
    <path d="M 196.67904 232.704 
L 292.29504 232.704 
Q 301.85664 232.704 301.85664 226.0224 
L 301.85664 213.4944 
Q 301.85664 206.8128 292.29504 206.8128 
L 196.67904 206.8128 
Q 187.11744 206.8128 187.11744 213.4944 
L 187.11744 226.0224 
Q 187.11744 232.704 196.67904 232.704 
z
" clip-path="url(#pe40a022d0c)" style="fill: #dd8452; fill-opacity: 0.2; stroke: #b1400d; stroke-linejoin: miter"/>
   </g>
   <g id="patch_16">
    <path d="M 196.67904 266.112 
L 292.29504 266.112 
Q 301.85664 266.112 301.85664 259.4304 
L 301.85664 246.9024 
Q 301.85664 240.2208 292.29504 240.2208 
L 196.67904 240.2208 
Q 187.11744 240.2208 187.11744 246.9024 
L 187.11744 259.4304 
Q 187.11744 266.112 196.67904 266.112 
z
" clip-path="url(#pe40a022d0c)" style="fill: #ffffff; stroke: #ffffff; stroke-linejoin: miter"/>
   </g>
   <g id="patch_17">
    <path d="M 196.67904 266.112 
L 292.29504 266.112 
Q 301.85664 266.112 301.85664 259.4304 
L 301.85664 246.9024 
Q 301.85664 240.2208 292.29504 240.2208 
L 196.67904 240.2208 
Q 187.11744 240.2208 187.11744 246.9024 
L 187.11744 259.4304 
Q 187.11744 266.112 196.67904 266.112 
z
" clip-path="url(#pe40a022d0c)" style="fill: #dd8452; fill-opacity: 0.2; stroke: #b1400d; stroke-linejoin: miter"/>
   </g>
   <g id="patch_18">
    <path d="M 356.03904 127.4688 
L 451.65504 127.4688 
Q 480.33984 127.4688 480.33984 107.424 
L 480.33984 57.312 
Q 480.33984 37.2672 451.65504 37.2672 
L 356.03904 37.2672 
Q 327.35424 37.2672 327.35424 57.312 
L 327.35424 107.424 
Q 327.35424 127.4688 356.03904 127.4688 
z
" clip-path="url(#pe40a022d0c)" style="fill: #ffffff; stroke: #ffffff; stroke-linejoin: miter"/>
   </g>
   <g id="patch_19">
    <path d="M 356.03904 127.4688 
L 451.65504 127.4688 
Q 480.33984 127.4688 480.33984 107.424 
L 480.33984 57.312 
Q 480.33984 37.2672 451.65504 37.2672 
L 356.03904 37.2672 
Q 327.35424 37.2672 327.35424 57.312 
L 327.35424 107.424 
Q 327.35424 127.4688 356.03904 127.4688 
z
" clip-path="url(#pe40a022d0c)" style="fill: #55a868; fill-opacity: 0.2; stroke: #12711c; stroke-linejoin: miter"/>
   </g>
   <g id="patch_20">
    <path d="M 356.03904 165.888 
L 451.65504 165.888 
Q 461.21664 165.888 461.21664 159.2064 
L 461.21664 146.6784 
Q 461.21664 139.9968 451.65504 139.9968 
L 356.03904 139.9968 
Q 346.47744 139.9968 346.47744 146.6784 
L 346.47744 159.2064 
Q 346.47744 165.888 356.03904 165.888 
z
" clip-path="url(#pe40a022d0c)" style="fill: #ffffff; stroke: #ffffff; stroke-linejoin: miter"/>
   </g>
   <g id="patch_21">
    <path d="M 356.03904 165.888 
L 451.65504 165.888 
Q 461.21664 165.888 461.21664 159.2064 
L 461.21664 146.6784 
Q 461.21664 139.9968 451.65504 139.9968 
L 356.03904 139.9968 
Q 346.47744 139.9968 346.47744 146.6784 
L 346.47744 159.2064 
Q 346.47744 165.888 356.03904 165.888 
z
" clip-path="url(#pe40a022d0c)" style="fill: #55a868; fill-opacity: 0.2; stroke: #12711c; stroke-linejoin: miter"/>
   </g>
   <g id="patch_22">
    <path d="M 356.03904 199.296 
L 451.65504 199.296 
Q 461.21664 199.296 461.21664 192.6144 
L 461.21664 180.0864 
Q 461.21664 173.4048 451.65504 173.4048 
L 356.03904 173.4048 
Q 346.47744 173.4048 346.47744 180.0864 
L 346.47744 192.6144 
Q 346.47744 199.296 356.03904 199.296 
z
" clip-path="url(#pe40a022d0c)" style="fill: #ffffff; stroke: #ffffff; stroke-linejoin: miter"/>
   </g>
   <g id="patch_23">
    <path d="M 356.03904 199.296 
L 451.65504 199.296 
Q 461.21664 199.296 461.21664 192.6144 
L 461.21664 180.0864 
Q 461.21664 173.4048 451.65504 173.4048 
L 356.03904 173.4048 
Q 346.47744 173.4048 346.47744 180.0864 
L 346.47744 192.6144 
Q 346.47744 199.296 356.03904 199.296 
z
" clip-path="url(#pe40a022d0c)" style="fill: #55a868; fill-opacity: 0.2; stroke: #12711c; stroke-linejoin: miter"/>
   </g>
   <g id="patch_24">
    <path d="M 356.03904 232.704 
L 451.65504 232.704 
Q 461.21664 232.704 461.21664 226.0224 
L 461.21664 213.4944 
Q 461.21664 206.8128 451.65504 206.8128 
L 356.03904 206.8128 
Q 346.47744 206.8128 346.47744 213.4944 
L 346.47744 226.0224 
Q 346.47744 232.704 356.03904 232.704 
z
" clip-path="url(#pe40a022d0c)" style="fill: #ffffff; stroke: #ffffff; stroke-linejoin: miter"/>
   </g>
   <g id="patch_25">
    <path d="M 356.03904 232.704 
L 451.65504 232.704 
Q 461.21664 232.704 461.21664 226.0224 
L 461.21664 213.4944 
Q 461.21664 206.8128 451.65504 206.8128 
L 356.03904 206.8128 
Q 346.47744 206.8128 346.47744 213.4944 
L 346.47744 226.0224 
Q 346.47744 232.704 356.03904 232.704 
z
" clip-path="url(#pe40a022d0c)" style="fill: #55a868; fill-opacity: 0.2; stroke: #12711c; stroke-linejoin: miter"/>
   </g>
   <g id="patch_26">
    <path d="M 356.03904 266.112 
L 451.65504 266.112 
Q 461.21664 266.112 461.21664 259.4304 
L 461.21664 246.9024 
Q 461.21664 240.2208 451.65504 240.2208 
L 356.03904 240.2208 
Q 346.47744 240.2208 346.47744 246.9024 
L 346.47744 259.4304 
Q 346.47744 266.112 356.03904 266.112 
z
" clip-path="url(#pe40a022d0c)" style="fill: #ffffff; stroke: #ffffff; stroke-linejoin: miter"/>
   </g>
   <g id="patch_27">
    <path d="M 356.03904 266.112 
L 451.65504 266.112 
Q 461.21664 266.112 461.21664 259.4304 
L 461.21664 246.9024 
Q 461.21664 240.2208 451.65504 240.2208 
L 356.03904 240.2208 
Q 346.47744 240.2208 346.47744 246.9024 
L 346.47744 259.4304 
Q 346.47744 266.112 356.03904 266.112 
z
" clip-path="url(#pe40a022d0c)" style="fill: #55a868; fill-opacity: 0.2; stroke: #12711c; stroke-linejoin: miter"/>
   </g>
   <g id="patch_28">
    <path d="M 356.03904 299.52 
L 451.65504 299.52 
Q 461.21664 299.52 461.21664 292.8384 
L 461.21664 280.3104 
Q 461.21664 273.6288 451.65504 273.6288 
L 356.03904 273.6288 
Q 346.47744 273.6288 346.47744 280.3104 
L 346.47744 292.8384 
Q 346.47744 299.52 356.03904 299.52 
z
" clip-path="url(#pe40a022d0c)" style="fill: #ffffff; stroke: #ffffff; stroke-linejoin: miter"/>
   </g>
   <g id="patch_29">
    <path d="M 356.03904 299.52 
L 451.65504 299.52 
Q 461.21664 299.52 461.21664 292.8384 
L 461.21664 280.3104 
Q 461.21664 273.6288 451.65504 273.6288 
L 356.03904 273.6288 
Q 346.47744 273.6288 346.47744 280.3104 
L 346.47744 292.8384 
Q 346.47744 299.52 356.03904 299.52 
z
" clip-path="url(#pe40a022d0c)" style="fill: #55a868; fill-opacity: 0.2; stroke: #12711c; stroke-linejoin: miter"/>
   </g>
   <g id="patch_30">
    <path d="M 356.03904 332.928 
L 451.65504 332.928 
Q 461.21664 332.928 461.21664 326.2464 
L 461.21664 313.7184 
Q 461.21664 307.0368 451.65504 307.0368 
L 356.03904 307.0368 
Q 346.47744 307.0368 346.47744 313.7184 
L 346.47744 326.2464 
Q 346.47744 332.928 356.03904 332.928 
z
" clip-path="url(#pe40a022d0c)" style="fill: #ffffff; stroke: #ffffff; stroke-linejoin: miter"/>
   </g>
   <g id="patch_31">
    <path d="M 356.03904 332.928 
L 451.65504 332.928 
Q 461.21664 332.928 461.21664 326.2464 
L 461.21664 313.7184 
Q 461.21664 307.0368 451.65504 307.0368 
L 356.03904 307.0368 
Q 346.47744 307.0368 346.47744 313.7184 
L 346.47744 326.2464 
Q 346.47744 332.928 356.03904 332.928 
z
" clip-path="url(#pe40a022d0c)" style="fill: #55a868; fill-opacity: 0.2; stroke: #12711c; stroke-linejoin: miter"/>
   </g>
   <g id="text_1">
    <!-- relplot -->
    <g style="fill: #001c7f" transform="translate(57.892665 76.698) scale(0.2 -0.2)">
     <defs>
      <path id="ArialMT-72" d="M 416 0 
L 416 3319 
L 922 3319 
L 922 2816 
Q 1116 3169 1280 3281 
Q 1444 3394 1641 3394 
Q 1925 3394 2219 3213 
L 2025 2691 
Q 1819 2813 1613 2813 
Q 1428 2813 1281 2702 
Q 1134 2591 1072 2394 
Q 978 2094 978 1738 
L 978 0 
L 416 0 
z
" transform="scale(0.015625)"/>
      <path id="ArialMT-65" d="M 2694 1069 
L 3275 997 
Q 3138 488 2766 206 
Q 2394 -75 1816 -75 
Q 1088 -75 661 373 
Q 234 822 234 1631 
Q 234 2469 665 2931 
Q 1097 3394 1784 3394 
Q 2450 3394 2872 2941 
Q 3294 2488 3294 1666 
Q 3294 1616 3291 1516 
L 816 1516 
Q 847 969 1125 678 
Q 1403 388 1819 388 
Q 2128 388 2347 550 
Q 2566 713 2694 1069 
z
M 847 1978 
L 2700 1978 
Q 2663 2397 2488 2606 
Q 2219 2931 1791 2931 
Q 1403 2931 1139 2672 
Q 875 2413 847 1978 
z
" transform="scale(0.015625)"/>
      <path id="ArialMT-6c" d="M 409 0 
L 409 4581 
L 972 4581 
L 972 0 
L 409 0 
z
" transform="scale(0.015625)"/>
      <path id="ArialMT-70" d="M 422 -1272 
L 422 3319 
L 934 3319 
L 934 2888 
Q 1116 3141 1344 3267 
Q 1572 3394 1897 3394 
Q 2322 3394 2647 3175 
Q 2972 2956 3137 2557 
Q 3303 2159 3303 1684 
Q 3303 1175 3120 767 
Q 2938 359 2589 142 
Q 2241 -75 1856 -75 
Q 1575 -75 1351 44 
Q 1128 163 984 344 
L 984 -1272 
L 422 -1272 
z
M 931 1641 
Q 931 1000 1190 694 
Q 1450 388 1819 388 
Q 2194 388 2461 705 
Q 2728 1022 2728 1688 
Q 2728 2322 2467 2637 
Q 2206 2953 1844 2953 
Q 1484 2953 1207 2617 
Q 931 2281 931 1641 
z
" transform="scale(0.015625)"/>
      <path id="ArialMT-6f" d="M 213 1659 
Q 213 2581 725 3025 
Q 1153 3394 1769 3394 
Q 2453 3394 2887 2945 
Q 3322 2497 3322 1706 
Q 3322 1066 3130 698 
Q 2938 331 2570 128 
Q 2203 -75 1769 -75 
Q 1072 -75 642 372 
Q 213 819 213 1659 
z
M 791 1659 
Q 791 1022 1069 705 
Q 1347 388 1769 388 
Q 2188 388 2466 706 
Q 2744 1025 2744 1678 
Q 2744 2294 2464 2611 
Q 2184 2928 1769 2928 
Q 1347 2928 1069 2612 
Q 791 2297 791 1659 
z
" transform="scale(0.015625)"/>
      <path id="ArialMT-74" d="M 1650 503 
L 1731 6 
Q 1494 -44 1306 -44 
Q 1000 -44 831 53 
Q 663 150 594 308 
Q 525 466 525 972 
L 525 2881 
L 113 2881 
L 113 3319 
L 525 3319 
L 525 4141 
L 1084 4478 
L 1084 3319 
L 1650 3319 
L 1650 2881 
L 1084 2881 
L 1084 941 
Q 1084 700 1114 631 
Q 1144 563 1211 522 
Q 1278 481 1403 481 
Q 1497 481 1650 503 
z
" transform="scale(0.015625)"/>
     </defs>
     <use xlink:href="#ArialMT-72"/>
     <use xlink:href="#ArialMT-65" x="33.300781"/>
     <use xlink:href="#ArialMT-6c" x="88.916016"/>
     <use xlink:href="#ArialMT-70" x="111.132812"/>
     <use xlink:href="#ArialMT-6c" x="166.748047"/>
     <use xlink:href="#ArialMT-6f" x="188.964844"/>
     <use xlink:href="#ArialMT-74" x="244.580078"/>
    </g>
    <!-- (relational) -->
    <g style="fill: #001c7f" transform="translate(37.88954 98.14425) scale(0.2 -0.2)">
     <defs>
      <path id="ArialMT-28" d="M 1497 -1347 
Q 1031 -759 709 28 
Q 388 816 388 1659 
Q 388 2403 628 3084 
Q 909 3875 1497 4659 
L 1900 4659 
Q 1522 4009 1400 3731 
Q 1209 3300 1100 2831 
Q 966 2247 966 1656 
Q 966 153 1900 -1347 
L 1497 -1347 
z
" transform="scale(0.015625)"/>
      <path id="ArialMT-61" d="M 2588 409 
Q 2275 144 1986 34 
Q 1697 -75 1366 -75 
Q 819 -75 525 192 
Q 231 459 231 875 
Q 231 1119 342 1320 
Q 453 1522 633 1644 
Q 813 1766 1038 1828 
Q 1203 1872 1538 1913 
Q 2219 1994 2541 2106 
Q 2544 2222 2544 2253 
Q 2544 2597 2384 2738 
Q 2169 2928 1744 2928 
Q 1347 2928 1158 2789 
Q 969 2650 878 2297 
L 328 2372 
Q 403 2725 575 2942 
Q 747 3159 1072 3276 
Q 1397 3394 1825 3394 
Q 2250 3394 2515 3294 
Q 2781 3194 2906 3042 
Q 3031 2891 3081 2659 
Q 3109 2516 3109 2141 
L 3109 1391 
Q 3109 606 3145 398 
Q 3181 191 3288 0 
L 2700 0 
Q 2613 175 2588 409 
z
M 2541 1666 
Q 2234 1541 1622 1453 
Q 1275 1403 1131 1340 
Q 988 1278 909 1158 
Q 831 1038 831 891 
Q 831 666 1001 516 
Q 1172 366 1500 366 
Q 1825 366 2078 508 
Q 2331 650 2450 897 
Q 2541 1088 2541 1459 
L 2541 1666 
z
" transform="scale(0.015625)"/>
      <path id="ArialMT-69" d="M 425 3934 
L 425 4581 
L 988 4581 
L 988 3934 
L 425 3934 
z
M 425 0 
L 425 3319 
L 988 3319 
L 988 0 
L 425 0 
z
" transform="scale(0.015625)"/>
      <path id="ArialMT-6e" d="M 422 0 
L 422 3319 
L 928 3319 
L 928 2847 
Q 1294 3394 1984 3394 
Q 2284 3394 2536 3286 
Q 2788 3178 2913 3003 
Q 3038 2828 3088 2588 
Q 3119 2431 3119 2041 
L 3119 0 
L 2556 0 
L 2556 2019 
Q 2556 2363 2490 2533 
Q 2425 2703 2258 2804 
Q 2091 2906 1866 2906 
Q 1506 2906 1245 2678 
Q 984 2450 984 1813 
L 984 0 
L 422 0 
z
" transform="scale(0.015625)"/>
      <path id="ArialMT-29" d="M 791 -1347 
L 388 -1347 
Q 1322 153 1322 1656 
Q 1322 2244 1188 2822 
Q 1081 3291 891 3722 
Q 769 4003 388 4659 
L 791 4659 
Q 1378 3875 1659 3084 
Q 1900 2403 1900 1659 
Q 1900 816 1576 28 
Q 1253 -759 791 -1347 
z
" transform="scale(0.015625)"/>
     </defs>
     <use xlink:href="#ArialMT-28"/>
     <use xlink:href="#ArialMT-72" x="33.300781"/>
     <use xlink:href="#ArialMT-65" x="66.601562"/>
     <use xlink:href="#ArialMT-6c" x="122.216797"/>
     <use xlink:href="#ArialMT-61" x="144.433594"/>
     <use xlink:href="#ArialMT-74" x="200.048828"/>
     <use xlink:href="#ArialMT-69" x="227.832031"/>
     <use xlink:href="#ArialMT-6f" x="250.048828"/>
     <use xlink:href="#ArialMT-6e" x="305.664062"/>
     <use xlink:href="#ArialMT-61" x="361.279297"/>
     <use xlink:href="#ArialMT-6c" x="416.894531"/>
     <use xlink:href="#ArialMT-29" x="439.111328"/>
    </g>
   </g>
   <g id="text_2">
    <!-- scatterplot -->
    <g style="fill: #001c7f" transform="translate(48.22329 156.66105) scale(0.16 -0.16)">
     <defs>
      <path id="ArialMT-73" d="M 197 991 
L 753 1078 
Q 800 744 1014 566 
Q 1228 388 1613 388 
Q 2000 388 2187 545 
Q 2375 703 2375 916 
Q 2375 1106 2209 1216 
Q 2094 1291 1634 1406 
Q 1016 1563 777 1677 
Q 538 1791 414 1992 
Q 291 2194 291 2438 
Q 291 2659 392 2848 
Q 494 3038 669 3163 
Q 800 3259 1026 3326 
Q 1253 3394 1513 3394 
Q 1903 3394 2198 3281 
Q 2494 3169 2634 2976 
Q 2775 2784 2828 2463 
L 2278 2388 
Q 2241 2644 2061 2787 
Q 1881 2931 1553 2931 
Q 1166 2931 1000 2803 
Q 834 2675 834 2503 
Q 834 2394 903 2306 
Q 972 2216 1119 2156 
Q 1203 2125 1616 2013 
Q 2213 1853 2448 1751 
Q 2684 1650 2818 1456 
Q 2953 1263 2953 975 
Q 2953 694 2789 445 
Q 2625 197 2315 61 
Q 2006 -75 1616 -75 
Q 969 -75 630 194 
Q 291 463 197 991 
z
" transform="scale(0.015625)"/>
      <path id="ArialMT-63" d="M 2588 1216 
L 3141 1144 
Q 3050 572 2676 248 
Q 2303 -75 1759 -75 
Q 1078 -75 664 370 
Q 250 816 250 1647 
Q 250 2184 428 2587 
Q 606 2991 970 3192 
Q 1334 3394 1763 3394 
Q 2303 3394 2647 3120 
Q 2991 2847 3088 2344 
L 2541 2259 
Q 2463 2594 2264 2762 
Q 2066 2931 1784 2931 
Q 1359 2931 1093 2626 
Q 828 2322 828 1663 
Q 828 994 1084 691 
Q 1341 388 1753 388 
Q 2084 388 2306 591 
Q 2528 794 2588 1216 
z
" transform="scale(0.015625)"/>
     </defs>
     <use xlink:href="#ArialMT-73"/>
     <use xlink:href="#ArialMT-63" x="50"/>
     <use xlink:href="#ArialMT-61" x="100"/>
     <use xlink:href="#ArialMT-74" x="155.615234"/>
     <use xlink:href="#ArialMT-74" x="183.398438"/>
     <use xlink:href="#ArialMT-65" x="211.181641"/>
     <use xlink:href="#ArialMT-72" x="266.796875"/>
     <use xlink:href="#ArialMT-70" x="300.097656"/>
     <use xlink:href="#ArialMT-6c" x="355.712891"/>
     <use xlink:href="#ArialMT-6f" x="377.929688"/>
     <use xlink:href="#ArialMT-74" x="433.544922"/>
    </g>
   </g>
   <g id="text_3">
    <!-- lineplot -->
    <g style="fill: #001c7f" transform="translate(59.77704 190.06905) scale(0.16 -0.16)">
     <use xlink:href="#ArialMT-6c"/>
     <use xlink:href="#ArialMT-69" x="22.216797"/>
     <use xlink:href="#ArialMT-6e" x="44.433594"/>
     <use xlink:href="#ArialMT-65" x="100.048828"/>
     <use xlink:href="#ArialMT-70" x="155.664062"/>
     <use xlink:href="#ArialMT-6c" x="211.279297"/>
     <use xlink:href="#ArialMT-6f" x="233.496094"/>
     <use xlink:href="#ArialMT-74" x="289.111328"/>
    </g>
   </g>
   <g id="text_4">
    <!-- displot -->
    <g style="fill: #b1400d" transform="translate(215.582352 76.698) scale(0.2 -0.2)">
     <defs>
      <path id="ArialMT-64" d="M 2575 0 
L 2575 419 
Q 2259 -75 1647 -75 
Q 1250 -75 917 144 
Q 584 363 401 755 
Q 219 1147 219 1656 
Q 219 2153 384 2558 
Q 550 2963 881 3178 
Q 1213 3394 1622 3394 
Q 1922 3394 2156 3267 
Q 2391 3141 2538 2938 
L 2538 4581 
L 3097 4581 
L 3097 0 
L 2575 0 
z
M 797 1656 
Q 797 1019 1065 703 
Q 1334 388 1700 388 
Q 2069 388 2326 689 
Q 2584 991 2584 1609 
Q 2584 2291 2321 2609 
Q 2059 2928 1675 2928 
Q 1300 2928 1048 2622 
Q 797 2316 797 1656 
z
" transform="scale(0.015625)"/>
     </defs>
     <use xlink:href="#ArialMT-64"/>
     <use xlink:href="#ArialMT-69" x="55.615234"/>
     <use xlink:href="#ArialMT-73" x="77.832031"/>
     <use xlink:href="#ArialMT-70" x="127.832031"/>
     <use xlink:href="#ArialMT-6c" x="183.447266"/>
     <use xlink:href="#ArialMT-6f" x="205.664062"/>
     <use xlink:href="#ArialMT-74" x="261.279297"/>
    </g>
    <!-- (distributions) -->
    <g style="fill: #b1400d" transform="translate(184.471415 98.14425) scale(0.2 -0.2)">
     <defs>
      <path id="ArialMT-62" d="M 941 0 
L 419 0 
L 419 4581 
L 981 4581 
L 981 2947 
Q 1338 3394 1891 3394 
Q 2197 3394 2470 3270 
Q 2744 3147 2920 2923 
Q 3097 2700 3197 2384 
Q 3297 2069 3297 1709 
Q 3297 856 2875 390 
Q 2453 -75 1863 -75 
Q 1275 -75 941 416 
L 941 0 
z
M 934 1684 
Q 934 1088 1097 822 
Q 1363 388 1816 388 
Q 2184 388 2453 708 
Q 2722 1028 2722 1663 
Q 2722 2313 2464 2622 
Q 2206 2931 1841 2931 
Q 1472 2931 1203 2611 
Q 934 2291 934 1684 
z
" transform="scale(0.015625)"/>
      <path id="ArialMT-75" d="M 2597 0 
L 2597 488 
Q 2209 -75 1544 -75 
Q 1250 -75 995 37 
Q 741 150 617 320 
Q 494 491 444 738 
Q 409 903 409 1263 
L 409 3319 
L 972 3319 
L 972 1478 
Q 972 1038 1006 884 
Q 1059 663 1231 536 
Q 1403 409 1656 409 
Q 1909 409 2131 539 
Q 2353 669 2445 892 
Q 2538 1116 2538 1541 
L 2538 3319 
L 3100 3319 
L 3100 0 
L 2597 0 
z
" transform="scale(0.015625)"/>
     </defs>
     <use xlink:href="#ArialMT-28"/>
     <use xlink:href="#ArialMT-64" x="33.300781"/>
     <use xlink:href="#ArialMT-69" x="88.916016"/>
     <use xlink:href="#ArialMT-73" x="111.132812"/>
     <use xlink:href="#ArialMT-74" x="161.132812"/>
     <use xlink:href="#ArialMT-72" x="188.916016"/>
     <use xlink:href="#ArialMT-69" x="222.216797"/>
     <use xlink:href="#ArialMT-62" x="244.433594"/>
     <use xlink:href="#ArialMT-75" x="300.048828"/>
     <use xlink:href="#ArialMT-74" x="355.664062"/>
     <use xlink:href="#ArialMT-69" x="383.447266"/>
     <use xlink:href="#ArialMT-6f" x="405.664062"/>
     <use xlink:href="#ArialMT-6e" x="461.279297"/>
     <use xlink:href="#ArialMT-73" x="516.894531"/>
     <use xlink:href="#ArialMT-29" x="566.894531"/>
    </g>
   </g>
   <g id="text_5">
    <!-- histplot -->
    <g style="fill: #b1400d" transform="translate(219.14079 156.66105) scale(0.16 -0.16)">
     <defs>
      <path id="ArialMT-68" d="M 422 0 
L 422 4581 
L 984 4581 
L 984 2938 
Q 1378 3394 1978 3394 
Q 2347 3394 2619 3248 
Q 2891 3103 3008 2847 
Q 3125 2591 3125 2103 
L 3125 0 
L 2563 0 
L 2563 2103 
Q 2563 2525 2380 2717 
Q 2197 2909 1863 2909 
Q 1613 2909 1392 2779 
Q 1172 2650 1078 2428 
Q 984 2206 984 1816 
L 984 0 
L 422 0 
z
" transform="scale(0.015625)"/>
     </defs>
     <use xlink:href="#ArialMT-68"/>
     <use xlink:href="#ArialMT-69" x="55.615234"/>
     <use xlink:href="#ArialMT-73" x="77.832031"/>
     <use xlink:href="#ArialMT-74" x="127.832031"/>
     <use xlink:href="#ArialMT-70" x="155.615234"/>
     <use xlink:href="#ArialMT-6c" x="211.230469"/>
     <use xlink:href="#ArialMT-6f" x="233.447266"/>
     <use xlink:href="#ArialMT-74" x="289.0625"/>
    </g>
   </g>
   <g id="text_6">
    <!-- kdeplot -->
    <g style="fill: #b1400d" transform="translate(218.69204 190.06905) scale(0.16 -0.16)">
     <defs>
      <path id="ArialMT-6b" d="M 425 0 
L 425 4581 
L 988 4581 
L 988 1969 
L 2319 3319 
L 3047 3319 
L 1778 2088 
L 3175 0 
L 2481 0 
L 1384 1697 
L 988 1316 
L 988 0 
L 425 0 
z
" transform="scale(0.015625)"/>
     </defs>
     <use xlink:href="#ArialMT-6b"/>
     <use xlink:href="#ArialMT-64" x="50"/>
     <use xlink:href="#ArialMT-65" x="105.615234"/>
     <use xlink:href="#ArialMT-70" x="161.230469"/>
     <use xlink:href="#ArialMT-6c" x="216.845703"/>
     <use xlink:href="#ArialMT-6f" x="239.0625"/>
     <use xlink:href="#ArialMT-74" x="294.677734"/>
    </g>
   </g>
   <g id="text_7">
    <!-- ecdfplot -->
    <g style="fill: #b1400d" transform="translate(216.46954 223.57455) scale(0.16 -0.16)">
     <defs>
      <path id="ArialMT-66" d="M 556 0 
L 556 2881 
L 59 2881 
L 59 3319 
L 556 3319 
L 556 3672 
Q 556 4006 616 4169 
Q 697 4388 901 4523 
Q 1106 4659 1475 4659 
Q 1713 4659 2000 4603 
L 1916 4113 
Q 1741 4144 1584 4144 
Q 1328 4144 1222 4034 
Q 1116 3925 1116 3625 
L 1116 3319 
L 1763 3319 
L 1763 2881 
L 1116 2881 
L 1116 0 
L 556 0 
z
" transform="scale(0.015625)"/>
     </defs>
     <use xlink:href="#ArialMT-65"/>
     <use xlink:href="#ArialMT-63" x="55.615234"/>
     <use xlink:href="#ArialMT-64" x="105.615234"/>
     <use xlink:href="#ArialMT-66" x="161.230469"/>
     <use xlink:href="#ArialMT-70" x="189.013672"/>
     <use xlink:href="#ArialMT-6c" x="244.628906"/>
     <use xlink:href="#ArialMT-6f" x="266.845703"/>
     <use xlink:href="#ArialMT-74" x="322.460938"/>
    </g>
   </g>
   <g id="text_8">
    <!-- rugplot -->
    <g style="fill: #b1400d" transform="translate(220.02829 256.7913) scale(0.16 -0.16)">
     <defs>
      <path id="ArialMT-67" d="M 319 -275 
L 866 -356 
Q 900 -609 1056 -725 
Q 1266 -881 1628 -881 
Q 2019 -881 2231 -725 
Q 2444 -569 2519 -288 
Q 2563 -116 2559 434 
Q 2191 0 1641 0 
Q 956 0 581 494 
Q 206 988 206 1678 
Q 206 2153 378 2554 
Q 550 2956 876 3175 
Q 1203 3394 1644 3394 
Q 2231 3394 2613 2919 
L 2613 3319 
L 3131 3319 
L 3131 450 
Q 3131 -325 2973 -648 
Q 2816 -972 2473 -1159 
Q 2131 -1347 1631 -1347 
Q 1038 -1347 672 -1080 
Q 306 -813 319 -275 
z
M 784 1719 
Q 784 1066 1043 766 
Q 1303 466 1694 466 
Q 2081 466 2343 764 
Q 2606 1063 2606 1700 
Q 2606 2309 2336 2618 
Q 2066 2928 1684 2928 
Q 1309 2928 1046 2623 
Q 784 2319 784 1719 
z
" transform="scale(0.015625)"/>
     </defs>
     <use xlink:href="#ArialMT-72"/>
     <use xlink:href="#ArialMT-75" x="33.300781"/>
     <use xlink:href="#ArialMT-67" x="88.916016"/>
     <use xlink:href="#ArialMT-70" x="144.53125"/>
     <use xlink:href="#ArialMT-6c" x="200.146484"/>
     <use xlink:href="#ArialMT-6f" x="222.363281"/>
     <use xlink:href="#ArialMT-74" x="277.978516"/>
    </g>
   </g>
   <g id="text_9">
    <!-- catplot -->
    <g style="fill: #12711c" transform="translate(374.386102 76.698) scale(0.2 -0.2)">
     <use xlink:href="#ArialMT-63"/>
     <use xlink:href="#ArialMT-61" x="50"/>
     <use xlink:href="#ArialMT-74" x="105.615234"/>
     <use xlink:href="#ArialMT-70" x="133.398438"/>
     <use xlink:href="#ArialMT-6c" x="189.013672"/>
     <use xlink:href="#ArialMT-6f" x="211.230469"/>
     <use xlink:href="#ArialMT-74" x="266.845703"/>
    </g>
    <!-- (categorical) -->
    <g style="fill: #12711c" transform="translate(348.831415 98.14425) scale(0.2 -0.2)">
     <use xlink:href="#ArialMT-28"/>
     <use xlink:href="#ArialMT-63" x="33.300781"/>
     <use xlink:href="#ArialMT-61" x="83.300781"/>
     <use xlink:href="#ArialMT-74" x="138.916016"/>
     <use xlink:href="#ArialMT-65" x="166.699219"/>
     <use xlink:href="#ArialMT-67" x="222.314453"/>
     <use xlink:href="#ArialMT-6f" x="277.929688"/>
     <use xlink:href="#ArialMT-72" x="333.544922"/>
     <use xlink:href="#ArialMT-69" x="366.845703"/>
     <use xlink:href="#ArialMT-63" x="389.0625"/>
     <use xlink:href="#ArialMT-61" x="439.0625"/>
     <use xlink:href="#ArialMT-6c" x="494.677734"/>
     <use xlink:href="#ArialMT-29" x="516.894531"/>
    </g>
   </g>
   <g id="text_10">
    <!-- stripplot -->
    <g style="fill: #12711c" transform="translate(375.83704 156.66105) scale(0.16 -0.16)">
     <use xlink:href="#ArialMT-73"/>
     <use xlink:href="#ArialMT-74" x="50"/>
     <use xlink:href="#ArialMT-72" x="77.783203"/>
     <use xlink:href="#ArialMT-69" x="111.083984"/>
     <use xlink:href="#ArialMT-70" x="133.300781"/>
     <use xlink:href="#ArialMT-70" x="188.916016"/>
     <use xlink:href="#ArialMT-6c" x="244.53125"/>
     <use xlink:href="#ArialMT-6f" x="266.748047"/>
     <use xlink:href="#ArialMT-74" x="322.363281"/>
    </g>
   </g>
   <g id="text_11">
    <!-- swarmplot -->
    <g style="fill: #12711c" transform="translate(367.39579 190.06905) scale(0.16 -0.16)">
     <defs>
      <path id="ArialMT-77" d="M 1034 0 
L 19 3319 
L 600 3319 
L 1128 1403 
L 1325 691 
Q 1338 744 1497 1375 
L 2025 3319 
L 2603 3319 
L 3100 1394 
L 3266 759 
L 3456 1400 
L 4025 3319 
L 4572 3319 
L 3534 0 
L 2950 0 
L 2422 1988 
L 2294 2553 
L 1622 0 
L 1034 0 
z
" transform="scale(0.015625)"/>
      <path id="ArialMT-6d" d="M 422 0 
L 422 3319 
L 925 3319 
L 925 2853 
Q 1081 3097 1340 3245 
Q 1600 3394 1931 3394 
Q 2300 3394 2536 3241 
Q 2772 3088 2869 2813 
Q 3263 3394 3894 3394 
Q 4388 3394 4653 3120 
Q 4919 2847 4919 2278 
L 4919 0 
L 4359 0 
L 4359 2091 
Q 4359 2428 4304 2576 
Q 4250 2725 4106 2815 
Q 3963 2906 3769 2906 
Q 3419 2906 3187 2673 
Q 2956 2441 2956 1928 
L 2956 0 
L 2394 0 
L 2394 2156 
Q 2394 2531 2256 2718 
Q 2119 2906 1806 2906 
Q 1569 2906 1367 2781 
Q 1166 2656 1075 2415 
Q 984 2175 984 1722 
L 984 0 
L 422 0 
z
" transform="scale(0.015625)"/>
     </defs>
     <use xlink:href="#ArialMT-73"/>
     <use xlink:href="#ArialMT-77" x="50"/>
     <use xlink:href="#ArialMT-61" x="122.216797"/>
     <use xlink:href="#ArialMT-72" x="177.832031"/>
     <use xlink:href="#ArialMT-6d" x="211.132812"/>
     <use xlink:href="#ArialMT-70" x="294.433594"/>
     <use xlink:href="#ArialMT-6c" x="350.048828"/>
     <use xlink:href="#ArialMT-6f" x="372.265625"/>
     <use xlink:href="#ArialMT-74" x="427.880859"/>
    </g>
   </g>
   <g id="text_12">
    <!-- boxplot -->
    <g style="fill: #12711c" transform="translate(378.05204 223.47705) scale(0.16 -0.16)">
     <defs>
      <path id="ArialMT-78" d="M 47 0 
L 1259 1725 
L 138 3319 
L 841 3319 
L 1350 2541 
Q 1494 2319 1581 2169 
Q 1719 2375 1834 2534 
L 2394 3319 
L 3066 3319 
L 1919 1756 
L 3153 0 
L 2463 0 
L 1781 1031 
L 1600 1309 
L 728 0 
L 47 0 
z
" transform="scale(0.015625)"/>
     </defs>
     <use xlink:href="#ArialMT-62"/>
     <use xlink:href="#ArialMT-6f" x="55.615234"/>
     <use xlink:href="#ArialMT-78" x="111.230469"/>
     <use xlink:href="#ArialMT-70" x="161.230469"/>
     <use xlink:href="#ArialMT-6c" x="216.845703"/>
     <use xlink:href="#ArialMT-6f" x="239.0625"/>
     <use xlink:href="#ArialMT-74" x="294.677734"/>
    </g>
   </g>
   <g id="text_13">
    <!-- violinplot -->
    <g style="fill: #12711c" transform="translate(372.71954 256.88505) scale(0.16 -0.16)">
     <defs>
      <path id="ArialMT-76" d="M 1344 0 
L 81 3319 
L 675 3319 
L 1388 1331 
Q 1503 1009 1600 663 
Q 1675 925 1809 1294 
L 2547 3319 
L 3125 3319 
L 1869 0 
L 1344 0 
z
" transform="scale(0.015625)"/>
     </defs>
     <use xlink:href="#ArialMT-76"/>
     <use xlink:href="#ArialMT-69" x="50"/>
     <use xlink:href="#ArialMT-6f" x="72.216797"/>
     <use xlink:href="#ArialMT-6c" x="127.832031"/>
     <use xlink:href="#ArialMT-69" x="150.048828"/>
     <use xlink:href="#ArialMT-6e" x="172.265625"/>
     <use xlink:href="#ArialMT-70" x="227.880859"/>
     <use xlink:href="#ArialMT-6c" x="283.496094"/>
     <use xlink:href="#ArialMT-6f" x="305.712891"/>
     <use xlink:href="#ArialMT-74" x="361.328125"/>
    </g>
   </g>
   <g id="text_14">
    <!-- pointplot -->
    <g style="fill: #12711c" transform="translate(373.60329 290.29305) scale(0.16 -0.16)">
     <use xlink:href="#ArialMT-70"/>
     <use xlink:href="#ArialMT-6f" x="55.615234"/>
     <use xlink:href="#ArialMT-69" x="111.230469"/>
     <use xlink:href="#ArialMT-6e" x="133.447266"/>
     <use xlink:href="#ArialMT-74" x="189.0625"/>
     <use xlink:href="#ArialMT-70" x="216.845703"/>
     <use xlink:href="#ArialMT-6c" x="272.460938"/>
     <use xlink:href="#ArialMT-6f" x="294.677734"/>
     <use xlink:href="#ArialMT-74" x="350.292969"/>
    </g>
   </g>
   <g id="text_15">
    <!-- barplot -->
    <g style="fill: #12711c" transform="translate(379.38829 323.70105) scale(0.16 -0.16)">
     <use xlink:href="#ArialMT-62"/>
     <use xlink:href="#ArialMT-61" x="55.615234"/>
     <use xlink:href="#ArialMT-72" x="111.230469"/>
     <use xlink:href="#ArialMT-70" x="144.53125"/>
     <use xlink:href="#ArialMT-6c" x="200.146484"/>
     <use xlink:href="#ArialMT-6f" x="222.363281"/>
     <use xlink:href="#ArialMT-74" x="277.978516"/>
    </g>
   </g>
  </g>
 </g>
 <defs>
  <clipPath id="pe40a022d0c">
   <rect x="7.2" y="7.2" width="478.08" height="334.08"/>
  </clipPath>
 </defs>
</svg>
