<svg xmlns:xlink="http://www.w3.org/1999/xlink" xmlns="http://www.w3.org/2000/svg" width="504pt" height="216pt" viewBox="0 0 504 216" version="1.1">
 <metadata>
  <rdf:RDF xmlns:dc="http://purl.org/dc/elements/1.1/" xmlns:cc="http://creativecommons.org/ns#" xmlns:rdf="http://www.w3.org/1999/02/22-rdf-syntax-ns#">
   <cc:Work>
    <dc:type rdf:resource="http://purl.org/dc/dcmitype/StillImage"/>
    <dc:date>2023-09-29T07:22:59.759535</dc:date>
    <dc:format>image/svg+xml</dc:format>
    <dc:creator>
     <cc:Agent>
      <dc:title>Matplotlib v3.8.0, https://matplotlib.org/</dc:title>
     </cc:Agent>
    </dc:creator>
   </cc:Work>
  </rdf:RDF>
 </metadata>
 <defs>
  <style type="text/css">*{stroke-linejoin: round; stroke-linecap: butt}</style>
 </defs>
 <g id="figure_1">
  <g id="patch_1">
   <path d="M 0 216  L 504 216  L 504 0  L 0 0  z " style="fill: #ffffff"/>
  </g>
  <g id="axes_1">
   <g id="patch_2">
    <path d="M 65.52 101.52  L 292.32 101.52  L 292.32 82.08  L 65.52 82.08  z " clip-path="url(#p57858e3188)" style="fill: #4c72b0; opacity: 0.3; stroke: #4c72b0; stroke-linejoin: miter"/>
   </g>
   <g id="patch_3">
    <path d="M 110.88 123.12  L 229.32 123.12  L 229.32 103.68  L 110.88 103.68  z " clip-path="url(#p57858e3188)" style="fill: #dd8452; opacity: 0.3; stroke: #dd8452; stroke-linejoin: miter"/>
   </g>
   <g id="patch_4">
    <path d="M 246.96 123.12  L 378 123.12  L 378 103.68  L 246.96 103.68  z " clip-path="url(#p57858e3188)" style="fill: #55a868; opacity: 0.3; stroke: #55a868; stroke-linejoin: miter"/>
   </g>
   <g id="text_1">
    <!-- Plot(data, 'x', 'y', color='var1') -->
    <g style="fill: #333333" transform="translate(25.2 97.2) scale(0.18 -0.18)">
     <defs>
      <path id="DejaVuSans-50" d="M 1259 4147  L 1259 2394  L 2053 2394  Q 2494 2394 2734 2622  Q 2975 2850 2975 3272  Q 2975 3691 2734 3919  Q 2494 4147 2053 4147  L 1259 4147  z M 628 4666  L 2053 4666  Q 2838 4666 3239 4311  Q 3641 3956 3641 3272  Q 3641 2581 3239 2228  Q 2838 1875 2053 1875  L 1259 1875  L 1259 0  L 628 0  L 628 4666  z " transform="scale(0.015625)"/>
      <path id="DejaVuSans-6c" d="M 603 4863  L 1178 4863  L 1178 0  L 603 0  L 603 4863  z " transform="scale(0.015625)"/>
      <path id="DejaVuSans-6f" d="M 1959 3097  Q 1497 3097 1228 2736  Q 959 2375 959 1747  Q 959 1119 1226 758  Q 1494 397 1959 397  Q 2419 397 2687 759  Q 2956 1122 2956 1747  Q 2956 2369 2687 2733  Q 2419 3097 1959 3097  z M 1959 3584  Q 2709 3584 3137 3096  Q 3566 2609 3566 1747  Q 3566 888 3137 398  Q 2709 -91 1959 -91  Q 1206 -91 779 398  Q 353 888 353 1747  Q 353 2609 779 3096  Q 1206 3584 1959 3584  z " transform="scale(0.015625)"/>
      <path id="DejaVuSans-74" d="M 1172 4494  L 1172 3500  L 2356 3500  L 2356 3053  L 1172 3053  L 1172 1153  Q 1172 725 1289 603  Q 1406 481 1766 481  L 2356 481  L 2356 0  L 1766 0  Q 1100 0 847 248  Q 594 497 594 1153  L 594 3053  L 172 3053  L 172 3500  L 594 3500  L 594 4494  L 1172 4494  z " transform="scale(0.015625)"/>
      <path id="DejaVuSans-28" d="M 1984 4856  Q 1566 4138 1362 3434  Q 1159 2731 1159 2009  Q 1159 1288 1364 580  Q 1569 -128 1984 -844  L 1484 -844  Q 1016 -109 783 600  Q 550 1309 550 2009  Q 550 2706 781 3412  Q 1013 4119 1484 4856  L 1984 4856  z " transform="scale(0.015625)"/>
      <path id="DejaVuSans-64" d="M 2906 2969  L 2906 4863  L 3481 4863  L 3481 0  L 2906 0  L 2906 525  Q 2725 213 2448 61  Q 2172 -91 1784 -91  Q 1150 -91 751 415  Q 353 922 353 1747  Q 353 2572 751 3078  Q 1150 3584 1784 3584  Q 2172 3584 2448 3432  Q 2725 3281 2906 2969  z M 947 1747  Q 947 1113 1208 752  Q 1469 391 1925 391  Q 2381 391 2643 752  Q 2906 1113 2906 1747  Q 2906 2381 2643 2742  Q 2381 3103 1925 3103  Q 1469 3103 1208 2742  Q 947 2381 947 1747  z " transform="scale(0.015625)"/>
      <path id="DejaVuSans-61" d="M 2194 1759  Q 1497 1759 1228 1600  Q 959 1441 959 1056  Q 959 750 1161 570  Q 1363 391 1709 391  Q 2188 391 2477 730  Q 2766 1069 2766 1631  L 2766 1759  L 2194 1759  z M 3341 1997  L 3341 0  L 2766 0  L 2766 531  Q 2569 213 2275 61  Q 1981 -91 1556 -91  Q 1019 -91 701 211  Q 384 513 384 1019  Q 384 1609 779 1909  Q 1175 2209 1959 2209  L 2766 2209  L 2766 2266  Q 2766 2663 2505 2880  Q 2244 3097 1772 3097  Q 1472 3097 1187 3025  Q 903 2953 641 2809  L 641 3341  Q 956 3463 1253 3523  Q 1550 3584 1831 3584  Q 2591 3584 2966 3190  Q 3341 2797 3341 1997  z " transform="scale(0.015625)"/>
      <path id="DejaVuSans-2c" d="M 750 794  L 1409 794  L 1409 256  L 897 -744  L 494 -744  L 750 256  L 750 794  z " transform="scale(0.015625)"/>
      <path id="DejaVuSans-20" transform="scale(0.015625)"/>
      <path id="DejaVuSans-27" d="M 1147 4666  L 1147 2931  L 616 2931  L 616 4666  L 1147 4666  z " transform="scale(0.015625)"/>
      <path id="DejaVuSans-78" d="M 3513 3500  L 2247 1797  L 3578 0  L 2900 0  L 1881 1375  L 863 0  L 184 0  L 1544 1831  L 300 3500  L 978 3500  L 1906 2253  L 2834 3500  L 3513 3500  z " transform="scale(0.015625)"/>
      <path id="DejaVuSans-79" d="M 2059 -325  Q 1816 -950 1584 -1140  Q 1353 -1331 966 -1331  L 506 -1331  L 506 -850  L 844 -850  Q 1081 -850 1212 -737  Q 1344 -625 1503 -206  L 1606 56  L 191 3500  L 800 3500  L 1894 763  L 2988 3500  L 3597 3500  L 2059 -325  z " transform="scale(0.015625)"/>
      <path id="DejaVuSans-63" d="M 3122 3366  L 3122 2828  Q 2878 2963 2633 3030  Q 2388 3097 2138 3097  Q 1578 3097 1268 2742  Q 959 2388 959 1747  Q 959 1106 1268 751  Q 1578 397 2138 397  Q 2388 397 2633 464  Q 2878 531 3122 666  L 3122 134  Q 2881 22 2623 -34  Q 2366 -91 2075 -91  Q 1284 -91 818 406  Q 353 903 353 1747  Q 353 2603 823 3093  Q 1294 3584 2113 3584  Q 2378 3584 2631 3529  Q 2884 3475 3122 3366  z " transform="scale(0.015625)"/>
      <path id="DejaVuSans-72" d="M 2631 2963  Q 2534 3019 2420 3045  Q 2306 3072 2169 3072  Q 1681 3072 1420 2755  Q 1159 2438 1159 1844  L 1159 0  L 581 0  L 581 3500  L 1159 3500  L 1159 2956  Q 1341 3275 1631 3429  Q 1922 3584 2338 3584  Q 2397 3584 2469 3576  Q 2541 3569 2628 3553  L 2631 2963  z " transform="scale(0.015625)"/>
      <path id="DejaVuSans-3d" d="M 678 2906  L 4684 2906  L 4684 2381  L 678 2381  L 678 2906  z M 678 1631  L 4684 1631  L 4684 1100  L 678 1100  L 678 1631  z " transform="scale(0.015625)"/>
      <path id="DejaVuSans-76" d="M 191 3500  L 800 3500  L 1894 563  L 2988 3500  L 3597 3500  L 2284 0  L 1503 0  L 191 3500  z " transform="scale(0.015625)"/>
      <path id="DejaVuSans-31" d="M 794 531  L 1825 531  L 1825 4091  L 703 3866  L 703 4441  L 1819 4666  L 2450 4666  L 2450 531  L 3481 531  L 3481 0  L 794 0  L 794 531  z " transform="scale(0.015625)"/>
      <path id="DejaVuSans-29" d="M 513 4856  L 1013 4856  Q 1481 4119 1714 3412  Q 1947 2706 1947 2009  Q 1947 1309 1714 600  Q 1481 -109 1013 -844  L 513 -844  Q 928 -128 1133 580  Q 1338 1288 1338 2009  Q 1338 2731 1133 3434  Q 928 4138 513 4856  z " transform="scale(0.015625)"/>
     </defs>
     <use xlink:href="#DejaVuSans-50"/>
     <use xlink:href="#DejaVuSans-6c" x="60.302734"/>
     <use xlink:href="#DejaVuSans-6f" x="88.085938"/>
     <use xlink:href="#DejaVuSans-74" x="149.267578"/>
     <use xlink:href="#DejaVuSans-28" x="188.476562"/>
     <use xlink:href="#DejaVuSans-64" x="227.490234"/>
     <use xlink:href="#DejaVuSans-61" x="290.966797"/>
     <use xlink:href="#DejaVuSans-74" x="352.246094"/>
     <use xlink:href="#DejaVuSans-61" x="391.455078"/>
     <use xlink:href="#DejaVuSans-2c" x="452.734375"/>
     <use xlink:href="#DejaVuSans-20" x="484.521484"/>
     <use xlink:href="#DejaVuSans-27" x="516.308594"/>
     <use xlink:href="#DejaVuSans-78" x="543.798828"/>
     <use xlink:href="#DejaVuSans-27" x="602.978516"/>
     <use xlink:href="#DejaVuSans-2c" x="630.46875"/>
     <use xlink:href="#DejaVuSans-20" x="662.255859"/>
     <use xlink:href="#DejaVuSans-27" x="694.042969"/>
     <use xlink:href="#DejaVuSans-79" x="721.533203"/>
     <use xlink:href="#DejaVuSans-27" x="780.712891"/>
     <use xlink:href="#DejaVuSans-2c" x="808.203125"/>
     <use xlink:href="#DejaVuSans-20" x="839.990234"/>
     <use xlink:href="#DejaVuSans-63" x="871.777344"/>
     <use xlink:href="#DejaVuSans-6f" x="926.757812"/>
     <use xlink:href="#DejaVuSans-6c" x="987.939453"/>
     <use xlink:href="#DejaVuSans-6f" x="1015.722656"/>
     <use xlink:href="#DejaVuSans-72" x="1076.904297"/>
     <use xlink:href="#DejaVuSans-3d" x="1118.017578"/>
     <use xlink:href="#DejaVuSans-27" x="1201.806641"/>
     <use xlink:href="#DejaVuSans-76" x="1229.296875"/>
     <use xlink:href="#DejaVuSans-61" x="1288.476562"/>
     <use xlink:href="#DejaVuSans-72" x="1349.755859"/>
     <use xlink:href="#DejaVuSans-31" x="1390.869141"/>
     <use xlink:href="#DejaVuSans-27" x="1454.492188"/>
     <use xlink:href="#DejaVuSans-29" x="1481.982422"/>
    </g>
   </g>
   <g id="text_2">
    <!-- .add(Dot(pointsize=10), marker='var2') -->
    <g style="fill: #333333" transform="translate(25.2 118.8) scale(0.18 -0.18)">
     <defs>
      <path id="DejaVuSans-2e" d="M 684 794  L 1344 794  L 1344 0  L 684 0  L 684 794  z " transform="scale(0.015625)"/>
      <path id="DejaVuSans-44" d="M 1259 4147  L 1259 519  L 2022 519  Q 2988 519 3436 956  Q 3884 1394 3884 2338  Q 3884 3275 3436 3711  Q 2988 4147 2022 4147  L 1259 4147  z M 628 4666  L 1925 4666  Q 3281 4666 3915 4102  Q 4550 3538 4550 2338  Q 4550 1131 3912 565  Q 3275 0 1925 0  L 628 0  L 628 4666  z " transform="scale(0.015625)"/>
      <path id="DejaVuSans-70" d="M 1159 525  L 1159 -1331  L 581 -1331  L 581 3500  L 1159 3500  L 1159 2969  Q 1341 3281 1617 3432  Q 1894 3584 2278 3584  Q 2916 3584 3314 3078  Q 3713 2572 3713 1747  Q 3713 922 3314 415  Q 2916 -91 2278 -91  Q 1894 -91 1617 61  Q 1341 213 1159 525  z M 3116 1747  Q 3116 2381 2855 2742  Q 2594 3103 2138 3103  Q 1681 3103 1420 2742  Q 1159 2381 1159 1747  Q 1159 1113 1420 752  Q 1681 391 2138 391  Q 2594 391 2855 752  Q 3116 1113 3116 1747  z " transform="scale(0.015625)"/>
      <path id="DejaVuSans-69" d="M 603 3500  L 1178 3500  L 1178 0  L 603 0  L 603 3500  z M 603 4863  L 1178 4863  L 1178 4134  L 603 4134  L 603 4863  z " transform="scale(0.015625)"/>
      <path id="DejaVuSans-6e" d="M 3513 2113  L 3513 0  L 2938 0  L 2938 2094  Q 2938 2591 2744 2837  Q 2550 3084 2163 3084  Q 1697 3084 1428 2787  Q 1159 2491 1159 1978  L 1159 0  L 581 0  L 581 3500  L 1159 3500  L 1159 2956  Q 1366 3272 1645 3428  Q 1925 3584 2291 3584  Q 2894 3584 3203 3211  Q 3513 2838 3513 2113  z " transform="scale(0.015625)"/>
      <path id="DejaVuSans-73" d="M 2834 3397  L 2834 2853  Q 2591 2978 2328 3040  Q 2066 3103 1784 3103  Q 1356 3103 1142 2972  Q 928 2841 928 2578  Q 928 2378 1081 2264  Q 1234 2150 1697 2047  L 1894 2003  Q 2506 1872 2764 1633  Q 3022 1394 3022 966  Q 3022 478 2636 193  Q 2250 -91 1575 -91  Q 1294 -91 989 -36  Q 684 19 347 128  L 347 722  Q 666 556 975 473  Q 1284 391 1588 391  Q 1994 391 2212 530  Q 2431 669 2431 922  Q 2431 1156 2273 1281  Q 2116 1406 1581 1522  L 1381 1569  Q 847 1681 609 1914  Q 372 2147 372 2553  Q 372 3047 722 3315  Q 1072 3584 1716 3584  Q 2034 3584 2315 3537  Q 2597 3491 2834 3397  z " transform="scale(0.015625)"/>
      <path id="DejaVuSans-7a" d="M 353 3500  L 3084 3500  L 3084 2975  L 922 459  L 3084 459  L 3084 0  L 275 0  L 275 525  L 2438 3041  L 353 3041  L 353 3500  z " transform="scale(0.015625)"/>
      <path id="DejaVuSans-65" d="M 3597 1894  L 3597 1613  L 953 1613  Q 991 1019 1311 708  Q 1631 397 2203 397  Q 2534 397 2845 478  Q 3156 559 3463 722  L 3463 178  Q 3153 47 2828 -22  Q 2503 -91 2169 -91  Q 1331 -91 842 396  Q 353 884 353 1716  Q 353 2575 817 3079  Q 1281 3584 2069 3584  Q 2775 3584 3186 3129  Q 3597 2675 3597 1894  z M 3022 2063  Q 3016 2534 2758 2815  Q 2500 3097 2075 3097  Q 1594 3097 1305 2825  Q 1016 2553 972 2059  L 3022 2063  z " transform="scale(0.015625)"/>
      <path id="DejaVuSans-30" d="M 2034 4250  Q 1547 4250 1301 3770  Q 1056 3291 1056 2328  Q 1056 1369 1301 889  Q 1547 409 2034 409  Q 2525 409 2770 889  Q 3016 1369 3016 2328  Q 3016 3291 2770 3770  Q 2525 4250 2034 4250  z M 2034 4750  Q 2819 4750 3233 4129  Q 3647 3509 3647 2328  Q 3647 1150 3233 529  Q 2819 -91 2034 -91  Q 1250 -91 836 529  Q 422 1150 422 2328  Q 422 3509 836 4129  Q 1250 4750 2034 4750  z " transform="scale(0.015625)"/>
      <path id="DejaVuSans-6d" d="M 3328 2828  Q 3544 3216 3844 3400  Q 4144 3584 4550 3584  Q 5097 3584 5394 3201  Q 5691 2819 5691 2113  L 5691 0  L 5113 0  L 5113 2094  Q 5113 2597 4934 2840  Q 4756 3084 4391 3084  Q 3944 3084 3684 2787  Q 3425 2491 3425 1978  L 3425 0  L 2847 0  L 2847 2094  Q 2847 2600 2669 2842  Q 2491 3084 2119 3084  Q 1678 3084 1418 2786  Q 1159 2488 1159 1978  L 1159 0  L 581 0  L 581 3500  L 1159 3500  L 1159 2956  Q 1356 3278 1631 3431  Q 1906 3584 2284 3584  Q 2666 3584 2933 3390  Q 3200 3197 3328 2828  z " transform="scale(0.015625)"/>
      <path id="DejaVuSans-6b" d="M 581 4863  L 1159 4863  L 1159 1991  L 2875 3500  L 3609 3500  L 1753 1863  L 3688 0  L 2938 0  L 1159 1709  L 1159 0  L 581 0  L 581 4863  z " transform="scale(0.015625)"/>
      <path id="DejaVuSans-32" d="M 1228 531  L 3431 531  L 3431 0  L 469 0  L 469 531  Q 828 903 1448 1529  Q 2069 2156 2228 2338  Q 2531 2678 2651 2914  Q 2772 3150 2772 3378  Q 2772 3750 2511 3984  Q 2250 4219 1831 4219  Q 1534 4219 1204 4116  Q 875 4013 500 3803  L 500 4441  Q 881 4594 1212 4672  Q 1544 4750 1819 4750  Q 2544 4750 2975 4387  Q 3406 4025 3406 3419  Q 3406 3131 3298 2873  Q 3191 2616 2906 2266  Q 2828 2175 2409 1742  Q 1991 1309 1228 531  z " transform="scale(0.015625)"/>
     </defs>
     <use xlink:href="#DejaVuSans-2e"/>
     <use xlink:href="#DejaVuSans-61" x="31.787109"/>
     <use xlink:href="#DejaVuSans-64" x="93.066406"/>
     <use xlink:href="#DejaVuSans-64" x="156.542969"/>
     <use xlink:href="#DejaVuSans-28" x="220.019531"/>
     <use xlink:href="#DejaVuSans-44" x="259.033203"/>
     <use xlink:href="#DejaVuSans-6f" x="336.035156"/>
     <use xlink:href="#DejaVuSans-74" x="397.216797"/>
     <use xlink:href="#DejaVuSans-28" x="436.425781"/>
     <use xlink:href="#DejaVuSans-70" x="475.439453"/>
     <use xlink:href="#DejaVuSans-6f" x="538.916016"/>
     <use xlink:href="#DejaVuSans-69" x="600.097656"/>
     <use xlink:href="#DejaVuSans-6e" x="627.880859"/>
     <use xlink:href="#DejaVuSans-74" x="691.259766"/>
     <use xlink:href="#DejaVuSans-73" x="730.46875"/>
     <use xlink:href="#DejaVuSans-69" x="782.568359"/>
     <use xlink:href="#DejaVuSans-7a" x="810.351562"/>
     <use xlink:href="#DejaVuSans-65" x="862.841797"/>
     <use xlink:href="#DejaVuSans-3d" x="924.365234"/>
     <use xlink:href="#DejaVuSans-31" x="1008.154297"/>
     <use xlink:href="#DejaVuSans-30" x="1071.777344"/>
     <use xlink:href="#DejaVuSans-29" x="1135.400391"/>
     <use xlink:href="#DejaVuSans-2c" x="1174.414062"/>
     <use xlink:href="#DejaVuSans-20" x="1206.201172"/>
     <use xlink:href="#DejaVuSans-6d" x="1237.988281"/>
     <use xlink:href="#DejaVuSans-61" x="1335.400391"/>
     <use xlink:href="#DejaVuSans-72" x="1396.679688"/>
     <use xlink:href="#DejaVuSans-6b" x="1437.792969"/>
     <use xlink:href="#DejaVuSans-65" x="1492.078125"/>
     <use xlink:href="#DejaVuSans-72" x="1553.601562"/>
     <use xlink:href="#DejaVuSans-3d" x="1594.714844"/>
     <use xlink:href="#DejaVuSans-27" x="1678.503906"/>
     <use xlink:href="#DejaVuSans-76" x="1705.994141"/>
     <use xlink:href="#DejaVuSans-61" x="1765.173828"/>
     <use xlink:href="#DejaVuSans-72" x="1826.453125"/>
     <use xlink:href="#DejaVuSans-32" x="1867.566406"/>
     <use xlink:href="#DejaVuSans-27" x="1931.189453"/>
     <use xlink:href="#DejaVuSans-29" x="1958.679688"/>
    </g>
   </g>
   <g id="patch_5">
    <path d="M 176.4 49.213425  Q 176.4 61.406587 176.4 72.481714  " style="fill: none; stroke: #4c72b0; stroke-linecap: round"/>
    <path d="M 179.2 66.881714  L 176.4 72.481714  L 173.6 66.881714  " style="fill: none; stroke: #4c72b0; stroke-linecap: round"/>
   </g>
   <g id="text_3">
    <!-- Mapped -->
    <g style="fill: #4c72b0" transform="translate(148.431719 26.624656) scale(0.14 -0.14)">
     <defs>
      <path id="DejaVuSans-4d" d="M 628 4666  L 1569 4666  L 2759 1491  L 3956 4666  L 4897 4666  L 4897 0  L 4281 0  L 4281 4097  L 3078 897  L 2444 897  L 1241 4097  L 1241 0  L 628 0  L 628 4666  z " transform="scale(0.015625)"/>
     </defs>
     <use xlink:href="#DejaVuSans-4d"/>
     <use xlink:href="#DejaVuSans-61" x="86.279297"/>
     <use xlink:href="#DejaVuSans-70" x="147.558594"/>
     <use xlink:href="#DejaVuSans-70" x="211.035156"/>
     <use xlink:href="#DejaVuSans-65" x="274.511719"/>
     <use xlink:href="#DejaVuSans-64" x="336.035156"/>
    </g>
    <!-- in all layers -->
    <g style="fill: #4c72b0" transform="translate(136.181719 42.301594) scale(0.14 -0.14)">
     <use xlink:href="#DejaVuSans-69"/>
     <use xlink:href="#DejaVuSans-6e" x="27.783203"/>
     <use xlink:href="#DejaVuSans-20" x="91.162109"/>
     <use xlink:href="#DejaVuSans-61" x="122.949219"/>
     <use xlink:href="#DejaVuSans-6c" x="184.228516"/>
     <use xlink:href="#DejaVuSans-6c" x="212.011719"/>
     <use xlink:href="#DejaVuSans-20" x="239.794922"/>
     <use xlink:href="#DejaVuSans-6c" x="271.582031"/>
     <use xlink:href="#DejaVuSans-61" x="299.365234"/>
     <use xlink:href="#DejaVuSans-79" x="360.644531"/>
     <use xlink:href="#DejaVuSans-65" x="419.824219"/>
     <use xlink:href="#DejaVuSans-72" x="481.347656"/>
     <use xlink:href="#DejaVuSans-73" x="522.460938"/>
    </g>
   </g>
   <g id="patch_6">
    <path d="M 176.4 163.821524  Q 176.4 147.711257 176.4 132.719024  " style="fill: none; stroke: #dd8452; stroke-linecap: round"/>
    <path d="M 173.6 138.319024  L 176.4 132.719024  L 179.2 138.319024  " style="fill: none; stroke: #dd8452; stroke-linecap: round"/>
   </g>
   <g id="text_4">
    <!-- Set directly -->
    <g style="fill: #dd8452" transform="translate(136.583125 178.463125) scale(0.14 -0.14)">
     <defs>
      <path id="DejaVuSans-53" d="M 3425 4513  L 3425 3897  Q 3066 4069 2747 4153  Q 2428 4238 2131 4238  Q 1616 4238 1336 4038  Q 1056 3838 1056 3469  Q 1056 3159 1242 3001  Q 1428 2844 1947 2747  L 2328 2669  Q 3034 2534 3370 2195  Q 3706 1856 3706 1288  Q 3706 609 3251 259  Q 2797 -91 1919 -91  Q 1588 -91 1214 -16  Q 841 59 441 206  L 441 856  Q 825 641 1194 531  Q 1563 422 1919 422  Q 2459 422 2753 634  Q 3047 847 3047 1241  Q 3047 1584 2836 1778  Q 2625 1972 2144 2069  L 1759 2144  Q 1053 2284 737 2584  Q 422 2884 422 3419  Q 422 4038 858 4394  Q 1294 4750 2059 4750  Q 2388 4750 2728 4690  Q 3069 4631 3425 4513  z " transform="scale(0.015625)"/>
     </defs>
     <use xlink:href="#DejaVuSans-53"/>
     <use xlink:href="#DejaVuSans-65" x="63.476562"/>
     <use xlink:href="#DejaVuSans-74" x="125"/>
     <use xlink:href="#DejaVuSans-20" x="164.208984"/>
     <use xlink:href="#DejaVuSans-64" x="195.996094"/>
     <use xlink:href="#DejaVuSans-69" x="259.472656"/>
     <use xlink:href="#DejaVuSans-72" x="287.255859"/>
     <use xlink:href="#DejaVuSans-65" x="326.119141"/>
     <use xlink:href="#DejaVuSans-63" x="387.642578"/>
     <use xlink:href="#DejaVuSans-74" x="442.623047"/>
     <use xlink:href="#DejaVuSans-6c" x="481.832031"/>
     <use xlink:href="#DejaVuSans-79" x="509.615234"/>
    </g>
   </g>
   <g id="patch_7">
    <path d="M 317.52 155.986575  Q 317.52 143.793413 317.52 132.718286  " style="fill: none; stroke: #55a868; stroke-linecap: round"/>
    <path d="M 314.72 138.318286  L 317.52 132.718286  L 320.32 138.318286  " style="fill: none; stroke: #55a868; stroke-linecap: round"/>
   </g>
   <g id="text_5">
    <!-- Mapped -->
    <g style="fill: #55a868" transform="translate(289.551719 170.624656) scale(0.14 -0.14)">
     <use xlink:href="#DejaVuSans-4d"/>
     <use xlink:href="#DejaVuSans-61" x="86.279297"/>
     <use xlink:href="#DejaVuSans-70" x="147.558594"/>
     <use xlink:href="#DejaVuSans-70" x="211.035156"/>
     <use xlink:href="#DejaVuSans-65" x="274.511719"/>
     <use xlink:href="#DejaVuSans-64" x="336.035156"/>
    </g>
    <!-- in this layer -->
    <g style="fill: #55a868" transform="translate(276.355625 186.301594) scale(0.14 -0.14)">
     <defs>
      <path id="DejaVuSans-68" d="M 3513 2113  L 3513 0  L 2938 0  L 2938 2094  Q 2938 2591 2744 2837  Q 2550 3084 2163 3084  Q 1697 3084 1428 2787  Q 1159 2491 1159 1978  L 1159 0  L 581 0  L 581 4863  L 1159 4863  L 1159 2956  Q 1366 3272 1645 3428  Q 1925 3584 2291 3584  Q 2894 3584 3203 3211  Q 3513 2838 3513 2113  z " transform="scale(0.015625)"/>
     </defs>
     <use xlink:href="#DejaVuSans-69"/>
     <use xlink:href="#DejaVuSans-6e" x="27.783203"/>
     <use xlink:href="#DejaVuSans-20" x="91.162109"/>
     <use xlink:href="#DejaVuSans-74" x="122.949219"/>
     <use xlink:href="#DejaVuSans-68" x="162.158203"/>
     <use xlink:href="#DejaVuSans-69" x="225.537109"/>
     <use xlink:href="#DejaVuSans-73" x="253.320312"/>
     <use xlink:href="#DejaVuSans-20" x="305.419922"/>
     <use xlink:href="#DejaVuSans-6c" x="337.207031"/>
     <use xlink:href="#DejaVuSans-61" x="364.990234"/>
     <use xlink:href="#DejaVuSans-79" x="426.269531"/>
     <use xlink:href="#DejaVuSans-65" x="485.449219"/>
     <use xlink:href="#DejaVuSans-72" x="546.972656"/>
    </g>
   </g>
  </g>
 </g>
 <defs>
  <clipPath id="p57858e3188">
   <rect x="0" y="0" width="504" height="216"/>
  </clipPath>
 </defs>
</svg>