<?xml version="1.0" encoding="utf-8" standalone="no"?>
<!DOCTYPE svg PUBLIC "-//W3C//DTD SVG 1.1//EN"
  "http://www.w3.org/Graphics/SVG/1.1/DTD/svg11.dtd">
<svg xmlns:xlink="http://www.w3.org/1999/xlink" width="348.48pt" height="348.48pt" viewBox="0 0 348.48 348.48" xmlns="http://www.w3.org/2000/svg" version="1.1">
 <metadata>
  <rdf:RDF xmlns:dc="http://purl.org/dc/elements/1.1/" xmlns:cc="http://creativecommons.org/ns#" xmlns:rdf="http://www.w3.org/1999/02/22-rdf-syntax-ns#">
   <cc:Work>
    <dc:type rdf:resource="http://purl.org/dc/dcmitype/StillImage"/>
    <dc:date>2022-09-05T21:32:55.354466</dc:date>
    <dc:format>image/svg+xml</dc:format>
    <dc:creator>
     <cc:Agent>
      <dc:title>Matplotlib v3.6.0rc1, https://matplotlib.org/</dc:title>
     </cc:Agent>
    </dc:creator>
   </cc:Work>
  </rdf:RDF>
 </metadata>
 <defs>
  <style type="text/css">*{stroke-linejoin: round; stroke-linecap: butt}</style>
 </defs>
 <g id="figure_1">
  <g id="patch_1">
   <path d="M 0 348.48 
L 348.48 348.48 
L 348.48 0 
L 0 0 
z
" style="fill: #ffffff"/>
  </g>
  <g id="axes_1">
   <g id="patch_2">
    <path d="M 7.2 37.817143 
L 341.28 37.817143 
L 341.28 7.2 
L 7.2 7.2 
z
" style="fill: #ffffff"/>
   </g>
   <g id="matplotlib.axis_1">
    <g id="xtick_1">
     <g id="line2d_1">
      <defs>
       <path id="m0d6181e226" d="M 0 0 
L 0 6 
" style="stroke: #262626; stroke-width: 1.25"/>
      </defs>
      <g>
       <use xlink:href="#m0d6181e226" x="22.385455" y="37.817143" style="fill: #262626; stroke: #262626; stroke-width: 1.25"/>
      </g>
     </g>
    </g>
    <g id="xtick_2">
     <g id="line2d_2">
      <g>
       <use xlink:href="#m0d6181e226" x="56.130909" y="37.817143" style="fill: #262626; stroke: #262626; stroke-width: 1.25"/>
      </g>
     </g>
    </g>
    <g id="xtick_3">
     <g id="line2d_3">
      <g>
       <use xlink:href="#m0d6181e226" x="89.876364" y="37.817143" style="fill: #262626; stroke: #262626; stroke-width: 1.25"/>
      </g>
     </g>
    </g>
    <g id="xtick_4">
     <g id="line2d_4">
      <g>
       <use xlink:href="#m0d6181e226" x="123.621818" y="37.817143" style="fill: #262626; stroke: #262626; stroke-width: 1.25"/>
      </g>
     </g>
    </g>
    <g id="xtick_5">
     <g id="line2d_5">
      <g>
       <use xlink:href="#m0d6181e226" x="157.367273" y="37.817143" style="fill: #262626; stroke: #262626; stroke-width: 1.25"/>
      </g>
     </g>
    </g>
    <g id="xtick_6">
     <g id="line2d_6">
      <g>
       <use xlink:href="#m0d6181e226" x="191.112727" y="37.817143" style="fill: #262626; stroke: #262626; stroke-width: 1.25"/>
      </g>
     </g>
    </g>
    <g id="xtick_7">
     <g id="line2d_7">
      <g>
       <use xlink:href="#m0d6181e226" x="224.858182" y="37.817143" style="fill: #262626; stroke: #262626; stroke-width: 1.25"/>
      </g>
     </g>
    </g>
    <g id="xtick_8">
     <g id="line2d_8">
      <g>
       <use xlink:href="#m0d6181e226" x="258.603636" y="37.817143" style="fill: #262626; stroke: #262626; stroke-width: 1.25"/>
      </g>
     </g>
    </g>
    <g id="xtick_9">
     <g id="line2d_9">
      <g>
       <use xlink:href="#m0d6181e226" x="292.349091" y="37.817143" style="fill: #262626; stroke: #262626; stroke-width: 1.25"/>
      </g>
     </g>
    </g>
    <g id="xtick_10">
     <g id="line2d_10">
      <g>
       <use xlink:href="#m0d6181e226" x="326.094545" y="37.817143" style="fill: #262626; stroke: #262626; stroke-width: 1.25"/>
      </g>
     </g>
    </g>
   </g>
   <g id="matplotlib.axis_2"/>
   <g id="PathCollection_1">
    <path d="M 22.385455 32.570286 
C 24.241876 32.570286 26.022514 31.832722 27.335202 30.520033 
C 28.64789 29.207345 29.385455 27.426707 29.385455 25.570286 
C 29.385455 23.713864 28.64789 21.933227 27.335202 20.620538 
C 26.022514 19.30785 24.241876 18.570286 22.385455 18.570286 
C 20.529033 18.570286 18.748395 19.30785 17.435707 20.620538 
C 16.123019 21.933227 15.385455 23.713864 15.385455 25.570286 
C 15.385455 27.426707 16.123019 29.207345 17.435707 30.520033 
C 18.748395 31.832722 20.529033 32.570286 22.385455 32.570286 
z
" clip-path="url(#pb43f46aa41)" style="fill: #4c72b0; stroke: #4c72b0; stroke-width: 0.5"/>
    <path d="M 56.130909 32.570286 
C 57.987331 32.570286 59.767968 31.832722 61.080657 30.520033 
C 62.393345 29.207345 63.130909 27.426707 63.130909 25.570286 
C 63.130909 23.713864 62.393345 21.933227 61.080657 20.620538 
C 59.767968 19.30785 57.987331 18.570286 56.130909 18.570286 
C 54.274487 18.570286 52.49385 19.30785 51.181162 20.620538 
C 49.868473 21.933227 49.130909 23.713864 49.130909 25.570286 
C 49.130909 27.426707 49.868473 29.207345 51.181162 30.520033 
C 52.49385 31.832722 54.274487 32.570286 56.130909 32.570286 
z
" clip-path="url(#pb43f46aa41)" style="fill: #dd8452; stroke: #dd8452; stroke-width: 0.5"/>
    <path d="M 89.876364 32.570286 
C 91.732785 32.570286 93.513423 31.832722 94.826111 30.520033 
C 96.138799 29.207345 96.876364 27.426707 96.876364 25.570286 
C 96.876364 23.713864 96.138799 21.933227 94.826111 20.620538 
C 93.513423 19.30785 91.732785 18.570286 89.876364 18.570286 
C 88.019942 18.570286 86.239305 19.30785 84.926616 20.620538 
C 83.613928 21.933227 82.876364 23.713864 82.876364 25.570286 
C 82.876364 27.426707 83.613928 29.207345 84.926616 30.520033 
C 86.239305 31.832722 88.019942 32.570286 89.876364 32.570286 
z
" clip-path="url(#pb43f46aa41)" style="fill: #55a868; stroke: #55a868; stroke-width: 0.5"/>
    <path d="M 123.621818 32.570286 
C 125.47824 32.570286 127.258877 31.832722 128.571566 30.520033 
C 129.884254 29.207345 130.621818 27.426707 130.621818 25.570286 
C 130.621818 23.713864 129.884254 21.933227 128.571566 20.620538 
C 127.258877 19.30785 125.47824 18.570286 123.621818 18.570286 
C 121.765396 18.570286 119.984759 19.30785 118.672071 20.620538 
C 117.359382 21.933227 116.621818 23.713864 116.621818 25.570286 
C 116.621818 27.426707 117.359382 29.207345 118.672071 30.520033 
C 119.984759 31.832722 121.765396 32.570286 123.621818 32.570286 
z
" clip-path="url(#pb43f46aa41)" style="fill: #c44e52; stroke: #c44e52; stroke-width: 0.5"/>
    <path d="M 157.367273 32.570286 
C 159.223694 32.570286 161.004332 31.832722 162.31702 30.520033 
C 163.629709 29.207345 164.367273 27.426707 164.367273 25.570286 
C 164.367273 23.713864 163.629709 21.933227 162.31702 20.620538 
C 161.004332 19.30785 159.223694 18.570286 157.367273 18.570286 
C 155.510851 18.570286 153.730214 19.30785 152.417525 20.620538 
C 151.104837 21.933227 150.367273 23.713864 150.367273 25.570286 
C 150.367273 27.426707 151.104837 29.207345 152.417525 30.520033 
C 153.730214 31.832722 155.510851 32.570286 157.367273 32.570286 
z
" clip-path="url(#pb43f46aa41)" style="fill: #8172b3; stroke: #8172b3; stroke-width: 0.5"/>
    <path d="M 191.112727 32.570286 
C 192.969149 32.570286 194.749786 31.832722 196.062475 30.520033 
C 197.375163 29.207345 198.112727 27.426707 198.112727 25.570286 
C 198.112727 23.713864 197.375163 21.933227 196.062475 20.620538 
C 194.749786 19.30785 192.969149 18.570286 191.112727 18.570286 
C 189.256306 18.570286 187.475668 19.30785 186.16298 20.620538 
C 184.850291 21.933227 184.112727 23.713864 184.112727 25.570286 
C 184.112727 27.426707 184.850291 29.207345 186.16298 30.520033 
C 187.475668 31.832722 189.256306 32.570286 191.112727 32.570286 
z
" clip-path="url(#pb43f46aa41)" style="fill: #937860; stroke: #937860; stroke-width: 0.5"/>
    <path d="M 224.858182 32.570286 
C 226.714604 32.570286 228.495241 31.832722 229.807929 30.520033 
C 231.120618 29.207345 231.858182 27.426707 231.858182 25.570286 
C 231.858182 23.713864 231.120618 21.933227 229.807929 20.620538 
C 228.495241 19.30785 226.714604 18.570286 224.858182 18.570286 
C 223.00176 18.570286 221.221123 19.30785 219.908434 20.620538 
C 218.595746 21.933227 217.858182 23.713864 217.858182 25.570286 
C 217.858182 27.426707 218.595746 29.207345 219.908434 30.520033 
C 221.221123 31.832722 223.00176 32.570286 224.858182 32.570286 
z
" clip-path="url(#pb43f46aa41)" style="fill: #da8bc3; stroke: #da8bc3; stroke-width: 0.5"/>
    <path d="M 258.603636 32.570286 
C 260.460058 32.570286 262.240695 31.832722 263.553384 30.520033 
C 264.866072 29.207345 265.603636 27.426707 265.603636 25.570286 
C 265.603636 23.713864 264.866072 21.933227 263.553384 20.620538 
C 262.240695 19.30785 260.460058 18.570286 258.603636 18.570286 
C 256.747215 18.570286 254.966577 19.30785 253.653889 20.620538 
C 252.341201 21.933227 251.603636 23.713864 251.603636 25.570286 
C 251.603636 27.426707 252.341201 29.207345 253.653889 30.520033 
C 254.966577 31.832722 256.747215 32.570286 258.603636 32.570286 
z
" clip-path="url(#pb43f46aa41)" style="fill: #8c8c8c; stroke: #8c8c8c; stroke-width: 0.5"/>
    <path d="M 292.349091 32.570286 
C 294.205513 32.570286 295.98615 31.832722 297.298838 30.520033 
C 298.611527 29.207345 299.349091 27.426707 299.349091 25.570286 
C 299.349091 23.713864 298.611527 21.933227 297.298838 20.620538 
C 295.98615 19.30785 294.205513 18.570286 292.349091 18.570286 
C 290.492669 18.570286 288.712032 19.30785 287.399343 20.620538 
C 286.086655 21.933227 285.349091 23.713864 285.349091 25.570286 
C 285.349091 27.426707 286.086655 29.207345 287.399343 30.520033 
C 288.712032 31.832722 290.492669 32.570286 292.349091 32.570286 
z
" clip-path="url(#pb43f46aa41)" style="fill: #ccb974; stroke: #ccb974; stroke-width: 0.5"/>
    <path d="M 326.094545 32.570286 
C 327.950967 32.570286 329.731605 31.832722 331.044293 30.520033 
C 332.356981 29.207345 333.094545 27.426707 333.094545 25.570286 
C 333.094545 23.713864 332.356981 21.933227 331.044293 20.620538 
C 329.731605 19.30785 327.950967 18.570286 326.094545 18.570286 
C 324.238124 18.570286 322.457486 19.30785 321.144798 20.620538 
C 319.83211 21.933227 319.094545 23.713864 319.094545 25.570286 
C 319.094545 27.426707 319.83211 29.207345 321.144798 30.520033 
C 322.457486 31.832722 324.238124 32.570286 326.094545 32.570286 
z
" clip-path="url(#pb43f46aa41)" style="fill: #64b5cd; stroke: #64b5cd; stroke-width: 0.5"/>
   </g>
   <g id="patch_3">
    <path d="M 7.2 37.817143 
L 341.28 37.817143 
" style="fill: none; stroke: #262626; stroke-width: 1.25; stroke-linejoin: miter; stroke-linecap: square"/>
   </g>
  </g>
  <g id="axes_2">
   <g id="patch_4">
    <path d="M 7.2 87.394286 
L 341.28 87.394286 
L 341.28 56.777143 
L 7.2 56.777143 
z
" style="fill: #ffffff"/>
   </g>
   <g id="matplotlib.axis_3">
    <g id="xtick_11">
     <g id="line2d_11">
      <g>
       <use xlink:href="#m0d6181e226" x="22.385455" y="87.394286" style="fill: #262626; stroke: #262626; stroke-width: 1.25"/>
      </g>
     </g>
    </g>
    <g id="xtick_12">
     <g id="line2d_12">
      <g>
       <use xlink:href="#m0d6181e226" x="56.130909" y="87.394286" style="fill: #262626; stroke: #262626; stroke-width: 1.25"/>
      </g>
     </g>
    </g>
    <g id="xtick_13">
     <g id="line2d_13">
      <g>
       <use xlink:href="#m0d6181e226" x="89.876364" y="87.394286" style="fill: #262626; stroke: #262626; stroke-width: 1.25"/>
      </g>
     </g>
    </g>
    <g id="xtick_14">
     <g id="line2d_14">
      <g>
       <use xlink:href="#m0d6181e226" x="123.621818" y="87.394286" style="fill: #262626; stroke: #262626; stroke-width: 1.25"/>
      </g>
     </g>
    </g>
    <g id="xtick_15">
     <g id="line2d_15">
      <g>
       <use xlink:href="#m0d6181e226" x="157.367273" y="87.394286" style="fill: #262626; stroke: #262626; stroke-width: 1.25"/>
      </g>
     </g>
    </g>
    <g id="xtick_16">
     <g id="line2d_16">
      <g>
       <use xlink:href="#m0d6181e226" x="191.112727" y="87.394286" style="fill: #262626; stroke: #262626; stroke-width: 1.25"/>
      </g>
     </g>
    </g>
    <g id="xtick_17">
     <g id="line2d_17">
      <g>
       <use xlink:href="#m0d6181e226" x="224.858182" y="87.394286" style="fill: #262626; stroke: #262626; stroke-width: 1.25"/>
      </g>
     </g>
    </g>
    <g id="xtick_18">
     <g id="line2d_18">
      <g>
       <use xlink:href="#m0d6181e226" x="258.603636" y="87.394286" style="fill: #262626; stroke: #262626; stroke-width: 1.25"/>
      </g>
     </g>
    </g>
    <g id="xtick_19">
     <g id="line2d_19">
      <g>
       <use xlink:href="#m0d6181e226" x="292.349091" y="87.394286" style="fill: #262626; stroke: #262626; stroke-width: 1.25"/>
      </g>
     </g>
    </g>
    <g id="xtick_20">
     <g id="line2d_20">
      <g>
       <use xlink:href="#m0d6181e226" x="326.094545" y="87.394286" style="fill: #262626; stroke: #262626; stroke-width: 1.25"/>
      </g>
     </g>
    </g>
   </g>
   <g id="matplotlib.axis_4"/>
   <g id="PathCollection_2">
    <path d="M 22.385455 82.147429 
C 24.241876 82.147429 26.022514 81.409864 27.335202 80.097176 
C 28.64789 78.784488 29.385455 77.00385 29.385455 75.147429 
C 29.385455 73.291007 28.64789 71.510369 27.335202 70.197681 
C 26.022514 68.884993 24.241876 68.147429 22.385455 68.147429 
C 20.529033 68.147429 18.748395 68.884993 17.435707 70.197681 
C 16.123019 71.510369 15.385455 73.291007 15.385455 75.147429 
C 15.385455 77.00385 16.123019 78.784488 17.435707 80.097176 
C 18.748395 81.409864 20.529033 82.147429 22.385455 82.147429 
z
" clip-path="url(#p16414f1737)" style="fill: #4c4c4c; fill-opacity: 0.3; stroke: #4c4c4c; stroke-opacity: 0.3; stroke-width: 0.5"/>
    <path d="M 56.130909 82.147429 
C 57.987331 82.147429 59.767968 81.409864 61.080657 80.097176 
C 62.393345 78.784488 63.130909 77.00385 63.130909 75.147429 
C 63.130909 73.291007 62.393345 71.510369 61.080657 70.197681 
C 59.767968 68.884993 57.987331 68.147429 56.130909 68.147429 
C 54.274487 68.147429 52.49385 68.884993 51.181162 70.197681 
C 49.868473 71.510369 49.130909 73.291007 49.130909 75.147429 
C 49.130909 77.00385 49.868473 78.784488 51.181162 80.097176 
C 52.49385 81.409864 54.274487 82.147429 56.130909 82.147429 
z
" clip-path="url(#p16414f1737)" style="fill: #4c4c4c; fill-opacity: 0.372222; stroke: #4c4c4c; stroke-opacity: 0.372222; stroke-width: 0.5"/>
    <path d="M 89.876364 82.147429 
C 91.732785 82.147429 93.513423 81.409864 94.826111 80.097176 
C 96.138799 78.784488 96.876364 77.00385 96.876364 75.147429 
C 96.876364 73.291007 96.138799 71.510369 94.826111 70.197681 
C 93.513423 68.884993 91.732785 68.147429 89.876364 68.147429 
C 88.019942 68.147429 86.239305 68.884993 84.926616 70.197681 
C 83.613928 71.510369 82.876364 73.291007 82.876364 75.147429 
C 82.876364 77.00385 83.613928 78.784488 84.926616 80.097176 
C 86.239305 81.409864 88.019942 82.147429 89.876364 82.147429 
z
" clip-path="url(#p16414f1737)" style="fill: #4c4c4c; fill-opacity: 0.444444; stroke: #4c4c4c; stroke-opacity: 0.444444; stroke-width: 0.5"/>
    <path d="M 123.621818 82.147429 
C 125.47824 82.147429 127.258877 81.409864 128.571566 80.097176 
C 129.884254 78.784488 130.621818 77.00385 130.621818 75.147429 
C 130.621818 73.291007 129.884254 71.510369 128.571566 70.197681 
C 127.258877 68.884993 125.47824 68.147429 123.621818 68.147429 
C 121.765396 68.147429 119.984759 68.884993 118.672071 70.197681 
C 117.359382 71.510369 116.621818 73.291007 116.621818 75.147429 
C 116.621818 77.00385 117.359382 78.784488 118.672071 80.097176 
C 119.984759 81.409864 121.765396 82.147429 123.621818 82.147429 
z
" clip-path="url(#p16414f1737)" style="fill: #4c4c4c; fill-opacity: 0.516667; stroke: #4c4c4c; stroke-opacity: 0.516667; stroke-width: 0.5"/>
    <path d="M 157.367273 82.147429 
C 159.223694 82.147429 161.004332 81.409864 162.31702 80.097176 
C 163.629709 78.784488 164.367273 77.00385 164.367273 75.147429 
C 164.367273 73.291007 163.629709 71.510369 162.31702 70.197681 
C 161.004332 68.884993 159.223694 68.147429 157.367273 68.147429 
C 155.510851 68.147429 153.730214 68.884993 152.417525 70.197681 
C 151.104837 71.510369 150.367273 73.291007 150.367273 75.147429 
C 150.367273 77.00385 151.104837 78.784488 152.417525 80.097176 
C 153.730214 81.409864 155.510851 82.147429 157.367273 82.147429 
z
" clip-path="url(#p16414f1737)" style="fill: #4c4c4c; fill-opacity: 0.588889; stroke: #4c4c4c; stroke-opacity: 0.588889; stroke-width: 0.5"/>
    <path d="M 191.112727 82.147429 
C 192.969149 82.147429 194.749786 81.409864 196.062475 80.097176 
C 197.375163 78.784488 198.112727 77.00385 198.112727 75.147429 
C 198.112727 73.291007 197.375163 71.510369 196.062475 70.197681 
C 194.749786 68.884993 192.969149 68.147429 191.112727 68.147429 
C 189.256306 68.147429 187.475668 68.884993 186.16298 70.197681 
C 184.850291 71.510369 184.112727 73.291007 184.112727 75.147429 
C 184.112727 77.00385 184.850291 78.784488 186.16298 80.097176 
C 187.475668 81.409864 189.256306 82.147429 191.112727 82.147429 
z
" clip-path="url(#p16414f1737)" style="fill: #4c4c4c; fill-opacity: 0.661111; stroke: #4c4c4c; stroke-opacity: 0.661111; stroke-width: 0.5"/>
    <path d="M 224.858182 82.147429 
C 226.714604 82.147429 228.495241 81.409864 229.807929 80.097176 
C 231.120618 78.784488 231.858182 77.00385 231.858182 75.147429 
C 231.858182 73.291007 231.120618 71.510369 229.807929 70.197681 
C 228.495241 68.884993 226.714604 68.147429 224.858182 68.147429 
C 223.00176 68.147429 221.221123 68.884993 219.908434 70.197681 
C 218.595746 71.510369 217.858182 73.291007 217.858182 75.147429 
C 217.858182 77.00385 218.595746 78.784488 219.908434 80.097176 
C 221.221123 81.409864 223.00176 82.147429 224.858182 82.147429 
z
" clip-path="url(#p16414f1737)" style="fill: #4c4c4c; fill-opacity: 0.733333; stroke: #4c4c4c; stroke-opacity: 0.733333; stroke-width: 0.5"/>
    <path d="M 258.603636 82.147429 
C 260.460058 82.147429 262.240695 81.409864 263.553384 80.097176 
C 264.866072 78.784488 265.603636 77.00385 265.603636 75.147429 
C 265.603636 73.291007 264.866072 71.510369 263.553384 70.197681 
C 262.240695 68.884993 260.460058 68.147429 258.603636 68.147429 
C 256.747215 68.147429 254.966577 68.884993 253.653889 70.197681 
C 252.341201 71.510369 251.603636 73.291007 251.603636 75.147429 
C 251.603636 77.00385 252.341201 78.784488 253.653889 80.097176 
C 254.966577 81.409864 256.747215 82.147429 258.603636 82.147429 
z
" clip-path="url(#p16414f1737)" style="fill: #4c4c4c; fill-opacity: 0.805556; stroke: #4c4c4c; stroke-opacity: 0.805556; stroke-width: 0.5"/>
    <path d="M 292.349091 82.147429 
C 294.205513 82.147429 295.98615 81.409864 297.298838 80.097176 
C 298.611527 78.784488 299.349091 77.00385 299.349091 75.147429 
C 299.349091 73.291007 298.611527 71.510369 297.298838 70.197681 
C 295.98615 68.884993 294.205513 68.147429 292.349091 68.147429 
C 290.492669 68.147429 288.712032 68.884993 287.399343 70.197681 
C 286.086655 71.510369 285.349091 73.291007 285.349091 75.147429 
C 285.349091 77.00385 286.086655 78.784488 287.399343 80.097176 
C 288.712032 81.409864 290.492669 82.147429 292.349091 82.147429 
z
" clip-path="url(#p16414f1737)" style="fill: #4c4c4c; fill-opacity: 0.877778; stroke: #4c4c4c; stroke-opacity: 0.877778; stroke-width: 0.5"/>
    <path d="M 326.094545 82.147429 
C 327.950967 82.147429 329.731605 81.409864 331.044293 80.097176 
C 332.356981 78.784488 333.094545 77.00385 333.094545 75.147429 
C 333.094545 73.291007 332.356981 71.510369 331.044293 70.197681 
C 329.731605 68.884993 327.950967 68.147429 326.094545 68.147429 
C 324.238124 68.147429 322.457486 68.884993 321.144798 70.197681 
C 319.83211 71.510369 319.094545 73.291007 319.094545 75.147429 
C 319.094545 77.00385 319.83211 78.784488 321.144798 80.097176 
C 322.457486 81.409864 324.238124 82.147429 326.094545 82.147429 
z
" clip-path="url(#p16414f1737)" style="fill: #4c4c4c; fill-opacity: 0.95; stroke: #4c4c4c; stroke-opacity: 0.95; stroke-width: 0.5"/>
   </g>
   <g id="patch_5">
    <path d="M 7.2 87.394286 
L 341.28 87.394286 
" style="fill: none; stroke: #262626; stroke-width: 1.25; stroke-linejoin: miter; stroke-linecap: square"/>
   </g>
  </g>
  <g id="axes_3">
   <g id="patch_6">
    <path d="M 7.2 136.971429 
L 341.28 136.971429 
L 341.28 106.354286 
L 7.2 106.354286 
z
" style="fill: #ffffff"/>
   </g>
   <g id="matplotlib.axis_5">
    <g id="xtick_21">
     <g id="line2d_21">
      <g>
       <use xlink:href="#m0d6181e226" x="22.385455" y="136.971429" style="fill: #262626; stroke: #262626; stroke-width: 1.25"/>
      </g>
     </g>
    </g>
    <g id="xtick_22">
     <g id="line2d_22">
      <g>
       <use xlink:href="#m0d6181e226" x="56.130909" y="136.971429" style="fill: #262626; stroke: #262626; stroke-width: 1.25"/>
      </g>
     </g>
    </g>
    <g id="xtick_23">
     <g id="line2d_23">
      <g>
       <use xlink:href="#m0d6181e226" x="89.876364" y="136.971429" style="fill: #262626; stroke: #262626; stroke-width: 1.25"/>
      </g>
     </g>
    </g>
    <g id="xtick_24">
     <g id="line2d_24">
      <g>
       <use xlink:href="#m0d6181e226" x="123.621818" y="136.971429" style="fill: #262626; stroke: #262626; stroke-width: 1.25"/>
      </g>
     </g>
    </g>
    <g id="xtick_25">
     <g id="line2d_25">
      <g>
       <use xlink:href="#m0d6181e226" x="157.367273" y="136.971429" style="fill: #262626; stroke: #262626; stroke-width: 1.25"/>
      </g>
     </g>
    </g>
    <g id="xtick_26">
     <g id="line2d_26">
      <g>
       <use xlink:href="#m0d6181e226" x="191.112727" y="136.971429" style="fill: #262626; stroke: #262626; stroke-width: 1.25"/>
      </g>
     </g>
    </g>
    <g id="xtick_27">
     <g id="line2d_27">
      <g>
       <use xlink:href="#m0d6181e226" x="224.858182" y="136.971429" style="fill: #262626; stroke: #262626; stroke-width: 1.25"/>
      </g>
     </g>
    </g>
    <g id="xtick_28">
     <g id="line2d_28">
      <g>
       <use xlink:href="#m0d6181e226" x="258.603636" y="136.971429" style="fill: #262626; stroke: #262626; stroke-width: 1.25"/>
      </g>
     </g>
    </g>
    <g id="xtick_29">
     <g id="line2d_29">
      <g>
       <use xlink:href="#m0d6181e226" x="292.349091" y="136.971429" style="fill: #262626; stroke: #262626; stroke-width: 1.25"/>
      </g>
     </g>
    </g>
    <g id="xtick_30">
     <g id="line2d_30">
      <g>
       <use xlink:href="#m0d6181e226" x="326.094545" y="136.971429" style="fill: #262626; stroke: #262626; stroke-width: 1.25"/>
      </g>
     </g>
    </g>
   </g>
   <g id="matplotlib.axis_6"/>
   <g id="PathCollection_3">
    <path d="M 22.385455 131.724571 
C 24.241876 131.724571 26.022514 130.987007 27.335202 129.674319 
C 28.64789 128.361631 29.385455 126.580993 29.385455 124.724571 
C 29.385455 122.86815 28.64789 121.087512 27.335202 119.774824 
C 26.022514 118.462136 24.241876 117.724571 22.385455 117.724571 
C 20.529033 117.724571 18.748395 118.462136 17.435707 119.774824 
C 16.123019 121.087512 15.385455 122.86815 15.385455 124.724571 
C 15.385455 126.580993 16.123019 128.361631 17.435707 129.674319 
C 18.748395 130.987007 20.529033 131.724571 22.385455 131.724571 
z
" clip-path="url(#p5300fc3ee2)" style="fill: #e6e6e6; stroke: #edd1cb; stroke-width: 2"/>
    <path d="M 56.130909 131.724571 
C 57.987331 131.724571 59.767968 130.987007 61.080657 129.674319 
C 62.393345 128.361631 63.130909 126.580993 63.130909 124.724571 
C 63.130909 122.86815 62.393345 121.087512 61.080657 119.774824 
C 59.767968 118.462136 57.987331 117.724571 56.130909 117.724571 
C 54.274487 117.724571 52.49385 118.462136 51.181162 119.774824 
C 49.868473 121.087512 49.130909 122.86815 49.130909 124.724571 
C 49.130909 126.580993 49.868473 128.361631 51.181162 129.674319 
C 52.49385 130.987007 54.274487 131.724571 56.130909 131.724571 
z
" clip-path="url(#p5300fc3ee2)" style="fill: #e6e6e6; stroke: #e4b8b8; stroke-width: 2"/>
    <path d="M 89.876364 131.724571 
C 91.732785 131.724571 93.513423 130.987007 94.826111 129.674319 
C 96.138799 128.361631 96.876364 126.580993 96.876364 124.724571 
C 96.876364 122.86815 96.138799 121.087512 94.826111 119.774824 
C 93.513423 118.462136 91.732785 117.724571 89.876364 117.724571 
C 88.019942 117.724571 86.239305 118.462136 84.926616 119.774824 
C 83.613928 121.087512 82.876364 122.86815 82.876364 124.724571 
C 82.876364 126.580993 83.613928 128.361631 84.926616 129.674319 
C 86.239305 130.987007 88.019942 131.724571 89.876364 131.724571 
z
" clip-path="url(#p5300fc3ee2)" style="fill: #e6e6e6; stroke: #d8a0aa; stroke-width: 2"/>
    <path d="M 123.621818 131.724571 
C 125.47824 131.724571 127.258877 130.987007 128.571566 129.674319 
C 129.884254 128.361631 130.621818 126.580993 130.621818 124.724571 
C 130.621818 122.86815 129.884254 121.087512 128.571566 119.774824 
C 127.258877 118.462136 125.47824 117.724571 123.621818 117.724571 
C 121.765396 117.724571 119.984759 118.462136 118.672071 119.774824 
C 117.359382 121.087512 116.621818 122.86815 116.621818 124.724571 
C 116.621818 126.580993 117.359382 128.361631 118.672071 129.674319 
C 119.984759 130.987007 121.765396 131.724571 123.621818 131.724571 
z
" clip-path="url(#p5300fc3ee2)" style="fill: #e6e6e6; stroke: #c8879e; stroke-width: 2"/>
    <path d="M 157.367273 131.724571 
C 159.223694 131.724571 161.004332 130.987007 162.31702 129.674319 
C 163.629709 128.361631 164.367273 126.580993 164.367273 124.724571 
C 164.367273 122.86815 163.629709 121.087512 162.31702 119.774824 
C 161.004332 118.462136 159.223694 117.724571 157.367273 117.724571 
C 155.510851 117.724571 153.730214 118.462136 152.417525 119.774824 
C 151.104837 121.087512 150.367273 122.86815 150.367273 124.724571 
C 150.367273 126.580993 151.104837 128.361631 152.417525 129.674319 
C 153.730214 130.987007 155.510851 131.724571 157.367273 131.724571 
z
" clip-path="url(#p5300fc3ee2)" style="fill: #e6e6e6; stroke: #b57294; stroke-width: 2"/>
    <path d="M 191.112727 131.724571 
C 192.969149 131.724571 194.749786 130.987007 196.062475 129.674319 
C 197.375163 128.361631 198.112727 126.580993 198.112727 124.724571 
C 198.112727 122.86815 197.375163 121.087512 196.062475 119.774824 
C 194.749786 118.462136 192.969149 117.724571 191.112727 117.724571 
C 189.256306 117.724571 187.475668 118.462136 186.16298 119.774824 
C 184.850291 121.087512 184.112727 122.86815 184.112727 124.724571 
C 184.112727 126.580993 184.850291 128.361631 186.16298 129.674319 
C 187.475668 130.987007 189.256306 131.724571 191.112727 131.724571 
z
" clip-path="url(#p5300fc3ee2)" style="fill: #e6e6e6; stroke: #9d5d89; stroke-width: 2"/>
    <path d="M 224.858182 131.724571 
C 226.714604 131.724571 228.495241 130.987007 229.807929 129.674319 
C 231.120618 128.361631 231.858182 126.580993 231.858182 124.724571 
C 231.858182 122.86815 231.120618 121.087512 229.807929 119.774824 
C 228.495241 118.462136 226.714604 117.724571 224.858182 117.724571 
C 223.00176 117.724571 221.221123 118.462136 219.908434 119.774824 
C 218.595746 121.087512 217.858182 122.86815 217.858182 124.724571 
C 217.858182 126.580993 218.595746 128.361631 219.908434 129.674319 
C 221.221123 130.987007 223.00176 131.724571 224.858182 131.724571 
z
" clip-path="url(#p5300fc3ee2)" style="fill: #e6e6e6; stroke: #834c7d; stroke-width: 2"/>
    <path d="M 258.603636 131.724571 
C 260.460058 131.724571 262.240695 130.987007 263.553384 129.674319 
C 264.866072 128.361631 265.603636 126.580993 265.603636 124.724571 
C 265.603636 122.86815 264.866072 121.087512 263.553384 119.774824 
C 262.240695 118.462136 260.460058 117.724571 258.603636 117.724571 
C 256.747215 117.724571 254.966577 118.462136 253.653889 119.774824 
C 252.341201 121.087512 251.603636 122.86815 251.603636 124.724571 
C 251.603636 126.580993 252.341201 128.361631 253.653889 129.674319 
C 254.966577 130.987007 256.747215 131.724571 258.603636 131.724571 
z
" clip-path="url(#p5300fc3ee2)" style="fill: #e6e6e6; stroke: #653b6c; stroke-width: 2"/>
    <path d="M 292.349091 131.724571 
C 294.205513 131.724571 295.98615 130.987007 297.298838 129.674319 
C 298.611527 128.361631 299.349091 126.580993 299.349091 124.724571 
C 299.349091 122.86815 298.611527 121.087512 297.298838 119.774824 
C 295.98615 118.462136 294.205513 117.724571 292.349091 117.724571 
C 290.492669 117.724571 288.712032 118.462136 287.399343 119.774824 
C 286.086655 121.087512 285.349091 122.86815 285.349091 124.724571 
C 285.349091 126.580993 286.086655 128.361631 287.399343 129.674319 
C 288.712032 130.987007 290.492669 131.724571 292.349091 131.724571 
z
" clip-path="url(#p5300fc3ee2)" style="fill: #e6e6e6; stroke: #492d58; stroke-width: 2"/>
    <path d="M 326.094545 131.724571 
C 327.950967 131.724571 329.731605 130.987007 331.044293 129.674319 
C 332.356981 128.361631 333.094545 126.580993 333.094545 124.724571 
C 333.094545 122.86815 332.356981 121.087512 331.044293 119.774824 
C 329.731605 118.462136 327.950967 117.724571 326.094545 117.724571 
C 324.238124 117.724571 322.457486 118.462136 321.144798 119.774824 
C 319.83211 121.087512 319.094545 122.86815 319.094545 124.724571 
C 319.094545 126.580993 319.83211 128.361631 321.144798 129.674319 
C 322.457486 130.987007 324.238124 131.724571 326.094545 131.724571 
z
" clip-path="url(#p5300fc3ee2)" style="fill: #e6e6e6; stroke: #2d1e3e; stroke-width: 2"/>
   </g>
   <g id="patch_7">
    <path d="M 7.2 136.971429 
L 341.28 136.971429 
" style="fill: none; stroke: #262626; stroke-width: 1.25; stroke-linejoin: miter; stroke-linecap: square"/>
   </g>
  </g>
  <g id="axes_4">
   <g id="patch_8">
    <path d="M 7.2 186.548571 
L 341.28 186.548571 
L 341.28 155.931429 
L 7.2 155.931429 
z
" style="fill: #ffffff"/>
   </g>
   <g id="matplotlib.axis_7">
    <g id="xtick_31">
     <g id="line2d_31">
      <g>
       <use xlink:href="#m0d6181e226" x="22.385455" y="186.548571" style="fill: #262626; stroke: #262626; stroke-width: 1.25"/>
      </g>
     </g>
    </g>
    <g id="xtick_32">
     <g id="line2d_32">
      <g>
       <use xlink:href="#m0d6181e226" x="56.130909" y="186.548571" style="fill: #262626; stroke: #262626; stroke-width: 1.25"/>
      </g>
     </g>
    </g>
    <g id="xtick_33">
     <g id="line2d_33">
      <g>
       <use xlink:href="#m0d6181e226" x="89.876364" y="186.548571" style="fill: #262626; stroke: #262626; stroke-width: 1.25"/>
      </g>
     </g>
    </g>
    <g id="xtick_34">
     <g id="line2d_34">
      <g>
       <use xlink:href="#m0d6181e226" x="123.621818" y="186.548571" style="fill: #262626; stroke: #262626; stroke-width: 1.25"/>
      </g>
     </g>
    </g>
    <g id="xtick_35">
     <g id="line2d_35">
      <g>
       <use xlink:href="#m0d6181e226" x="157.367273" y="186.548571" style="fill: #262626; stroke: #262626; stroke-width: 1.25"/>
      </g>
     </g>
    </g>
    <g id="xtick_36">
     <g id="line2d_36">
      <g>
       <use xlink:href="#m0d6181e226" x="191.112727" y="186.548571" style="fill: #262626; stroke: #262626; stroke-width: 1.25"/>
      </g>
     </g>
    </g>
    <g id="xtick_37">
     <g id="line2d_37">
      <g>
       <use xlink:href="#m0d6181e226" x="224.858182" y="186.548571" style="fill: #262626; stroke: #262626; stroke-width: 1.25"/>
      </g>
     </g>
    </g>
    <g id="xtick_38">
     <g id="line2d_38">
      <g>
       <use xlink:href="#m0d6181e226" x="258.603636" y="186.548571" style="fill: #262626; stroke: #262626; stroke-width: 1.25"/>
      </g>
     </g>
    </g>
    <g id="xtick_39">
     <g id="line2d_39">
      <g>
       <use xlink:href="#m0d6181e226" x="292.349091" y="186.548571" style="fill: #262626; stroke: #262626; stroke-width: 1.25"/>
      </g>
     </g>
    </g>
    <g id="xtick_40">
     <g id="line2d_40">
      <g>
       <use xlink:href="#m0d6181e226" x="326.094545" y="186.548571" style="fill: #262626; stroke: #262626; stroke-width: 1.25"/>
      </g>
     </g>
    </g>
   </g>
   <g id="matplotlib.axis_8"/>
   <g id="PathCollection_4">
    <path d="M 22.385455 176.301714 
C 22.915861 176.301714 23.424614 176.090982 23.799668 175.715928 
C 24.174722 175.340874 24.385455 174.83212 24.385455 174.301714 
C 24.385455 173.771308 24.174722 173.262555 23.799668 172.887501 
C 23.424614 172.512447 22.915861 172.301714 22.385455 172.301714 
C 21.855048 172.301714 21.346295 172.512447 20.971241 172.887501 
C 20.596187 173.262555 20.385455 173.771308 20.385455 174.301714 
C 20.385455 174.83212 20.596187 175.340874 20.971241 175.715928 
C 21.346295 176.090982 21.855048 176.301714 22.385455 176.301714 
z
" clip-path="url(#pa037735317)" style="fill: #4c4c4c; stroke: #4c4c4c; stroke-width: 0.5"/>
    <path d="M 56.130909 177.845096 
C 57.070625 177.845096 57.971979 177.471743 58.636458 176.807264 
C 59.300938 176.142784 59.674291 175.24143 59.674291 174.301714 
C 59.674291 173.361998 59.300938 172.460644 58.636458 171.796165 
C 57.971979 171.131685 57.070625 170.758332 56.130909 170.758332 
C 55.191193 170.758332 54.289839 171.131685 53.62536 171.796165 
C 52.96088 172.460644 52.587527 173.361998 52.587527 174.301714 
C 52.587527 175.24143 52.96088 176.142784 53.62536 176.807264 
C 54.289839 177.471743 55.191193 177.845096 56.130909 177.845096 
z
" clip-path="url(#pa037735317)" style="fill: #4c4c4c; stroke: #4c4c4c; stroke-width: 0.5"/>
    <path d="M 89.876364 178.896397 
C 91.094888 178.896397 92.263668 178.412272 93.125295 177.550646 
C 93.986922 176.689019 94.471047 175.520238 94.471047 174.301714 
C 94.471047 173.08319 93.986922 171.91441 93.125295 171.052783 
C 92.263668 170.191156 91.094888 169.707031 89.876364 169.707031 
C 88.657839 169.707031 87.489059 170.191156 86.627432 171.052783 
C 85.765805 171.91441 85.281681 173.08319 85.281681 174.301714 
C 85.281681 175.520238 85.765805 176.689019 86.627432 177.550646 
C 87.489059 178.412272 88.657839 178.896397 89.876364 178.896397 
z
" clip-path="url(#pa037735317)" style="fill: #4c4c4c; stroke: #4c4c4c; stroke-width: 0.5"/>
    <path d="M 123.621818 179.748426 
C 125.066303 179.748426 126.45182 179.174526 127.473225 178.153121 
C 128.49463 177.131716 129.06853 175.746199 129.06853 174.301714 
C 129.06853 172.857229 128.49463 171.471713 127.473225 170.450308 
C 126.45182 169.428903 125.066303 168.855003 123.621818 168.855003 
C 122.177333 168.855003 120.791817 169.428903 119.770412 170.450308 
C 118.749007 171.471713 118.175107 172.857229 118.175107 174.301714 
C 118.175107 175.746199 118.749007 177.131716 119.770412 178.153121 
C 120.791817 179.174526 122.177333 179.748426 123.621818 179.748426 
z
" clip-path="url(#pa037735317)" style="fill: #4c4c4c; stroke: #4c4c4c; stroke-width: 0.5"/>
    <path d="M 157.367273 180.484127 
C 159.006868 180.484127 160.57953 179.832709 161.738898 178.67334 
C 162.898267 177.513971 163.549685 175.941309 163.549685 174.301714 
C 163.549685 172.662119 162.898267 171.089457 161.738898 169.930089 
C 160.57953 168.77072 159.006868 168.119302 157.367273 168.119302 
C 155.727678 168.119302 154.155016 168.77072 152.995647 169.930089 
C 151.836278 171.089457 151.18486 172.662119 151.18486 174.301714 
C 151.18486 175.941309 151.836278 177.513971 152.995647 178.67334 
C 154.155016 179.832709 155.727678 180.484127 157.367273 180.484127 
z
" clip-path="url(#pa037735317)" style="fill: #4c4c4c; stroke: #4c4c4c; stroke-width: 0.5"/>
    <path d="M 191.112727 181.141142 
C 192.926565 181.141142 194.666356 180.420497 195.948933 179.13792 
C 197.23151 177.855343 197.952155 176.115552 197.952155 174.301714 
C 197.952155 172.487877 197.23151 170.748085 195.948933 169.465508 
C 194.666356 168.182931 192.926565 167.462286 191.112727 167.462286 
C 189.29889 167.462286 187.559098 168.182931 186.276521 169.465508 
C 184.993944 170.748085 184.273299 172.487877 184.273299 174.301714 
C 184.273299 176.115552 184.993944 177.855343 186.276521 179.13792 
C 187.559098 180.420497 189.29889 181.141142 191.112727 181.141142 
z
" clip-path="url(#pa037735317)" style="fill: #4c4c4c; stroke: #4c4c4c; stroke-width: 0.5"/>
    <path d="M 224.858182 181.740352 
C 226.830932 181.740352 228.723148 180.95657 230.118093 179.561626 
C 231.513038 178.166681 232.29682 176.274464 232.29682 174.301714 
C 232.29682 172.328964 231.513038 170.436748 230.118093 169.041803 
C 228.723148 167.646858 226.830932 166.863076 224.858182 166.863076 
C 222.885432 166.863076 220.993215 167.646858 219.598271 169.041803 
C 218.203326 170.436748 217.419544 172.328964 217.419544 174.301714 
C 217.419544 176.274464 218.203326 178.166681 219.598271 179.561626 
C 220.993215 180.95657 222.885432 181.740352 224.858182 181.740352 
z
" clip-path="url(#pa037735317)" style="fill: #4c4c4c; stroke: #4c4c4c; stroke-width: 0.5"/>
    <path d="M 258.603636 182.294767 
C 260.723419 182.294767 262.756666 181.452568 264.255578 179.953656 
C 265.75449 178.454743 266.596689 176.421497 266.596689 174.301714 
C 266.596689 172.181932 265.75449 170.148685 264.255578 168.649773 
C 262.756666 167.15086 260.723419 166.308662 258.603636 166.308662 
C 256.483854 166.308662 254.450607 167.15086 252.951695 168.649773 
C 251.452782 170.148685 250.610584 172.181932 250.610584 174.301714 
C 250.610584 176.421497 251.452782 178.454743 252.951695 179.953656 
C 254.450607 181.452568 256.483854 182.294767 258.603636 182.294767 
z
" clip-path="url(#pa037735317)" style="fill: #4c4c4c; stroke: #4c4c4c; stroke-width: 0.5"/>
    <path d="M 292.349091 182.813145 
C 294.606349 182.813145 296.771459 181.916327 298.367581 180.320204 
C 299.963703 178.724082 300.860521 176.558972 300.860521 174.301714 
C 300.860521 172.044457 299.963703 169.879346 298.367581 168.283224 
C 296.771459 166.687102 294.606349 165.790284 292.349091 165.790284 
C 290.091833 165.790284 287.926723 166.687102 286.330601 168.283224 
C 284.734479 169.879346 283.837661 172.044457 283.837661 174.301714 
C 283.837661 176.558972 284.734479 178.724082 286.330601 180.320204 
C 287.926723 181.916327 290.091833 182.813145 292.349091 182.813145 
z
" clip-path="url(#pa037735317)" style="fill: #4c4c4c; stroke: #4c4c4c; stroke-width: 0.5"/>
    <path d="M 326.094545 183.301714 
C 328.481373 183.301714 330.770764 182.353418 332.458506 180.665675 
C 334.146249 178.977933 335.094545 176.688542 335.094545 174.301714 
C 335.094545 171.914886 334.146249 169.625495 332.458506 167.937753 
C 330.770764 166.250011 328.481373 165.301714 326.094545 165.301714 
C 323.707718 165.301714 321.418327 166.250011 319.730584 167.937753 
C 318.042842 169.625495 317.094545 171.914886 317.094545 174.301714 
C 317.094545 176.688542 318.042842 178.977933 319.730584 180.665675 
C 321.418327 182.353418 323.707718 183.301714 326.094545 183.301714 
z
" clip-path="url(#pa037735317)" style="fill: #4c4c4c; stroke: #4c4c4c; stroke-width: 0.5"/>
   </g>
   <g id="patch_9">
    <path d="M 7.2 186.548571 
L 341.28 186.548571 
" style="fill: none; stroke: #262626; stroke-width: 1.25; stroke-linejoin: miter; stroke-linecap: square"/>
   </g>
  </g>
  <g id="axes_5">
   <g id="patch_10">
    <path d="M 7.2 236.125714 
L 341.28 236.125714 
L 341.28 205.508571 
L 7.2 205.508571 
z
" style="fill: #ffffff"/>
   </g>
   <g id="matplotlib.axis_9">
    <g id="xtick_41">
     <g id="line2d_41">
      <g>
       <use xlink:href="#m0d6181e226" x="22.385455" y="236.125714" style="fill: #262626; stroke: #262626; stroke-width: 1.25"/>
      </g>
     </g>
    </g>
    <g id="xtick_42">
     <g id="line2d_42">
      <g>
       <use xlink:href="#m0d6181e226" x="56.130909" y="236.125714" style="fill: #262626; stroke: #262626; stroke-width: 1.25"/>
      </g>
     </g>
    </g>
    <g id="xtick_43">
     <g id="line2d_43">
      <g>
       <use xlink:href="#m0d6181e226" x="89.876364" y="236.125714" style="fill: #262626; stroke: #262626; stroke-width: 1.25"/>
      </g>
     </g>
    </g>
    <g id="xtick_44">
     <g id="line2d_44">
      <g>
       <use xlink:href="#m0d6181e226" x="123.621818" y="236.125714" style="fill: #262626; stroke: #262626; stroke-width: 1.25"/>
      </g>
     </g>
    </g>
    <g id="xtick_45">
     <g id="line2d_45">
      <g>
       <use xlink:href="#m0d6181e226" x="157.367273" y="236.125714" style="fill: #262626; stroke: #262626; stroke-width: 1.25"/>
      </g>
     </g>
    </g>
    <g id="xtick_46">
     <g id="line2d_46">
      <g>
       <use xlink:href="#m0d6181e226" x="191.112727" y="236.125714" style="fill: #262626; stroke: #262626; stroke-width: 1.25"/>
      </g>
     </g>
    </g>
    <g id="xtick_47">
     <g id="line2d_47">
      <g>
       <use xlink:href="#m0d6181e226" x="224.858182" y="236.125714" style="fill: #262626; stroke: #262626; stroke-width: 1.25"/>
      </g>
     </g>
    </g>
    <g id="xtick_48">
     <g id="line2d_48">
      <g>
       <use xlink:href="#m0d6181e226" x="258.603636" y="236.125714" style="fill: #262626; stroke: #262626; stroke-width: 1.25"/>
      </g>
     </g>
    </g>
    <g id="xtick_49">
     <g id="line2d_49">
      <g>
       <use xlink:href="#m0d6181e226" x="292.349091" y="236.125714" style="fill: #262626; stroke: #262626; stroke-width: 1.25"/>
      </g>
     </g>
    </g>
    <g id="xtick_50">
     <g id="line2d_50">
      <g>
       <use xlink:href="#m0d6181e226" x="326.094545" y="236.125714" style="fill: #262626; stroke: #262626; stroke-width: 1.25"/>
      </g>
     </g>
    </g>
   </g>
   <g id="matplotlib.axis_10"/>
   <g id="PathCollection_5">
    <path d="M 22.385455 230.878857 
C 24.241876 230.878857 26.022514 230.141293 27.335202 228.828605 
C 28.64789 227.515916 29.385455 225.735279 29.385455 223.878857 
C 29.385455 222.022435 28.64789 220.241798 27.335202 218.92911 
C 26.022514 217.616421 24.241876 216.878857 22.385455 216.878857 
C 20.529033 216.878857 18.748395 217.616421 17.435707 218.92911 
C 16.123019 220.241798 15.385455 222.022435 15.385455 223.878857 
C 15.385455 225.735279 16.123019 227.515916 17.435707 228.828605 
C 18.748395 230.141293 20.529033 230.878857 22.385455 230.878857 
z
" clip-path="url(#p5be38ed5a1)" style="fill: #e6e6e6; stroke: #333333; stroke-width: 0.5"/>
    <path d="M 56.130909 230.878857 
C 57.987331 230.878857 59.767968 230.141293 61.080657 228.828605 
C 62.393345 227.515916 63.130909 225.735279 63.130909 223.878857 
C 63.130909 222.022435 62.393345 220.241798 61.080657 218.92911 
C 59.767968 217.616421 57.987331 216.878857 56.130909 216.878857 
C 54.274487 216.878857 52.49385 217.616421 51.181162 218.92911 
C 49.868473 220.241798 49.130909 222.022435 49.130909 223.878857 
C 49.130909 225.735279 49.868473 227.515916 51.181162 228.828605 
C 52.49385 230.141293 54.274487 230.878857 56.130909 230.878857 
z
" clip-path="url(#p5be38ed5a1)" style="fill: #e6e6e6; stroke: #333333; stroke-width: 0.666667"/>
    <path d="M 89.876364 230.878857 
C 91.732785 230.878857 93.513423 230.141293 94.826111 228.828605 
C 96.138799 227.515916 96.876364 225.735279 96.876364 223.878857 
C 96.876364 222.022435 96.138799 220.241798 94.826111 218.92911 
C 93.513423 217.616421 91.732785 216.878857 89.876364 216.878857 
C 88.019942 216.878857 86.239305 217.616421 84.926616 218.92911 
C 83.613928 220.241798 82.876364 222.022435 82.876364 223.878857 
C 82.876364 225.735279 83.613928 227.515916 84.926616 228.828605 
C 86.239305 230.141293 88.019942 230.878857 89.876364 230.878857 
z
" clip-path="url(#p5be38ed5a1)" style="fill: #e6e6e6; stroke: #333333; stroke-width: 0.833333"/>
    <path d="M 123.621818 230.878857 
C 125.47824 230.878857 127.258877 230.141293 128.571566 228.828605 
C 129.884254 227.515916 130.621818 225.735279 130.621818 223.878857 
C 130.621818 222.022435 129.884254 220.241798 128.571566 218.92911 
C 127.258877 217.616421 125.47824 216.878857 123.621818 216.878857 
C 121.765396 216.878857 119.984759 217.616421 118.672071 218.92911 
C 117.359382 220.241798 116.621818 222.022435 116.621818 223.878857 
C 116.621818 225.735279 117.359382 227.515916 118.672071 228.828605 
C 119.984759 230.141293 121.765396 230.878857 123.621818 230.878857 
z
" clip-path="url(#p5be38ed5a1)" style="fill: #e6e6e6; stroke: #333333"/>
    <path d="M 157.367273 230.878857 
C 159.223694 230.878857 161.004332 230.141293 162.31702 228.828605 
C 163.629709 227.515916 164.367273 225.735279 164.367273 223.878857 
C 164.367273 222.022435 163.629709 220.241798 162.31702 218.92911 
C 161.004332 217.616421 159.223694 216.878857 157.367273 216.878857 
C 155.510851 216.878857 153.730214 217.616421 152.417525 218.92911 
C 151.104837 220.241798 150.367273 222.022435 150.367273 223.878857 
C 150.367273 225.735279 151.104837 227.515916 152.417525 228.828605 
C 153.730214 230.141293 155.510851 230.878857 157.367273 230.878857 
z
" clip-path="url(#p5be38ed5a1)" style="fill: #e6e6e6; stroke: #333333; stroke-width: 1.166667"/>
    <path d="M 191.112727 230.878857 
C 192.969149 230.878857 194.749786 230.141293 196.062475 228.828605 
C 197.375163 227.515916 198.112727 225.735279 198.112727 223.878857 
C 198.112727 222.022435 197.375163 220.241798 196.062475 218.92911 
C 194.749786 217.616421 192.969149 216.878857 191.112727 216.878857 
C 189.256306 216.878857 187.475668 217.616421 186.16298 218.92911 
C 184.850291 220.241798 184.112727 222.022435 184.112727 223.878857 
C 184.112727 225.735279 184.850291 227.515916 186.16298 228.828605 
C 187.475668 230.141293 189.256306 230.878857 191.112727 230.878857 
z
" clip-path="url(#p5be38ed5a1)" style="fill: #e6e6e6; stroke: #333333; stroke-width: 1.333333"/>
    <path d="M 224.858182 230.878857 
C 226.714604 230.878857 228.495241 230.141293 229.807929 228.828605 
C 231.120618 227.515916 231.858182 225.735279 231.858182 223.878857 
C 231.858182 222.022435 231.120618 220.241798 229.807929 218.92911 
C 228.495241 217.616421 226.714604 216.878857 224.858182 216.878857 
C 223.00176 216.878857 221.221123 217.616421 219.908434 218.92911 
C 218.595746 220.241798 217.858182 222.022435 217.858182 223.878857 
C 217.858182 225.735279 218.595746 227.515916 219.908434 228.828605 
C 221.221123 230.141293 223.00176 230.878857 224.858182 230.878857 
z
" clip-path="url(#p5be38ed5a1)" style="fill: #e6e6e6; stroke: #333333; stroke-width: 1.5"/>
    <path d="M 258.603636 230.878857 
C 260.460058 230.878857 262.240695 230.141293 263.553384 228.828605 
C 264.866072 227.515916 265.603636 225.735279 265.603636 223.878857 
C 265.603636 222.022435 264.866072 220.241798 263.553384 218.92911 
C 262.240695 217.616421 260.460058 216.878857 258.603636 216.878857 
C 256.747215 216.878857 254.966577 217.616421 253.653889 218.92911 
C 252.341201 220.241798 251.603636 222.022435 251.603636 223.878857 
C 251.603636 225.735279 252.341201 227.515916 253.653889 228.828605 
C 254.966577 230.141293 256.747215 230.878857 258.603636 230.878857 
z
" clip-path="url(#p5be38ed5a1)" style="fill: #e6e6e6; stroke: #333333; stroke-width: 1.666667"/>
    <path d="M 292.349091 230.878857 
C 294.205513 230.878857 295.98615 230.141293 297.298838 228.828605 
C 298.611527 227.515916 299.349091 225.735279 299.349091 223.878857 
C 299.349091 222.022435 298.611527 220.241798 297.298838 218.92911 
C 295.98615 217.616421 294.205513 216.878857 292.349091 216.878857 
C 290.492669 216.878857 288.712032 217.616421 287.399343 218.92911 
C 286.086655 220.241798 285.349091 222.022435 285.349091 223.878857 
C 285.349091 225.735279 286.086655 227.515916 287.399343 228.828605 
C 288.712032 230.141293 290.492669 230.878857 292.349091 230.878857 
z
" clip-path="url(#p5be38ed5a1)" style="fill: #e6e6e6; stroke: #333333; stroke-width: 1.833333"/>
    <path d="M 326.094545 230.878857 
C 327.950967 230.878857 329.731605 230.141293 331.044293 228.828605 
C 332.356981 227.515916 333.094545 225.735279 333.094545 223.878857 
C 333.094545 222.022435 332.356981 220.241798 331.044293 218.92911 
C 329.731605 217.616421 327.950967 216.878857 326.094545 216.878857 
C 324.238124 216.878857 322.457486 217.616421 321.144798 218.92911 
C 319.83211 220.241798 319.094545 222.022435 319.094545 223.878857 
C 319.094545 225.735279 319.83211 227.515916 321.144798 228.828605 
C 322.457486 230.141293 324.238124 230.878857 326.094545 230.878857 
z
" clip-path="url(#p5be38ed5a1)" style="fill: #e6e6e6; stroke: #333333; stroke-width: 2"/>
   </g>
   <g id="patch_11">
    <path d="M 7.2 236.125714 
L 341.28 236.125714 
" style="fill: none; stroke: #262626; stroke-width: 1.25; stroke-linejoin: miter; stroke-linecap: square"/>
   </g>
  </g>
  <g id="axes_6">
   <g id="patch_12">
    <path d="M 7.2 285.702857 
L 341.28 285.702857 
L 341.28 255.085714 
L 7.2 255.085714 
z
" style="fill: #ffffff"/>
   </g>
   <g id="matplotlib.axis_11">
    <g id="xtick_51">
     <g id="line2d_51">
      <g>
       <use xlink:href="#m0d6181e226" x="22.385455" y="285.702857" style="fill: #262626; stroke: #262626; stroke-width: 1.25"/>
      </g>
     </g>
    </g>
    <g id="xtick_52">
     <g id="line2d_52">
      <g>
       <use xlink:href="#m0d6181e226" x="56.130909" y="285.702857" style="fill: #262626; stroke: #262626; stroke-width: 1.25"/>
      </g>
     </g>
    </g>
    <g id="xtick_53">
     <g id="line2d_53">
      <g>
       <use xlink:href="#m0d6181e226" x="89.876364" y="285.702857" style="fill: #262626; stroke: #262626; stroke-width: 1.25"/>
      </g>
     </g>
    </g>
    <g id="xtick_54">
     <g id="line2d_54">
      <g>
       <use xlink:href="#m0d6181e226" x="123.621818" y="285.702857" style="fill: #262626; stroke: #262626; stroke-width: 1.25"/>
      </g>
     </g>
    </g>
    <g id="xtick_55">
     <g id="line2d_55">
      <g>
       <use xlink:href="#m0d6181e226" x="157.367273" y="285.702857" style="fill: #262626; stroke: #262626; stroke-width: 1.25"/>
      </g>
     </g>
    </g>
    <g id="xtick_56">
     <g id="line2d_56">
      <g>
       <use xlink:href="#m0d6181e226" x="191.112727" y="285.702857" style="fill: #262626; stroke: #262626; stroke-width: 1.25"/>
      </g>
     </g>
    </g>
    <g id="xtick_57">
     <g id="line2d_57">
      <g>
       <use xlink:href="#m0d6181e226" x="224.858182" y="285.702857" style="fill: #262626; stroke: #262626; stroke-width: 1.25"/>
      </g>
     </g>
    </g>
    <g id="xtick_58">
     <g id="line2d_58">
      <g>
       <use xlink:href="#m0d6181e226" x="258.603636" y="285.702857" style="fill: #262626; stroke: #262626; stroke-width: 1.25"/>
      </g>
     </g>
    </g>
    <g id="xtick_59">
     <g id="line2d_59">
      <g>
       <use xlink:href="#m0d6181e226" x="292.349091" y="285.702857" style="fill: #262626; stroke: #262626; stroke-width: 1.25"/>
      </g>
     </g>
    </g>
    <g id="xtick_60">
     <g id="line2d_60">
      <g>
       <use xlink:href="#m0d6181e226" x="326.094545" y="285.702857" style="fill: #262626; stroke: #262626; stroke-width: 1.25"/>
      </g>
     </g>
    </g>
   </g>
   <g id="matplotlib.axis_12"/>
   <g id="PathCollection_6">
    <path d="M 22.385455 280.456 
C 24.241876 280.456 26.022514 279.718436 27.335202 278.405747 
C 28.64789 277.093059 29.385455 275.312422 29.385455 273.456 
C 29.385455 271.599578 28.64789 269.818941 27.335202 268.506253 
C 26.022514 267.193564 24.241876 266.456 22.385455 266.456 
C 20.529033 266.456 18.748395 267.193564 17.435707 268.506253 
C 16.123019 269.818941 15.385455 271.599578 15.385455 273.456 
C 15.385455 275.312422 16.123019 277.093059 17.435707 278.405747 
C 18.748395 279.718436 20.529033 280.456 22.385455 280.456 
z
" clip-path="url(#pc7c0e0bfeb)" style="fill: #4c4c4c; stroke: #4c4c4c; stroke-width: 0.5"/>
    <path d="M 52.630909 280.456 
L 56.130909 276.956 
L 59.630909 280.456 
L 63.130909 276.956 
L 59.630909 273.456 
L 63.130909 269.956 
L 59.630909 266.456 
L 56.130909 269.956 
L 52.630909 266.456 
L 49.130909 269.956 
L 52.630909 273.456 
L 49.130909 276.956 
z
" clip-path="url(#pc7c0e0bfeb)" style="fill: #4c4c4c; stroke: #4c4c4c; stroke-width: 0.5"/>
    <path d="M 84.926616 268.506253 
L 84.926616 278.405747 
L 94.826111 278.405747 
L 94.826111 268.506253 
z
" clip-path="url(#pc7c0e0bfeb)" style="fill: #4c4c4c; stroke: #4c4c4c; stroke-width: 0.5"/>
    <path d="M 121.288485 280.456 
L 125.955152 280.456 
L 125.955152 275.789333 
L 130.621818 275.789333 
L 130.621818 271.122667 
L 125.955152 271.122667 
L 125.955152 266.456 
L 121.288485 266.456 
L 121.288485 271.122667 
L 116.621818 271.122667 
L 116.621818 275.789333 
L 121.288485 275.789333 
z
" clip-path="url(#pc7c0e0bfeb)" style="fill: #4c4c4c; stroke: #4c4c4c; stroke-width: 0.5"/>
    <path d="M 157.367273 266.456 
L 150.367273 273.456 
L 157.367273 280.456 
L 164.367273 273.456 
z
" clip-path="url(#pc7c0e0bfeb)" style="fill: #4c4c4c; stroke: #4c4c4c; stroke-width: 0.5"/>
    <path d="M 191.112727 266.456 
L 188.637854 270.981126 
L 184.112727 273.456 
L 188.637854 275.930874 
L 191.112727 280.456 
L 193.587601 275.930874 
L 198.112727 273.456 
L 193.587601 270.981126 
z
" clip-path="url(#pc7c0e0bfeb)" style="fill: #4c4c4c; stroke: #4c4c4c; stroke-width: 0.5"/>
    <path d="M 224.858182 266.456 
L 217.858182 280.456 
L 231.858182 280.456 
z
" clip-path="url(#pc7c0e0bfeb)" style="fill: #4c4c4c; stroke: #4c4c4c; stroke-width: 0.5"/>
    <path d="M 253.653889 268.506253 
L 255.103636 273.456 
L 253.653889 278.405747 
L 258.603636 276.956 
L 263.553384 278.405747 
L 262.103636 273.456 
L 263.553384 268.506253 
L 258.603636 269.956 
z
" clip-path="url(#pc7c0e0bfeb)" style="fill: #4c4c4c; stroke: #4c4c4c; stroke-width: 0.5"/>
    <path d="M 292.349091 280.456 
L 299.349091 266.456 
L 285.349091 266.456 
z
" clip-path="url(#pc7c0e0bfeb)" style="fill: #4c4c4c; stroke: #4c4c4c; stroke-width: 0.5"/>
    <path d="M 322.594545 267.393822 
L 323.063457 271.706 
L 319.094545 273.456 
L 323.063457 275.206 
L 322.594545 279.518178 
L 326.094545 276.956 
L 329.594545 279.518178 
L 329.125634 275.206 
L 333.094545 273.456 
L 329.125634 271.706 
L 329.594545 267.393822 
L 326.094545 269.956 
z
" clip-path="url(#pc7c0e0bfeb)" style="fill: #4c4c4c; stroke: #4c4c4c; stroke-width: 0.5"/>
   </g>
   <g id="patch_13">
    <path d="M 7.2 285.702857 
L 341.28 285.702857 
" style="fill: none; stroke: #262626; stroke-width: 1.25; stroke-linejoin: miter; stroke-linecap: square"/>
   </g>
  </g>
  <g id="axes_7">
   <g id="patch_14">
    <path d="M 7.2 335.28 
L 341.28 335.28 
L 341.28 304.662857 
L 7.2 304.662857 
z
" style="fill: #ffffff"/>
   </g>
   <g id="matplotlib.axis_13">
    <g id="xtick_61">
     <g id="line2d_61">
      <g>
       <use xlink:href="#m0d6181e226" x="22.385455" y="335.28" style="fill: #262626; stroke: #262626; stroke-width: 1.25"/>
      </g>
     </g>
    </g>
    <g id="xtick_62">
     <g id="line2d_62">
      <g>
       <use xlink:href="#m0d6181e226" x="56.130909" y="335.28" style="fill: #262626; stroke: #262626; stroke-width: 1.25"/>
      </g>
     </g>
    </g>
    <g id="xtick_63">
     <g id="line2d_63">
      <g>
       <use xlink:href="#m0d6181e226" x="89.876364" y="335.28" style="fill: #262626; stroke: #262626; stroke-width: 1.25"/>
      </g>
     </g>
    </g>
    <g id="xtick_64">
     <g id="line2d_64">
      <g>
       <use xlink:href="#m0d6181e226" x="123.621818" y="335.28" style="fill: #262626; stroke: #262626; stroke-width: 1.25"/>
      </g>
     </g>
    </g>
    <g id="xtick_65">
     <g id="line2d_65">
      <g>
       <use xlink:href="#m0d6181e226" x="157.367273" y="335.28" style="fill: #262626; stroke: #262626; stroke-width: 1.25"/>
      </g>
     </g>
    </g>
    <g id="xtick_66">
     <g id="line2d_66">
      <g>
       <use xlink:href="#m0d6181e226" x="191.112727" y="335.28" style="fill: #262626; stroke: #262626; stroke-width: 1.25"/>
      </g>
     </g>
    </g>
    <g id="xtick_67">
     <g id="line2d_67">
      <g>
       <use xlink:href="#m0d6181e226" x="224.858182" y="335.28" style="fill: #262626; stroke: #262626; stroke-width: 1.25"/>
      </g>
     </g>
    </g>
    <g id="xtick_68">
     <g id="line2d_68">
      <g>
       <use xlink:href="#m0d6181e226" x="258.603636" y="335.28" style="fill: #262626; stroke: #262626; stroke-width: 1.25"/>
      </g>
     </g>
    </g>
    <g id="xtick_69">
     <g id="line2d_69">
      <g>
       <use xlink:href="#m0d6181e226" x="292.349091" y="335.28" style="fill: #262626; stroke: #262626; stroke-width: 1.25"/>
      </g>
     </g>
    </g>
    <g id="xtick_70">
     <g id="line2d_70">
      <g>
       <use xlink:href="#m0d6181e226" x="326.094545" y="335.28" style="fill: #262626; stroke: #262626; stroke-width: 1.25"/>
      </g>
     </g>
    </g>
   </g>
   <g id="matplotlib.axis_14"/>
   <g id="PathCollection_7">
    <path d="M 15.385455 330.033143 
L 29.385455 316.033143 
M 15.385455 316.033143 
L 29.385455 330.033143 
" clip-path="url(#p1ca305d0cf)" style="fill: none; stroke: #4c4c4c; stroke-width: 0.25"/>
    <path d="M 49.130909 330.033143 
L 63.130909 316.033143 
M 49.130909 316.033143 
L 63.130909 330.033143 
" clip-path="url(#p1ca305d0cf)" style="fill: none; stroke: #4c4c4c; stroke-width: 0.5"/>
    <path d="M 82.876364 330.033143 
L 96.876364 316.033143 
M 82.876364 316.033143 
L 96.876364 330.033143 
" clip-path="url(#p1ca305d0cf)" style="fill: none; stroke: #4c4c4c; stroke-width: 0.75"/>
    <path d="M 116.621818 330.033143 
L 130.621818 316.033143 
M 116.621818 316.033143 
L 130.621818 330.033143 
" clip-path="url(#p1ca305d0cf)" style="fill: none; stroke: #4c4c4c"/>
    <path d="M 150.367273 330.033143 
L 164.367273 316.033143 
M 150.367273 316.033143 
L 164.367273 330.033143 
" clip-path="url(#p1ca305d0cf)" style="fill: none; stroke: #4c4c4c; stroke-width: 1.25"/>
    <path d="M 184.112727 330.033143 
L 198.112727 316.033143 
M 184.112727 316.033143 
L 198.112727 330.033143 
" clip-path="url(#p1ca305d0cf)" style="fill: none; stroke: #4c4c4c; stroke-width: 1.5"/>
    <path d="M 217.858182 330.033143 
L 231.858182 316.033143 
M 217.858182 316.033143 
L 231.858182 330.033143 
" clip-path="url(#p1ca305d0cf)" style="fill: none; stroke: #4c4c4c; stroke-width: 1.75"/>
    <path d="M 251.603636 330.033143 
L 265.603636 316.033143 
M 251.603636 316.033143 
L 265.603636 330.033143 
" clip-path="url(#p1ca305d0cf)" style="fill: none; stroke: #4c4c4c; stroke-width: 2"/>
    <path d="M 285.349091 330.033143 
L 299.349091 316.033143 
M 285.349091 316.033143 
L 299.349091 330.033143 
" clip-path="url(#p1ca305d0cf)" style="fill: none; stroke: #4c4c4c; stroke-width: 2.25"/>
    <path d="M 319.094545 330.033143 
L 333.094545 316.033143 
M 319.094545 316.033143 
L 333.094545 330.033143 
" clip-path="url(#p1ca305d0cf)" style="fill: none; stroke: #4c4c4c; stroke-width: 2.5"/>
   </g>
   <g id="patch_15">
    <path d="M 7.2 335.28 
L 341.28 335.28 
" style="fill: none; stroke: #262626; stroke-width: 1.25; stroke-linejoin: miter; stroke-linecap: square"/>
   </g>
  </g>
 </g>
 <defs>
  <clipPath id="pb43f46aa41">
   <rect x="7.2" y="7.2" width="334.08" height="30.617143"/>
  </clipPath>
  <clipPath id="p16414f1737">
   <rect x="7.2" y="56.777143" width="334.08" height="30.617143"/>
  </clipPath>
  <clipPath id="p5300fc3ee2">
   <rect x="7.2" y="106.354286" width="334.08" height="30.617143"/>
  </clipPath>
  <clipPath id="pa037735317">
   <rect x="7.2" y="155.931429" width="334.08" height="30.617143"/>
  </clipPath>
  <clipPath id="p5be38ed5a1">
   <rect x="7.2" y="205.508571" width="334.08" height="30.617143"/>
  </clipPath>
  <clipPath id="pc7c0e0bfeb">
   <rect x="7.2" y="255.085714" width="334.08" height="30.617143"/>
  </clipPath>
  <clipPath id="p1ca305d0cf">
   <rect x="7.2" y="304.662857" width="334.08" height="30.617143"/>
  </clipPath>
 </defs>
</svg>
