<?xml version="1.0" encoding="utf-8" standalone="no"?>
<!DOCTYPE svg PUBLIC "-//W3C//DTD SVG 1.1//EN"
  "http://www.w3.org/Graphics/SVG/1.1/DTD/svg11.dtd">
<svg xmlns:xlink="http://www.w3.org/1999/xlink" width="348.48pt" height="348.48pt" viewBox="0 0 348.48 348.48" xmlns="http://www.w3.org/2000/svg" version="1.1">
 <metadata>
  <rdf:RDF xmlns:dc="http://purl.org/dc/elements/1.1/" xmlns:cc="http://creativecommons.org/ns#" xmlns:rdf="http://www.w3.org/1999/02/22-rdf-syntax-ns#">
   <cc:Work>
    <dc:type rdf:resource="http://purl.org/dc/dcmitype/StillImage"/>
    <dc:date>2022-09-05T21:32:59.439015</dc:date>
    <dc:format>image/svg+xml</dc:format>
    <dc:creator>
     <cc:Agent>
      <dc:title>Matplotlib v3.6.0rc1, https://matplotlib.org/</dc:title>
     </cc:Agent>
    </dc:creator>
   </cc:Work>
  </rdf:RDF>
 </metadata>
 <defs>
  <style type="text/css">*{stroke-linejoin: round; stroke-linecap: butt}</style>
 </defs>
 <g id="figure_1">
  <g id="patch_1">
   <path d="M 0 348.48 
L 348.48 348.48 
L 348.48 0 
L 0 0 
z
" style="fill: #ffffff"/>
  </g>
  <g id="axes_1">
   <g id="patch_2">
    <path d="M 7.2 167.76 
L 167.76 167.76 
L 167.76 7.2 
L 7.2 7.2 
z
" style="fill: #ffffff"/>
   </g>
   <g id="matplotlib.axis_1">
    <g id="xtick_1"/>
    <g id="xtick_2"/>
    <g id="xtick_3"/>
   </g>
   <g id="matplotlib.axis_2">
    <g id="ytick_1"/>
    <g id="ytick_2"/>
    <g id="ytick_3"/>
    <g id="ytick_4"/>
    <g id="ytick_5"/>
    <g id="ytick_6"/>
   </g>
   <g id="PathCollection_1">
    <defs>
     <path id="m63f7774d91" d="M 0 4.472136 
C 1.186024 4.472136 2.323632 4.000923 3.162278 3.162278 
C 4.000923 2.323632 4.472136 1.186024 4.472136 0 
C 4.472136 -1.186024 4.000923 -2.323632 3.162278 -3.162278 
C 2.323632 -4.000923 1.186024 -4.472136 0 -4.472136 
C -1.186024 -4.472136 -2.323632 -4.000923 -3.162278 -3.162278 
C -4.000923 -2.323632 -4.472136 -1.186024 -4.472136 0 
C -4.472136 1.186024 -4.000923 2.323632 -3.162278 3.162278 
C -2.323632 4.000923 -1.186024 4.472136 0 4.472136 
z
" style="stroke: #333333; stroke-opacity: 0.8"/>
    </defs>
    <g clip-path="url(#p2ec1c69660)">
     <use xlink:href="#m63f7774d91" x="79.56507" y="81.342035" style="fill: #b2b2b2; fill-opacity: 0.8; stroke: #333333; stroke-opacity: 0.8"/>
     <use xlink:href="#m63f7774d91" x="61.473803" y="96.93733" style="fill: #b2b2b2; fill-opacity: 0.8; stroke: #333333; stroke-opacity: 0.8"/>
     <use xlink:href="#m63f7774d91" x="106.701972" y="87.923536" style="fill: #b2b2b2; fill-opacity: 0.8; stroke: #333333; stroke-opacity: 0.8"/>
     <use xlink:href="#m63f7774d91" x="70.519437" y="70.325176" style="fill: #b2b2b2; fill-opacity: 0.8; stroke: #333333; stroke-opacity: 0.8"/>
     <use xlink:href="#m63f7774d91" x="88.610704" y="77.192828" style="fill: #b2b2b2; fill-opacity: 0.8; stroke: #333333; stroke-opacity: 0.8"/>
     <use xlink:href="#m63f7774d91" x="115.747606" y="53.871424" style="fill: #b2b2b2; fill-opacity: 0.8; stroke: #333333; stroke-opacity: 0.8"/>
     <use xlink:href="#m63f7774d91" x="43.382535" y="92.788123" style="fill: #b2b2b2; fill-opacity: 0.8; stroke: #333333; stroke-opacity: 0.8"/>
     <use xlink:href="#m63f7774d91" x="25.291268" y="135.424801" style="fill: #b2b2b2; fill-opacity: 0.8; stroke: #333333; stroke-opacity: 0.8"/>
     <use xlink:href="#m63f7774d91" x="97.656338" y="41.280727" style="fill: #b2b2b2; fill-opacity: 0.8; stroke: #333333; stroke-opacity: 0.8"/>
     <use xlink:href="#m63f7774d91" x="52.428169" y="127.41254" style="fill: #b2b2b2; fill-opacity: 0.8; stroke: #333333; stroke-opacity: 0.8"/>
     <use xlink:href="#m63f7774d91" x="34.336901" y="115.107995" style="fill: #b2b2b2; fill-opacity: 0.8; stroke: #333333; stroke-opacity: 0.8"/>
    </g>
   </g>
   <g id="line2d_1">
    <path d="M 25.291268 124.830666 
L 26.204968 124.107928 
L 27.118668 123.38519 
L 28.032369 122.662453 
L 28.946069 121.939715 
L 29.85977 121.216977 
L 30.77347 120.494239 
L 31.68717 119.771501 
L 32.600871 119.048763 
L 33.514571 118.326025 
L 34.428271 117.603287 
L 35.341972 116.880549 
L 36.255672 116.157811 
L 37.169373 115.435073 
L 38.083073 114.712335 
L 38.996773 113.989597 
L 39.910474 113.266859 
L 40.824174 112.544121 
L 41.737875 111.821383 
L 42.651575 111.098645 
L 43.565275 110.375907 
L 44.478976 109.653169 
L 45.392676 108.930431 
L 46.306376 108.207694 
L 47.220077 107.484956 
L 48.133777 106.762218 
L 49.047478 106.03948 
L 49.961178 105.316742 
L 50.874878 104.594004 
L 51.788579 103.871266 
L 52.702279 103.148528 
L 53.61598 102.42579 
L 54.52968 101.703052 
L 55.44338 100.980314 
L 56.357081 100.257576 
L 57.270781 99.534838 
L 58.184481 98.8121 
L 59.098182 98.089362 
L 60.011882 97.366624 
L 60.925583 96.643886 
L 61.839283 95.921148 
L 62.752983 95.19841 
L 63.666684 94.475672 
L 64.580384 93.752934 
L 65.494085 93.030197 
L 66.407785 92.307459 
L 67.321485 91.584721 
L 68.235186 90.861983 
L 69.148886 90.139245 
L 70.062586 89.416507 
L 70.976287 88.693769 
L 71.889987 87.971031 
L 72.803688 87.248293 
L 73.717388 86.525555 
L 74.631088 85.802817 
L 75.544789 85.080079 
L 76.458489 84.357341 
L 77.37219 83.634603 
L 78.28589 82.911865 
L 79.19959 82.189127 
L 80.113291 81.466389 
L 81.026991 80.743651 
L 81.940691 80.020913 
L 82.854392 79.298175 
L 83.768092 78.575438 
L 84.681793 77.8527 
L 85.595493 77.129962 
L 86.509193 76.407224 
L 87.422894 75.684486 
L 88.336594 74.961748 
L 89.250294 74.23901 
L 90.163995 73.516272 
L 91.077695 72.793534 
L 91.991396 72.070796 
L 92.905096 71.348058 
L 93.818796 70.62532 
L 94.732497 69.902582 
L 95.646197 69.179844 
L 96.559898 68.457106 
L 97.473598 67.734368 
L 98.387298 67.01163 
L 99.300999 66.288892 
L 100.214699 65.566154 
L 101.128399 64.843416 
L 102.0421 64.120678 
L 102.9558 63.397941 
L 103.869501 62.675203 
L 104.783201 61.952465 
L 105.696901 61.229727 
L 106.610602 60.506989 
L 107.524302 59.784251 
L 108.438003 59.061513 
L 109.351703 58.338775 
L 110.265403 57.616037 
L 111.179104 56.893299 
L 112.092804 56.170561 
L 113.006504 55.447823 
L 113.920205 54.725085 
L 114.833905 54.002347 
L 115.747606 53.279609 
" clip-path="url(#p2ec1c69660)" style="fill: none; stroke: #4c72b0; stroke-width: 4; stroke-linecap: round"/>
   </g>
   <g id="patch_3">
    <path d="M 7.2 167.76 
L 7.2 7.2 
" style="fill: none; stroke: #262626; stroke-width: 1.25; stroke-linejoin: miter; stroke-linecap: square"/>
   </g>
   <g id="patch_4">
    <path d="M 7.2 167.76 
L 167.76 167.76 
" style="fill: none; stroke: #262626; stroke-width: 1.25; stroke-linejoin: miter; stroke-linecap: square"/>
   </g>
  </g>
  <g id="axes_2">
   <g id="patch_5">
    <path d="M 180.72 167.76 
L 341.28 167.76 
L 341.28 7.2 
L 180.72 7.2 
z
" style="fill: #ffffff"/>
   </g>
   <g id="matplotlib.axis_3">
    <g id="xtick_4"/>
    <g id="xtick_5"/>
    <g id="xtick_6"/>
   </g>
   <g id="matplotlib.axis_4">
    <g id="ytick_7"/>
    <g id="ytick_8"/>
    <g id="ytick_9"/>
    <g id="ytick_10"/>
    <g id="ytick_11"/>
    <g id="ytick_12"/>
   </g>
   <g id="PathCollection_2">
    <g clip-path="url(#p2aa3a0fd55)">
     <use xlink:href="#m63f7774d91" x="253.08507" y="65.603664" style="fill: #b2b2b2; fill-opacity: 0.8; stroke: #333333; stroke-opacity: 0.8"/>
     <use xlink:href="#m63f7774d91" x="234.993803" y="79.911274" style="fill: #b2b2b2; fill-opacity: 0.8; stroke: #333333; stroke-opacity: 0.8"/>
     <use xlink:href="#m63f7774d91" x="280.221972" y="71.326708" style="fill: #b2b2b2; fill-opacity: 0.8; stroke: #333333; stroke-opacity: 0.8"/>
     <use xlink:href="#m63f7774d91" x="244.039437" y="70.89748" style="fill: #b2b2b2; fill-opacity: 0.8; stroke: #333333; stroke-opacity: 0.8"/>
     <use xlink:href="#m63f7774d91" x="262.130704" y="63.886751" style="fill: #b2b2b2; fill-opacity: 0.8; stroke: #333333; stroke-opacity: 0.8"/>
     <use xlink:href="#m63f7774d91" x="289.267606" y="80.483579" style="fill: #b2b2b2; fill-opacity: 0.8; stroke: #333333; stroke-opacity: 0.8"/>
     <use xlink:href="#m63f7774d91" x="216.902535" y="108.66957" style="fill: #b2b2b2; fill-opacity: 0.8; stroke: #333333; stroke-opacity: 0.8"/>
     <use xlink:href="#m63f7774d91" x="198.811268" y="152.021629" style="fill: #b2b2b2; fill-opacity: 0.8; stroke: #333333; stroke-opacity: 0.8"/>
     <use xlink:href="#m63f7774d91" x="271.176338" y="65.74674" style="fill: #b2b2b2; fill-opacity: 0.8; stroke: #333333; stroke-opacity: 0.8"/>
     <use xlink:href="#m63f7774d91" x="225.948169" y="92.501971" style="fill: #b2b2b2; fill-opacity: 0.8; stroke: #333333; stroke-opacity: 0.8"/>
     <use xlink:href="#m63f7774d91" x="207.856901" y="128.557148" style="fill: #b2b2b2; fill-opacity: 0.8; stroke: #333333; stroke-opacity: 0.8"/>
    </g>
   </g>
   <g id="line2d_2">
    <path d="M 198.811268 124.824163 
L 199.724968 124.101556 
L 200.638668 123.37895 
L 201.552369 122.656343 
L 202.466069 121.933737 
L 203.37977 121.21113 
L 204.29347 120.488524 
L 205.20717 119.765917 
L 206.120871 119.04331 
L 207.034571 118.320704 
L 207.948271 117.598097 
L 208.861972 116.875491 
L 209.775672 116.152884 
L 210.689373 115.430278 
L 211.603073 114.707671 
L 212.516773 113.985064 
L 213.430474 113.262458 
L 214.344174 112.539851 
L 215.257875 111.817245 
L 216.171575 111.094638 
L 217.085275 110.372032 
L 217.998976 109.649425 
L 218.912676 108.926818 
L 219.826376 108.204212 
L 220.740077 107.481605 
L 221.653777 106.758999 
L 222.567478 106.036392 
L 223.481178 105.313786 
L 224.394878 104.591179 
L 225.308579 103.868572 
L 226.222279 103.145966 
L 227.13598 102.423359 
L 228.04968 101.700753 
L 228.96338 100.978146 
L 229.877081 100.25554 
L 230.790781 99.532933 
L 231.704481 98.810326 
L 232.618182 98.08772 
L 233.531882 97.365113 
L 234.445583 96.642507 
L 235.359283 95.9199 
L 236.272983 95.197294 
L 237.186684 94.474687 
L 238.100384 93.75208 
L 239.014085 93.029474 
L 239.927785 92.306867 
L 240.841485 91.584261 
L 241.755186 90.861654 
L 242.668886 90.139048 
L 243.582586 89.416441 
L 244.496287 88.693835 
L 245.409987 87.971228 
L 246.323688 87.248621 
L 247.237388 86.526015 
L 248.151088 85.803408 
L 249.064789 85.080802 
L 249.978489 84.358195 
L 250.89219 83.635589 
L 251.80589 82.912982 
L 252.71959 82.190375 
L 253.633291 81.467769 
L 254.546991 80.745162 
L 255.460691 80.022556 
L 256.374392 79.299949 
L 257.288092 78.577343 
L 258.201793 77.854736 
L 259.115493 77.132129 
L 260.029193 76.409523 
L 260.942894 75.686916 
L 261.856594 74.96431 
L 262.770294 74.241703 
L 263.683995 73.519097 
L 264.597695 72.79649 
L 265.511396 72.073883 
L 266.425096 71.351277 
L 267.338796 70.62867 
L 268.252497 69.906064 
L 269.166197 69.183457 
L 270.079898 68.460851 
L 270.993598 67.738244 
L 271.907298 67.015637 
L 272.820999 66.293031 
L 273.734699 65.570424 
L 274.648399 64.847818 
L 275.5621 64.125211 
L 276.4758 63.402605 
L 277.389501 62.679998 
L 278.303201 61.957391 
L 279.216901 61.234785 
L 280.130602 60.512178 
L 281.044302 59.789572 
L 281.958003 59.066965 
L 282.871703 58.344359 
L 283.785403 57.621752 
L 284.699104 56.899146 
L 285.612804 56.176539 
L 286.526504 55.453932 
L 287.440205 54.731326 
L 288.353905 54.008719 
L 289.267606 53.286113 
" clip-path="url(#p2aa3a0fd55)" style="fill: none; stroke: #dd8452; stroke-width: 4; stroke-linecap: round"/>
   </g>
   <g id="patch_6">
    <path d="M 180.72 167.76 
L 180.72 7.2 
" style="fill: none; stroke: #262626; stroke-width: 1.25; stroke-linejoin: miter; stroke-linecap: square"/>
   </g>
   <g id="patch_7">
    <path d="M 180.72 167.76 
L 341.28 167.76 
" style="fill: none; stroke: #262626; stroke-width: 1.25; stroke-linejoin: miter; stroke-linecap: square"/>
   </g>
  </g>
  <g id="axes_3">
   <g id="patch_8">
    <path d="M 7.2 341.28 
L 167.76 341.28 
L 167.76 180.72 
L 7.2 180.72 
z
" style="fill: #ffffff"/>
   </g>
   <g id="matplotlib.axis_5">
    <g id="xtick_7"/>
    <g id="xtick_8"/>
    <g id="xtick_9"/>
   </g>
   <g id="matplotlib.axis_6">
    <g id="ytick_13"/>
    <g id="ytick_14"/>
    <g id="ytick_15"/>
    <g id="ytick_16"/>
    <g id="ytick_17"/>
    <g id="ytick_18"/>
   </g>
   <g id="PathCollection_3">
    <g clip-path="url(#pd0aef819f9)">
     <use xlink:href="#m63f7774d91" x="79.56507" y="263.160449" style="fill: #b2b2b2; fill-opacity: 0.8; stroke: #333333; stroke-opacity: 0.8"/>
     <use xlink:href="#m63f7774d91" x="61.473803" y="273.0327" style="fill: #b2b2b2; fill-opacity: 0.8; stroke: #333333; stroke-opacity: 0.8"/>
     <use xlink:href="#m63f7774d91" x="106.701972" y="187.616268" style="fill: #b2b2b2; fill-opacity: 0.8; stroke: #333333; stroke-opacity: 0.8"/>
     <use xlink:href="#m63f7774d91" x="70.519437" y="268.168113" style="fill: #b2b2b2; fill-opacity: 0.8; stroke: #333333; stroke-opacity: 0.8"/>
     <use xlink:href="#m63f7774d91" x="88.610704" y="258.152786" style="fill: #b2b2b2; fill-opacity: 0.8; stroke: #333333; stroke-opacity: 0.8"/>
     <use xlink:href="#m63f7774d91" x="115.747606" y="243.415947" style="fill: #b2b2b2; fill-opacity: 0.8; stroke: #333333; stroke-opacity: 0.8"/>
     <use xlink:href="#m63f7774d91" x="43.382535" y="282.904951" style="fill: #b2b2b2; fill-opacity: 0.8; stroke: #333333; stroke-opacity: 0.8"/>
     <use xlink:href="#m63f7774d91" x="25.291268" y="292.777202" style="fill: #b2b2b2; fill-opacity: 0.8; stroke: #333333; stroke-opacity: 0.8"/>
     <use xlink:href="#m63f7774d91" x="97.656338" y="253.288198" style="fill: #b2b2b2; fill-opacity: 0.8; stroke: #333333; stroke-opacity: 0.8"/>
     <use xlink:href="#m63f7774d91" x="52.428169" y="278.040364" style="fill: #b2b2b2; fill-opacity: 0.8; stroke: #333333; stroke-opacity: 0.8"/>
     <use xlink:href="#m63f7774d91" x="34.336901" y="287.912615" style="fill: #b2b2b2; fill-opacity: 0.8; stroke: #333333; stroke-opacity: 0.8"/>
    </g>
   </g>
   <g id="line2d_3">
    <path d="M 25.291268 298.337659 
L 26.204968 297.615447 
L 27.118668 296.893235 
L 28.032369 296.171022 
L 28.946069 295.44881 
L 29.85977 294.726597 
L 30.77347 294.004385 
L 31.68717 293.282173 
L 32.600871 292.55996 
L 33.514571 291.837748 
L 34.428271 291.115535 
L 35.341972 290.393323 
L 36.255672 289.67111 
L 37.169373 288.948898 
L 38.083073 288.226686 
L 38.996773 287.504473 
L 39.910474 286.782261 
L 40.824174 286.060048 
L 41.737875 285.337836 
L 42.651575 284.615624 
L 43.565275 283.893411 
L 44.478976 283.171199 
L 45.392676 282.448986 
L 46.306376 281.726774 
L 47.220077 281.004561 
L 48.133777 280.282349 
L 49.047478 279.560137 
L 49.961178 278.837924 
L 50.874878 278.115712 
L 51.788579 277.393499 
L 52.702279 276.671287 
L 53.61598 275.949074 
L 54.52968 275.226862 
L 55.44338 274.50465 
L 56.357081 273.782437 
L 57.270781 273.060225 
L 58.184481 272.338012 
L 59.098182 271.6158 
L 60.011882 270.893588 
L 60.925583 270.171375 
L 61.839283 269.449163 
L 62.752983 268.72695 
L 63.666684 268.004738 
L 64.580384 267.282525 
L 65.494085 266.560313 
L 66.407785 265.838101 
L 67.321485 265.115888 
L 68.235186 264.393676 
L 69.148886 263.671463 
L 70.062586 262.949251 
L 70.976287 262.227039 
L 71.889987 261.504826 
L 72.803688 260.782614 
L 73.717388 260.060401 
L 74.631088 259.338189 
L 75.544789 258.615976 
L 76.458489 257.893764 
L 77.37219 257.171552 
L 78.28589 256.449339 
L 79.19959 255.727127 
L 80.113291 255.004914 
L 81.026991 254.282702 
L 81.940691 253.560489 
L 82.854392 252.838277 
L 83.768092 252.116065 
L 84.681793 251.393852 
L 85.595493 250.67164 
L 86.509193 249.949427 
L 87.422894 249.227215 
L 88.336594 248.505003 
L 89.250294 247.78279 
L 90.163995 247.060578 
L 91.077695 246.338365 
L 91.991396 245.616153 
L 92.905096 244.89394 
L 93.818796 244.171728 
L 94.732497 243.449516 
L 95.646197 242.727303 
L 96.559898 242.005091 
L 97.473598 241.282878 
L 98.387298 240.560666 
L 99.300999 239.838454 
L 100.214699 239.116241 
L 101.128399 238.394029 
L 102.0421 237.671816 
L 102.9558 236.949604 
L 103.869501 236.227391 
L 104.783201 235.505179 
L 105.696901 234.782967 
L 106.610602 234.060754 
L 107.524302 233.338542 
L 108.438003 232.616329 
L 109.351703 231.894117 
L 110.265403 231.171904 
L 111.179104 230.449692 
L 112.092804 229.72748 
L 113.006504 229.005267 
L 113.920205 228.283055 
L 114.833905 227.560842 
L 115.747606 226.83863 
" clip-path="url(#pd0aef819f9)" style="fill: none; stroke: #55a868; stroke-width: 4; stroke-linecap: round"/>
   </g>
   <g id="patch_9">
    <path d="M 7.2 341.28 
L 7.2 180.72 
" style="fill: none; stroke: #262626; stroke-width: 1.25; stroke-linejoin: miter; stroke-linecap: square"/>
   </g>
   <g id="patch_10">
    <path d="M 7.2 341.28 
L 167.76 341.28 
" style="fill: none; stroke: #262626; stroke-width: 1.25; stroke-linejoin: miter; stroke-linecap: square"/>
   </g>
  </g>
  <g id="axes_4">
   <g id="patch_11">
    <path d="M 180.72 341.28 
L 341.28 341.28 
L 341.28 180.72 
L 180.72 180.72 
z
" style="fill: #ffffff"/>
   </g>
   <g id="matplotlib.axis_7">
    <g id="xtick_10"/>
    <g id="xtick_11"/>
    <g id="xtick_12"/>
   </g>
   <g id="matplotlib.axis_8">
    <g id="ytick_19"/>
    <g id="ytick_20"/>
    <g id="ytick_21"/>
    <g id="ytick_22"/>
    <g id="ytick_23"/>
    <g id="ytick_24"/>
   </g>
   <g id="PathCollection_4">
    <g clip-path="url(#p09108fb27a)">
     <use xlink:href="#m63f7774d91" x="234.993803" y="275.751146" style="fill: #b2b2b2; fill-opacity: 0.8; stroke: #333333; stroke-opacity: 0.8"/>
     <use xlink:href="#m63f7774d91" x="234.993803" y="287.483386" style="fill: #b2b2b2; fill-opacity: 0.8; stroke: #333333; stroke-opacity: 0.8"/>
     <use xlink:href="#m63f7774d91" x="234.993803" y="259.583547" style="fill: #b2b2b2; fill-opacity: 0.8; stroke: #333333; stroke-opacity: 0.8"/>
     <use xlink:href="#m63f7774d91" x="234.993803" y="243.415947" style="fill: #b2b2b2; fill-opacity: 0.8; stroke: #333333; stroke-opacity: 0.8"/>
     <use xlink:href="#m63f7774d91" x="234.993803" y="248.709763" style="fill: #b2b2b2; fill-opacity: 0.8; stroke: #333333; stroke-opacity: 0.8"/>
     <use xlink:href="#m63f7774d91" x="234.993803" y="269.169645" style="fill: #b2b2b2; fill-opacity: 0.8; stroke: #333333; stroke-opacity: 0.8"/>
     <use xlink:href="#m63f7774d91" x="234.993803" y="294.780267" style="fill: #b2b2b2; fill-opacity: 0.8; stroke: #333333; stroke-opacity: 0.8"/>
     <use xlink:href="#m63f7774d91" x="334.495775" y="191.050094" style="fill: #b2b2b2; fill-opacity: 0.8; stroke: #333333; stroke-opacity: 0.8"/>
     <use xlink:href="#m63f7774d91" x="234.993803" y="290.344908" style="fill: #b2b2b2; fill-opacity: 0.8; stroke: #333333; stroke-opacity: 0.8"/>
     <use xlink:href="#m63f7774d91" x="234.993803" y="256.722025" style="fill: #b2b2b2; fill-opacity: 0.8; stroke: #333333; stroke-opacity: 0.8"/>
     <use xlink:href="#m63f7774d91" x="234.993803" y="271.315787" style="fill: #b2b2b2; fill-opacity: 0.8; stroke: #333333; stroke-opacity: 0.8"/>
    </g>
   </g>
   <g id="line2d_4">
    <path d="M 234.993803 269.727642 
L 235.998873 268.932919 
L 237.003944 268.138197 
L 238.009014 267.343474 
L 239.014085 266.548751 
L 240.019155 265.754029 
L 241.024225 264.959306 
L 242.029296 264.164583 
L 243.034366 263.369861 
L 244.039437 262.575138 
L 245.044507 261.780415 
L 246.049577 260.985692 
L 247.054648 260.19097 
L 248.059718 259.396247 
L 249.064789 258.601524 
L 250.069859 257.806802 
L 251.07493 257.012079 
L 252.08 256.217356 
L 253.08507 255.422633 
L 254.090141 254.627911 
L 255.095211 253.833188 
L 256.100282 253.038465 
L 257.105352 252.243743 
L 258.110423 251.44902 
L 259.115493 250.654297 
L 260.120563 249.859575 
L 261.125634 249.064852 
L 262.130704 248.270129 
L 263.135775 247.475406 
L 264.140845 246.680684 
L 265.145915 245.885961 
L 266.150986 245.091238 
L 267.156056 244.296516 
L 268.161127 243.501793 
L 269.166197 242.70707 
L 270.171268 241.912347 
L 271.176338 241.117625 
L 272.181408 240.322902 
L 273.186479 239.528179 
L 274.191549 238.733457 
L 275.19662 237.938734 
L 276.20169 237.144011 
L 277.206761 236.349289 
L 278.211831 235.554566 
L 279.216901 234.759843 
L 280.221972 233.96512 
L 281.227042 233.170398 
L 282.232113 232.375675 
L 283.237183 231.580952 
L 284.242254 230.78623 
L 285.247324 229.991507 
L 286.252394 229.196784 
L 287.257465 228.402062 
L 288.262535 227.607339 
L 289.267606 226.812616 
L 290.272676 226.017893 
L 291.277746 225.223171 
L 292.282817 224.428448 
L 293.287887 223.633725 
L 294.292958 222.839003 
L 295.298028 222.04428 
L 296.303099 221.249557 
L 297.308169 220.454834 
L 298.313239 219.660112 
L 299.31831 218.865389 
L 300.32338 218.070666 
L 301.328451 217.275944 
L 302.333521 216.481221 
L 303.338592 215.686498 
L 304.343662 214.891776 
L 305.348732 214.097053 
L 306.353803 213.30233 
L 307.358873 212.507607 
L 308.363944 211.712885 
L 309.369014 210.918162 
L 310.374085 210.123439 
L 311.379155 209.328717 
L 312.384225 208.533994 
L 313.389296 207.739271 
L 314.394366 206.944549 
L 315.399437 206.149826 
L 316.404507 205.355103 
L 317.409577 204.56038 
L 318.414648 203.765658 
L 319.419718 202.970935 
L 320.424789 202.176212 
L 321.429859 201.38149 
L 322.43493 200.586767 
L 323.44 199.792044 
L 324.44507 198.997321 
L 325.450141 198.202599 
L 326.455211 197.407876 
L 327.460282 196.613153 
L 328.465352 195.818431 
L 329.470423 195.023708 
L 330.475493 194.228985 
L 331.480563 193.434263 
L 332.485634 192.63954 
L 333.490704 191.844817 
L 334.495775 191.050094 
" clip-path="url(#p09108fb27a)" style="fill: none; stroke: #c44e52; stroke-width: 4; stroke-linecap: round"/>
   </g>
   <g id="patch_12">
    <path d="M 180.72 341.28 
L 180.72 180.72 
" style="fill: none; stroke: #262626; stroke-width: 1.25; stroke-linejoin: miter; stroke-linecap: square"/>
   </g>
   <g id="patch_13">
    <path d="M 180.72 341.28 
L 341.28 341.28 
" style="fill: none; stroke: #262626; stroke-width: 1.25; stroke-linejoin: miter; stroke-linecap: square"/>
   </g>
  </g>
 </g>
 <defs>
  <clipPath id="p2ec1c69660">
   <rect x="7.2" y="7.2" width="160.56" height="160.56"/>
  </clipPath>
  <clipPath id="p2aa3a0fd55">
   <rect x="180.72" y="7.2" width="160.56" height="160.56"/>
  </clipPath>
  <clipPath id="pd0aef819f9">
   <rect x="7.2" y="180.72" width="160.56" height="160.56"/>
  </clipPath>
  <clipPath id="p09108fb27a">
   <rect x="180.72" y="180.72" width="160.56" height="160.56"/>
  </clipPath>
 </defs>
</svg>
